SplineFontDB: 2.0
FontName: THK2DJuly8-Italic
FullName: THK2DJuly8-Italic
FamilyName: TH K2D July8
Weight: Book
Copyright: Copyright (c) 2006 by Department of Intellectual Property (DIP), Ministry of Commerce and Software Industry Promotion Agency (Public Organization) (SIPA). All rights reserved.
Version: 1.1
ItalicAngle: -12
UnderlinePosition: -55
UnderlineWidth: 50
Ascent: 800
Descent: 200
Order2: 1
XUID: [1021 375 425136265 5951318]
FSType: 0
OS2Version: 3
OS2_WeightWidthSlopeOnly: 0
OS2_UseTypoMetrics: 1
CreationTime: 1158666240
ModificationTime: 1196170560
PfmFamily: 17
TTFWeight: 400
TTFWidth: 5
LineGap: 60
VLineGap: 0
Panose: 2 0 5 6 0 0 0 2 0 4
OS2TypoAscent: 0
OS2TypoAOffset: 1
OS2TypoDescent: 0
OS2TypoDOffset: 1
OS2TypoLinegap: 0
OS2WinAscent: -21
OS2WinAOffset: 1
OS2WinDescent: -178
OS2WinDOffset: 1
HheadAscent: -21
HheadAOffset: 1
HheadDescent: 178
HheadDOffset: 1
OS2SubXSize: 700
OS2SubYSize: 650
OS2SubXOff: 0
OS2SubYOff: 140
OS2SupXSize: 700
OS2SupYSize: 650
OS2SupXOff: 0
OS2SupYOff: 477
OS2StrikeYSize: 50
OS2StrikeYPos: 250
OS2FamilyClass: 773
OS2Vendor: 'K2D '
Lookup: 4 0 0 "'frac' Diagonal Fractions in Latin lookup 0"  {"'frac' Diagonal Fractions in Latin lookup 0 subtable"  } ['frac' ('latn' <'dflt' > ) ]
Lookup: 6 0 0 "'liga' Standard Ligatures in Latin lookup 1"  {"'liga' Standard Ligatures in Latin lookup 1 subtable"  } ['liga' ('latn' <'dflt' > ) ]
Lookup: 6 0 0 "'liga' Standard Ligatures in Latin lookup 2"  {"'liga' Standard Ligatures in Latin lookup 2 subtable"  } ['liga' ('latn' <'dflt' > ) ]
Lookup: 6 0 0 "'liga' Standard Ligatures in Latin lookup 3"  {"'liga' Standard Ligatures in Latin lookup 3 subtable"  } ['liga' ('latn' <'dflt' > ) ]
Lookup: 6 0 0 "'liga' Standard Ligatures in Latin lookup 4"  {"'liga' Standard Ligatures in Latin lookup 4 subtable"  } ['liga' ('latn' <'dflt' > ) ]
Lookup: 6 0 0 "'liga' Standard Ligatures in Latin lookup 5"  {"'liga' Standard Ligatures in Latin lookup 5 subtable"  } ['liga' ('latn' <'dflt' > ) ]

StartChar: .notdef
Encoding: 65536 -1 0
Width: 753
VWidth: 1507
Flags: W
HStem: 0 53<157 616> 995 53<357 817>
Fore
616 53 m 1,0,-1
 817 995 l 1,1,-1
 357 995 l 1,2,-1
 157 53 l 1,3,-1
 616 53 l 1,0,-1
657 0 m 1,4,-1
 95 0 l 1,5,-1
 317 1048 l 1,6,-1
 879 1048 l 1,7,-1
 657 0 l 1,4,-1
EndSplineSet
EndChar
StartChar: numbersign
Encoding: 35 35 4
Width: 622
VWidth: 1507
Flags: W
HStem: 222 48<103.321 228 295 402 470 597.357> 437 48<173.761 298 366 473 541 666.464>
Fore
553 680 m 2,0,1
 571 731 571 731 621 725 c 1,2,-1
 541 485 l 1,3,-1
 678 485 l 1,4,5
 666 437 666 437 620 437 c 2,6,-1
 525 437 l 1,7,-1
 470 270 l 1,8,-1
 609 270 l 1,9,10
 597 222 597 222 550 222 c 2,11,-1
 454 222 l 1,12,-1
 392 35 l 2,13,14
 375 -17 375 -17 326 -9 c 1,15,-1
 402 222 l 1,16,-1
 279 222 l 1,17,-1
 217 35 l 2,18,19
 200 -17 200 -17 151 -9 c 1,20,-1
 228 222 l 1,21,-1
 93 222 l 1,22,23
 102 270 102 270 152 270 c 2,24,-1
 244 270 l 1,25,-1
 298 437 l 1,26,-1
 163 437 l 1,27,28
 173 485 173 485 222 485 c 2,29,-1
 315 485 l 1,30,-1
 378 680 l 2,31,32
 396 731 396 731 446 725 c 1,33,-1
 366 485 l 1,34,-1
 490 485 l 1,35,-1
 553 680 l 2,0,1
295 270 m 1,36,-1
 419 270 l 1,37,-1
 473 437 l 1,38,-1
 350 437 l 1,39,-1
 295 270 l 1,36,-1
EndSplineSet
EndChar
StartChar: dollar
Encoding: 36 36 5
Width: 682
VWidth: 1507
Flags: W
HStem: -8 55<252.002 312 375 456.265> 669 55<382.58 457 520 575.552>
VStem: 609 62<168.67 223 223 254.142>
Fore
164 226 m 2,0,1
 157 191 157 191 166 161 c 128,-1,2
 175 131 175 131 197 107 c 128,-1,3
 219 83 219 83 251 67 c 128,-1,4
 283 51 283 51 324 47 c 1,5,-1
 387 345 l 1,6,7
 336 356 336 356 298.5 368.5 c 128,-1,8
 261 381 261 381 237.5 400 c 128,-1,9
 214 419 214 419 204 445.5 c 128,-1,10
 194 472 194 472 199 511 c 256,11,12
 203 550 203 550 225 586.5 c 128,-1,13
 247 623 247 623 282.5 652 c 128,-1,14
 318 681 318 681 365.5 700 c 128,-1,15
 413 719 413 719 469 724 c 1,16,-1
 473 749 l 2,17,18
 485 800 485 800 535 800 c 1,19,-1
 520 724 l 1,20,21
 613 716 613 716 657.5 662.5 c 128,-1,22
 702 609 702 609 699 532 c 0,23,24
 696 494 696 494 672 477.5 c 128,-1,25
 648 461 648 461 626 461 c 1,26,27
 629 469 629 469 629.5 472.5 c 0,28,-1
 633 491 l 0,29,30
 647 559 647 559 615 609.5 c 128,-1,31
 583 660 583 660 508 669 c 1,32,-1
 449 392 l 1,33,34
 500 381 500 381 544 370.5 c 128,-1,35
 588 360 588 360 618 342 c 128,-1,36
 648 324 648 324 662.5 297 c 128,-1,37
 677 270 677 270 671 228 c 0,38,39
 663 182 663 182 635 141.5 c 128,-1,40
 607 101 607 101 565 69.5 c 128,-1,41
 523 38 523 38 470.5 17.5 c 128,-1,42
 418 -3 418 -3 363 -8 c 1,43,-1
 359 -33 l 2,44,45
 347 -84 347 -84 297 -84 c 1,46,-1
 312 -8 l 1,47,48
 217 0 217 0 159 53 c 128,-1,49
 101 106 101 106 99 184 c 0,50,51
 101 223 101 223 125 239.5 c 128,-1,52
 149 256 149 256 173 256 c 1,53,54
 170 249 170 249 169 241 c 2,55,-1
 164 226 l 2,0,1
609 223 m 0,56,57
 612 247 612 247 600 264.5 c 128,-1,58
 588 282 588 282 564.5 295.5 c 128,-1,59
 541 309 541 309 508.5 318 c 128,-1,60
 476 327 476 327 437 336 c 1,61,-1
 375 47 l 1,62,63
 418 51 418 51 457.5 67 c 128,-1,64
 497 83 497 83 529 107 c 128,-1,65
 561 131 561 131 582.5 161 c 128,-1,66
 604 191 604 191 609 223 c 0,56,57
259 517 m 0,67,68
 252 467 252 467 287.5 444 c 128,-1,69
 323 421 323 421 399 402 c 1,70,-1
 457 669 l 1,71,72
 416 665 416 665 381.5 650.5 c 128,-1,73
 347 636 347 636 320.5 615.5 c 128,-1,74
 294 595 294 595 278 569.5 c 128,-1,75
 262 544 262 544 259 517 c 0,67,68
EndSplineSet
EndChar
StartChar: percent
Encoding: 37 37 6
Width: 854
VWidth: 1507
Flags: W
HStem: -5 44<592.979 698.851> 309 44<233.616 340.318> 363 44<641.173 771.527> 677 43<306.996 423.42>
Fore
455 427 m 2,0,1
 451 402 451 402 434.5 380.5 c 128,-1,2
 418 359 418 359 393.5 343 c 128,-1,3
 369 327 369 327 340.5 318 c 128,-1,4
 312 309 312 309 280 309 c 256,5,6
 249 309 249 309 224 318 c 128,-1,7
 199 327 199 327 181.5 343 c 128,-1,8
 164 359 164 359 157.5 380.5 c 128,-1,9
 151 402 151 402 155 427 c 2,10,-1
 193 603 l 2,11,12
 197 627 197 627 214 649 c 128,-1,13
 231 671 231 671 254 686.5 c 128,-1,14
 277 702 277 702 306.5 711 c 128,-1,15
 336 720 336 720 368 720 c 0,16,17
 430 720 430 720 466.5 686.5 c 128,-1,18
 503 653 503 653 493 603 c 2,19,-1
 455 427 l 2,0,1
205 427 m 2,20,21
 197 396 197 396 222 374.5 c 128,-1,22
 247 353 247 353 289 353 c 0,23,24
 330 353 330 353 364 374.5 c 128,-1,25
 398 396 398 396 405 427 c 2,26,-1
 443 603 l 2,27,28
 449 633 449 633 424 655 c 128,-1,29
 399 677 399 677 359 677 c 0,30,31
 317 677 317 677 283 655 c 128,-1,32
 249 633 249 633 243 603 c 2,33,-1
 205 427 l 2,20,21
812 113 m 2,34,35
 808 89 808 89 791.5 67 c 128,-1,36
 775 45 775 45 751.5 29.5 c 128,-1,37
 728 14 728 14 699.5 4.5 c 128,-1,38
 671 -5 671 -5 639 -5 c 256,39,40
 607 -5 607 -5 581.5 4.5 c 128,-1,41
 556 14 556 14 539.5 29.5 c 128,-1,42
 523 45 523 45 515.5 67 c 128,-1,43
 508 89 508 89 512 113 c 2,44,-1
 550 289 l 2,45,46
 562 339 562 339 612.5 373 c 128,-1,47
 663 407 663 407 727 407 c 0,48,49
 758 407 758 407 783 398 c 128,-1,50
 808 389 808 389 825.5 373 c 128,-1,51
 843 357 843 357 849.5 335.5 c 128,-1,52
 856 314 856 314 850 289 c 2,53,-1
 812 113 l 2,34,35
562 113 m 2,54,55
 556 83 556 83 581 61 c 128,-1,56
 606 39 606 39 648 39 c 0,57,58
 689 39 689 39 723 61 c 128,-1,59
 757 83 757 83 763 113 c 2,60,-1
 800 289 l 2,61,62
 808 320 808 320 783 341.5 c 128,-1,63
 758 363 758 363 717 363 c 0,64,65
 675 363 675 363 641 341.5 c 128,-1,66
 607 320 607 320 600 289 c 2,67,-1
 562 113 l 2,54,55
733 722 m 2,68,69
 767 770 767 770 811 746 c 1,70,-1
 273 -6 l 2,71,72
 237 -54 237 -54 194 -30 c 1,73,-1
 733 722 l 2,68,69
EndSplineSet
EndChar
StartChar: ampersand
Encoding: 38 38 7
Width: 648
VWidth: 1507
Flags: W
HStem: -9 54<183.538 375.85> 672 53<367.768 499.263>
Fore
506 77 m 1,0,1
 442 33 442 33 375.5 12 c 128,-1,2
 309 -9 309 -9 249 -9 c 0,3,4
 203 -9 203 -9 167 6 c 128,-1,5
 131 21 131 21 107.5 47.5 c 128,-1,6
 84 74 84 74 74.5 110 c 128,-1,7
 65 146 65 146 74 190 c 0,8,9
 90 270 90 270 145 322.5 c 128,-1,10
 200 375 200 375 268 405 c 1,11,12
 223 485 223 485 238 555 c 0,13,14
 244 588 244 588 263 619 c 128,-1,15
 282 650 282 650 310 673 c 128,-1,16
 338 696 338 696 374 710.5 c 128,-1,17
 410 725 410 725 454 725 c 0,18,19
 520 725 520 725 554 687.5 c 128,-1,20
 588 650 588 650 574 583 c 0,21,22
 561 523 561 523 502 472.5 c 128,-1,23
 443 422 443 422 353 384 c 1,24,25
 401 312 401 312 444.5 251 c 128,-1,26
 488 190 488 190 519 155 c 1,27,28
 558 190 558 190 584 226 c 128,-1,29
 610 262 610 262 624 327 c 1,30,31
 675 327 675 327 663 271 c 0,32,33
 656 232 656 232 624 193.5 c 128,-1,34
 592 155 592 155 553 121 c 1,35,36
 573 93 573 93 596.5 62.5 c 128,-1,37
 620 32 620 32 641 11 c 1,38,39
 621 -6 621 -6 599 -7.5 c 128,-1,40
 577 -9 577 -9 562 8 c 2,41,-1
 506 77 l 1,0,1
514 577 m 0,42,43
 522 613 522 613 505 642.5 c 128,-1,44
 488 672 488 672 436 672 c 0,45,46
 381 672 381 672 345 638 c 128,-1,47
 309 604 309 604 300 561 c 0,48,49
 291 519 291 519 302.5 488.5 c 128,-1,50
 314 458 314 458 329 433 c 1,51,-1
 330 425 l 1,52,53
 402 457 402 457 452 491 c 128,-1,54
 502 525 502 525 514 577 c 0,42,43
273 45 m 0,55,56
 330 45 330 45 381.5 64.5 c 128,-1,57
 433 84 433 84 475 116 c 1,58,59
 464 130 464 130 444.5 155.5 c 128,-1,60
 425 181 425 181 401 213.5 c 128,-1,61
 377 246 377 246 349 285 c 128,-1,62
 321 324 321 324 294 365 c 1,63,64
 273 356 273 356 249 341 c 128,-1,65
 225 326 225 326 202 305.5 c 128,-1,66
 179 285 179 285 161 258.5 c 128,-1,67
 143 232 143 232 136 197 c 0,68,69
 121 125 121 125 160.5 85 c 128,-1,70
 200 45 200 45 273 45 c 0,55,56
EndSplineSet
EndChar
StartChar: quotesingle
Encoding: 39 39 8
Width: 220
VWidth: 1507
Flags: W
HStem: 508 217<191 301 301 301>
VStem: 191 67<533.239 607.928>
Fore
214 653 m 2,0,1
 220 690 220 690 243.5 707.5 c 128,-1,2
 267 725 267 725 301 725 c 1,3,-1
 258 565 l 2,4,5
 253 544 253 544 234.5 526 c 128,-1,6
 216 508 216 508 191 508 c 1,7,-1
 214 653 l 2,0,1
EndSplineSet
EndChar
StartChar: parenleft
Encoding: 40 40 9
Width: 287
VWidth: 1507
Flags: W
VStem: 118.5 311.5<173 727 173 173>
Fore
136 307 m 0,0,1
 151 381 151 381 176.5 442 c 128,-1,2
 202 503 202 503 233 554.5 c 128,-1,3
 264 606 264 606 299.5 649 c 128,-1,4
 335 692 335 692 371 728 c 0,5,6
 387 745 387 745 404.5 744 c 128,-1,7
 422 743 422 743 430 727 c 1,8,9
 344 644 344 644 284.5 543 c 128,-1,10
 225 442 225 442 196 307 c 256,11,12
 167 173 167 173 184.5 72 c 128,-1,13
 202 -29 202 -29 252 -112 c 1,14,15
 237 -128 237 -128 219.5 -129 c 128,-1,16
 202 -130 202 -130 193 -113 c 0,17,18
 172 -77 172 -77 154.5 -34 c 128,-1,19
 137 9 137 9 127.5 60.5 c 128,-1,20
 118 112 118 112 118.5 173 c 128,-1,21
 119 234 119 234 136 307 c 0,0,1
EndSplineSet
EndChar
StartChar: asterisk
Encoding: 42 42 11
Width: 434
VWidth: 1507
Flags: W
HStem: 389 356<304 363 304 304> 537 57<479.917 514 143 526 526 526>
Fore
359 546 m 1,0,1
 377 515 377 515 394 483 c 128,-1,2
 411 451 411 451 430 421 c 1,3,-1
 363 389 l 1,4,-1
 324 531 l 1,5,6
 298 496 298 496 272.5 460 c 128,-1,7
 247 424 247 424 220 389 c 1,8,-1
 178 421 l 1,9,-1
 301 550 l 1,10,-1
 143 537 l 1,11,-1
 155 594 l 1,12,-1
 309 583 l 1,13,14
 292 615 292 615 274 648 c 128,-1,15
 256 681 256 681 240 711 c 1,16,-1
 304 745 l 1,17,-1
 345 606 l 1,18,19
 368 639 368 639 393.5 675 c 128,-1,20
 419 711 419 711 443 745 c 1,21,-1
 491 713 l 1,22,-1
 368 582 l 1,23,24
 407 585 407 585 447 588 c 128,-1,25
 487 591 487 591 526 594 c 1,26,-1
 514 537 l 1,27,-1
 359 546 l 1,0,1
EndSplineSet
EndChar
StartChar: plus
Encoding: 43 43 12
Width: 602
VWidth: 1507
Flags: W
HStem: 273 51<115.191 330 398 614.162>
Fore
330 273 m 1,0,-1
 102 273 l 1,1,2
 115 324 115 324 164 324 c 2,3,-1
 341 324 l 1,4,-1
 378 497 l 2,5,6
 389 555 389 555 448 555 c 1,7,-1
 398 324 l 1,8,-1
 626 324 l 1,9,10
 616 273 616 273 564 273 c 2,11,-1
 387 273 l 1,12,-1
 351 99 l 2,13,14
 338 42 338 42 280 42 c 1,15,-1
 330 273 l 1,0,-1
EndSplineSet
EndChar
StartChar: comma
Encoding: 44 44 13
Width: 192
VWidth: 1507
Flags: W
HStem: -149 253<31 119 119 119>
VStem: 51 113<21.5603 91.7089>
Fore
51 47 m 0,0,1
 57 71 57 71 76 87.5 c 128,-1,2
 95 104 95 104 119 104 c 256,3,4
 143 104 143 104 156.5 87.5 c 128,-1,5
 170 71 170 71 164 47 c 0,6,7
 155 2 155 2 141 -30 c 128,-1,8
 127 -62 127 -62 111 -84 c 128,-1,9
 95 -106 95 -106 78.5 -120 c 128,-1,10
 62 -134 62 -134 47 -145 c 0,11,12
 39 -149 39 -149 31 -149 c 128,-1,13
 23 -149 23 -149 20 -145 c 1,14,15
 56 -118 56 -118 81 -84 c 128,-1,16
 106 -50 106 -50 115 -6 c 1,17,18
 106 -9 106 -9 95 -9 c 0,19,20
 71 -9 71 -9 59 7 c 128,-1,21
 47 23 47 23 51 47 c 0,0,1
EndSplineSet
EndChar
StartChar: hyphen
Encoding: 45 45 14
Width: 354
VWidth: 1507
Flags: W
HStem: 271 55<115.875 356.044 102 377 164 164>
Fore
102 271 m 1,0,1
 113 326 113 326 164 326 c 2,2,-1
 377 326 l 1,3,4
 371 298 371 298 356.5 284.5 c 128,-1,5
 342 271 342 271 315 271 c 2,6,-1
 102 271 l 1,0,1
EndSplineSet
EndChar
StartChar: period
Encoding: 46 46 15
Width: 197
VWidth: 1507
Flags: W
HStem: -9 113<76.595 138.859>
VStem: 51 113<22.6933 90.4514>
Fore
51 47 m 0,0,1
 57 71 57 71 76 87.5 c 128,-1,2
 95 104 95 104 119 104 c 256,3,4
 143 104 143 104 156.5 87.5 c 128,-1,5
 170 71 170 71 164 47 c 0,6,7
 160 23 160 23 139.5 7 c 128,-1,8
 119 -9 119 -9 95 -9 c 256,9,10
 71 -9 71 -9 59 7 c 128,-1,11
 47 23 47 23 51 47 c 0,0,1
EndSplineSet
EndChar
StartChar: slash
Encoding: 47 47 16
Width: 420
VWidth: 1507
Flags: W
Fore
515 722 m 2,0,1
 550 770 550 770 594 746 c 1,2,-1
 56 -6 l 2,3,4
 20 -56 20 -56 -21 -30 c 1,5,-1
 515 722 l 2,0,1
EndSplineSet
EndChar
StartChar: zero
Encoding: 48 48 17
Width: 693
VWidth: 1507
Flags: W
HStem: -9 54<284.122 424.223> 671 54<419.777 560.201>
Fore
650 194 m 2,0,1
 641 152 641 152 612 115 c 128,-1,2
 583 78 583 78 541.5 50.5 c 128,-1,3
 500 23 500 23 449 7 c 128,-1,4
 398 -9 398 -9 344 -9 c 256,5,6
 289 -9 289 -9 244.5 7 c 128,-1,7
 200 23 200 23 171 50.5 c 128,-1,8
 142 78 142 78 129 115 c 128,-1,9
 116 152 116 152 125 194 c 2,10,-1
 194 522 l 2,11,12
 203 564 203 564 232 601 c 128,-1,13
 261 638 261 638 302.5 665.5 c 128,-1,14
 344 693 344 693 395 709 c 128,-1,15
 446 725 446 725 500 725 c 256,16,17
 555 725 555 725 599.5 709 c 128,-1,18
 644 693 644 693 673 665.5 c 128,-1,19
 702 638 702 638 715 601 c 128,-1,20
 728 564 728 564 719 522 c 2,21,-1
 650 194 l 2,0,1
185 194 m 2,22,23
 178 163 178 163 188.5 136 c 128,-1,24
 199 109 199 109 222.5 88.5 c 128,-1,25
 246 68 246 68 280 56.5 c 128,-1,26
 314 45 314 45 356 45 c 256,27,28
 398 45 398 45 437 56.5 c 128,-1,29
 476 68 476 68 508 88.5 c 128,-1,30
 540 109 540 109 561 136 c 128,-1,31
 582 163 582 163 589 194 c 2,32,-1
 659 522 l 2,33,34
 665 553 665 553 655 580 c 128,-1,35
 645 607 645 607 621.5 627.5 c 128,-1,36
 598 648 598 648 564.5 659.5 c 128,-1,37
 531 671 531 671 488 671 c 256,38,39
 446 671 446 671 407 659.5 c 128,-1,40
 368 648 368 648 336 627.5 c 128,-1,41
 304 607 304 607 282.5 580 c 128,-1,42
 261 553 261 553 255 522 c 2,43,-1
 185 194 l 2,22,23
EndSplineSet
EndChar
StartChar: one
Encoding: 49 49 18
Width: 693
VWidth: 1507
Flags: W
HStem: -9 21G<348.262 374> 662 54<377.562 487>
VStem: 344 208<-9 687 -9 -9>
Fore
529 716 m 1,0,1
 541 716 541 716 548 707.5 c 128,-1,2
 555 699 555 699 552 687 c 2,3,-1
 418 51 l 2,4,5
 404 -9 404 -9 344 -9 c 1,6,-1
 487 662 l 1,7,-1
 421 662 l 2,8,9
 365 662 365 662 377 716 c 1,10,-1
 529 716 l 1,0,1
EndSplineSet
EndChar
StartChar: two
Encoding: 50 50 19
Width: 693
VWidth: 1507
Flags: W
HStem: 0 54<160 601.075> 671 54<451.656 575.45>
Fore
561 54 m 2,0,1
 588 54 588 54 601.5 40.5 c 128,-1,2
 615 27 615 27 609 0 c 1,3,-1
 115 0 l 2,4,5
 104 0 104 0 96.5 6 c 128,-1,6
 89 12 89 12 92 24 c 0,7,8
 110 113 110 113 187.5 189 c 128,-1,9
 265 265 265 265 393 320 c 0,10,11
 424 333 424 333 465 349 c 128,-1,12
 506 365 506 365 546 387.5 c 128,-1,13
 586 410 586 410 617 439.5 c 128,-1,14
 648 469 648 469 657 508 c 0,15,16
 663 541 663 541 654 570.5 c 128,-1,17
 645 600 645 600 622.5 622.5 c 128,-1,18
 600 645 600 645 566 658 c 128,-1,19
 532 671 532 671 490 671 c 256,20,21
 448 671 448 671 408 658 c 128,-1,22
 368 645 368 645 335.5 622.5 c 128,-1,23
 303 600 303 600 280.5 570.5 c 128,-1,24
 258 541 258 541 252 508 c 0,25,26
 250 500 250 500 249.5 494 c 128,-1,27
 249 488 249 488 249 478 c 1,28,29
 223 478 223 478 208 496 c 128,-1,30
 193 514 193 514 202 538 c 0,31,32
 219 582 219 582 252 616.5 c 128,-1,33
 285 651 285 651 325.5 675 c 128,-1,34
 366 699 366 699 412 712 c 128,-1,35
 458 725 458 725 502 725 c 0,36,37
 547 725 547 725 590 710.5 c 128,-1,38
 633 696 633 696 664.5 668.5 c 128,-1,39
 696 641 696 641 711.5 600 c 128,-1,40
 727 559 727 559 716 508 c 0,41,42
 707 463 707 463 676 427.5 c 128,-1,43
 645 392 645 392 602 364 c 128,-1,44
 559 336 559 336 508 313.5 c 128,-1,45
 457 291 457 291 407 270 c 0,46,47
 307 228 307 228 245.5 173 c 128,-1,48
 184 118 184 118 160 54 c 1,49,-1
 561 54 l 2,0,1
EndSplineSet
EndChar
StartChar: three
Encoding: 51 51 20
Width: 693
VWidth: 1507
Flags: W
HStem: -9 54<285.668 423.592> 362 56<419.111 498.936> 671 54<403.766 548.879>
Fore
249 574 m 0,0,1
 259 601 259 601 282.5 628.5 c 128,-1,2
 306 656 306 656 339 677 c 128,-1,3
 372 698 372 698 413.5 711.5 c 128,-1,4
 455 725 455 725 500 725 c 256,5,6
 546 725 546 725 583.5 710.5 c 128,-1,7
 621 696 621 696 646 671.5 c 128,-1,8
 671 647 671 647 680.5 614.5 c 128,-1,9
 690 582 690 582 683 544 c 0,10,11
 672 496 672 496 636 457 c 128,-1,12
 600 418 600 418 550 392 c 1,13,14
 607 366 607 366 636 315.5 c 128,-1,15
 665 265 665 265 651 203 c 0,16,17
 642 160 642 160 613.5 120.5 c 128,-1,18
 585 81 585 81 542.5 52.5 c 128,-1,19
 500 24 500 24 449 7.5 c 128,-1,20
 398 -9 398 -9 344 -9 c 256,21,22
 289 -9 289 -9 247 7 c 128,-1,23
 205 23 205 23 176.5 49 c 128,-1,24
 148 75 148 75 134.5 107.5 c 128,-1,25
 121 140 121 140 125 173 c 0,26,27
 128 202 128 202 145.5 218.5 c 128,-1,28
 163 235 163 235 196 234 c 1,29,30
 193 226 193 226 191.5 218.5 c 128,-1,31
 190 211 190 211 187 203 c 1,32,33
 179 170 179 170 189.5 141.5 c 128,-1,34
 200 113 200 113 223 91 c 128,-1,35
 246 69 246 69 280 57 c 128,-1,36
 314 45 314 45 356 45 c 256,37,38
 398 45 398 45 437 57 c 128,-1,39
 476 69 476 69 508 91 c 128,-1,40
 540 113 540 113 561.5 141.5 c 128,-1,41
 583 170 583 170 591 203 c 256,42,43
 598 237 598 237 588.5 265.5 c 128,-1,44
 579 294 579 294 556.5 315 c 128,-1,45
 534 336 534 336 500 349 c 128,-1,46
 466 362 466 362 424 362 c 0,47,48
 411 362 411 362 403.5 370 c 128,-1,49
 396 378 396 378 399 390 c 256,50,51
 402 402 402 402 412 410 c 128,-1,52
 422 418 422 418 434 418 c 0,53,54
 502 418 502 418 556 454.5 c 128,-1,55
 610 491 610 491 623 544 c 0,56,57
 629 570 629 570 620.5 593 c 128,-1,58
 612 616 612 616 594 633.5 c 128,-1,59
 576 651 576 651 549 661 c 128,-1,60
 522 671 522 671 488 671 c 0,61,62
 421 671 421 671 366.5 634 c 128,-1,63
 312 597 312 597 300 544 c 0,64,65
 298 540 298 540 296.5 531 c 128,-1,66
 295 522 295 522 297 514 c 1,67,68
 271 511 271 511 254 527.5 c 128,-1,69
 237 544 237 544 249 574 c 0,0,1
EndSplineSet
EndChar
StartChar: four
Encoding: 52 52 21
Width: 693
VWidth: 1507
Flags: W
HStem: -9 21G<468.362 494.5> 179 55<187 505 576 683.234>
Fore
698 234 m 1,0,1
 686 179 686 179 633 179 c 2,2,-1
 534 179 l 1,3,-1
 538 178 l 1,4,-1
 564 175 l 1,5,-1
 538 51 l 2,6,7
 525 -9 525 -9 464 -9 c 1,8,-1
 505 179 l 1,9,-1
 119 179 l 2,10,11
 101 179 101 179 95 193.5 c 128,-1,12
 89 208 89 208 106 225 c 2,13,-1
 627 716 l 2,14,15
 644 731 644 731 661 724 c 128,-1,16
 678 717 678 717 675 696 c 2,17,-1
 576 234 l 1,18,-1
 698 234 l 1,0,1
515 234 m 1,19,-1
 597 612 l 1,20,-1
 627 644 l 1,21,-1
 627 648 l 1,22,-1
 187 234 l 1,23,-1
 515 234 l 1,19,-1
EndSplineSet
EndChar
StartChar: five
Encoding: 53 53 22
Width: 693
VWidth: 1507
Flags: W
HStem: -9 54<276.024 442.562> 461 54<382.524 523.943> 662 54<421 696.375>
Fore
329 493 m 1,0,1
 318 487 318 487 310.5 482.5 c 128,-1,2
 303 478 303 478 295 472 c 1,3,-1
 300 470 l 1,4,5
 336 491 336 491 375.5 503 c 128,-1,6
 415 515 415 515 455 515 c 0,7,8
 509 515 509 515 553 495 c 128,-1,9
 597 475 597 475 625 438.5 c 128,-1,10
 653 402 653 402 663.5 354.5 c 128,-1,11
 674 307 674 307 662 253 c 256,12,13
 650 199 650 199 619.5 151.5 c 128,-1,14
 589 104 589 104 545.5 68 c 128,-1,15
 502 32 502 32 450 11.5 c 128,-1,16
 398 -9 398 -9 344 -9 c 256,17,18
 289 -9 289 -9 247.5 10 c 128,-1,19
 206 29 206 29 179 61 c 128,-1,20
 152 93 152 93 141 135.5 c 128,-1,21
 130 178 130 178 136 223 c 0,22,23
 139 252 139 252 156 268.5 c 128,-1,24
 173 285 173 285 206 283 c 1,25,26
 203 276 203 276 201.5 268.5 c 128,-1,27
 200 261 200 261 197 253 c 1,28,29
 188 210 188 210 195.5 172 c 128,-1,30
 203 134 203 134 225 106 c 128,-1,31
 247 78 247 78 280.5 61.5 c 128,-1,32
 314 45 314 45 356 45 c 256,33,34
 398 45 398 45 438 61.5 c 128,-1,35
 478 78 478 78 511 106 c 128,-1,36
 544 134 544 134 568 172 c 128,-1,37
 592 210 592 210 601 253 c 0,38,39
 610 295 610 295 602.5 333.5 c 128,-1,40
 595 372 595 372 574 400 c 128,-1,41
 553 428 553 428 520 444.5 c 128,-1,42
 487 461 487 461 445 461 c 0,43,44
 396 461 396 461 351 440 c 128,-1,45
 306 419 306 419 271 384 c 0,46,47
 261 375 261 375 250.5 374.5 c 128,-1,48
 240 374 240 374 232.5 378.5 c 128,-1,49
 225 383 225 383 222 392.5 c 128,-1,50
 219 402 219 402 226 415 c 2,51,-1
 378 693 l 2,52,53
 389 716 389 716 411 716 c 2,54,-1
 711 716 l 1,55,56
 699 662 699 662 647 662 c 2,57,-1
 421 662 l 1,58,59
 396 621 396 621 378 586 c 0,60,61
 362 556 362 556 347.5 529 c 128,-1,62
 333 502 333 502 329 493 c 1,0,1
EndSplineSet
EndChar
StartChar: six
Encoding: 54 54 23
Width: 693
VWidth: 1507
Flags: W
HStem: -9 54<276.343 442.562> 461 54<398.015 523.943>
Fore
381 505 m 1,0,1
 399 509 399 509 418 512 c 128,-1,2
 437 515 437 515 455 515 c 0,3,4
 509 515 509 515 553 495 c 128,-1,5
 597 475 597 475 625 438.5 c 128,-1,6
 653 402 653 402 663.5 354.5 c 128,-1,7
 674 307 674 307 662 253 c 256,8,9
 650 199 650 199 619.5 151.5 c 128,-1,10
 589 104 589 104 545.5 68 c 128,-1,11
 502 32 502 32 450 11.5 c 128,-1,12
 398 -9 398 -9 344 -9 c 256,13,14
 289 -9 289 -9 246 11.5 c 128,-1,15
 203 32 203 32 174.5 68 c 128,-1,16
 146 104 146 104 135.5 151.5 c 128,-1,17
 125 199 125 199 137 253 c 0,18,19
 149 309 149 309 181.5 356.5 c 128,-1,20
 214 404 214 404 258 442 c 2,21,-1
 559 705 l 2,22,23
 604 746 604 746 636 708 c 1,24,-1
 421 519 l 1,25,26
 399 514 399 514 377 508 c 1,27,-1
 381 505 l 1,0,1
601 253 m 0,28,29
 610 295 610 295 602.5 333.5 c 128,-1,30
 595 372 595 372 574 400 c 128,-1,31
 553 428 553 428 520 444.5 c 128,-1,32
 487 461 487 461 445 461 c 256,33,34
 402 461 402 461 362.5 444.5 c 128,-1,35
 323 428 323 428 289 400 c 128,-1,36
 255 372 255 372 230.5 333.5 c 128,-1,37
 206 295 206 295 197 253 c 0,38,39
 188 210 188 210 195.5 172 c 128,-1,40
 203 134 203 134 225 106 c 128,-1,41
 247 78 247 78 280.5 61.5 c 128,-1,42
 314 45 314 45 356 45 c 256,43,44
 398 45 398 45 438 61.5 c 128,-1,45
 478 78 478 78 511 106 c 128,-1,46
 544 134 544 134 568 172 c 128,-1,47
 592 210 592 210 601 253 c 0,28,29
EndSplineSet
EndChar
StartChar: seven
Encoding: 55 55 24
Width: 693
VWidth: 1507
Flags: W
HStem: 662 54<246.422 686>
Fore
686 662 m 1,0,-1
 289 662 l 2,1,2
 234 662 234 662 246 716 c 1,3,-1
 739 716 l 2,4,5
 754 716 754 716 760.5 702.5 c 128,-1,6
 767 689 767 689 757 672 c 2,7,-1
 283 21 l 2,8,9
 250 -27 250 -27 206 0 c 1,10,-1
 686 662 l 1,0,-1
EndSplineSet
EndChar
StartChar: eight
Encoding: 56 56 25
Width: 693
VWidth: 1507
Flags: W
HStem: -9 54<285.428 423.592> 362 56<396.928 498.936> 671 54<402.797 548.879>
Fore
240 544 m 0,0,1
 247 582 247 582 272 614.5 c 128,-1,2
 297 647 297 647 332.5 671.5 c 128,-1,3
 368 696 368 696 411.5 710.5 c 128,-1,4
 455 725 455 725 500 725 c 256,5,6
 546 725 546 725 583.5 710.5 c 128,-1,7
 621 696 621 696 646 671.5 c 128,-1,8
 671 647 671 647 680.5 614.5 c 128,-1,9
 690 582 690 582 683 544 c 0,10,11
 672 496 672 496 636 457 c 128,-1,12
 600 418 600 418 550 392 c 1,13,14
 607 366 607 366 636 315.5 c 128,-1,15
 665 265 665 265 651 203 c 0,16,17
 642 160 642 160 613.5 120.5 c 128,-1,18
 585 81 585 81 542.5 52.5 c 128,-1,19
 500 24 500 24 449 7.5 c 128,-1,20
 398 -9 398 -9 344 -9 c 256,21,22
 289 -9 289 -9 244.5 7.5 c 128,-1,23
 200 24 200 24 171 52.5 c 128,-1,24
 142 81 142 81 130 120.5 c 128,-1,25
 118 160 118 160 127 203 c 0,26,27
 140 265 140 265 190 315.5 c 128,-1,28
 240 366 240 366 309 392 c 1,29,30
 267 418 267 418 248 457 c 128,-1,31
 229 496 229 496 240 544 c 0,0,1
187 203 m 256,32,33
 179 170 179 170 189.5 141.5 c 128,-1,34
 200 113 200 113 223 91 c 128,-1,35
 246 69 246 69 280 57 c 128,-1,36
 314 45 314 45 356 45 c 256,37,38
 398 45 398 45 437 57 c 128,-1,39
 476 69 476 69 508 91 c 128,-1,40
 540 113 540 113 561.5 141.5 c 128,-1,41
 583 170 583 170 591 203 c 256,42,43
 598 237 598 237 588.5 265.5 c 128,-1,44
 579 294 579 294 556.5 315 c 128,-1,45
 534 336 534 336 500 349 c 128,-1,46
 466 362 466 362 424 362 c 256,47,48
 381 362 381 362 342 349 c 128,-1,49
 303 336 303 336 270.5 315 c 128,-1,50
 238 294 238 294 216 265.5 c 128,-1,51
 194 237 194 237 187 203 c 256,32,33
300 544 m 0,52,53
 294 519 294 519 302.5 495.5 c 128,-1,54
 311 472 311 472 329 454.5 c 128,-1,55
 347 437 347 437 374 427.5 c 128,-1,56
 401 418 401 418 434 418 c 0,57,58
 502 418 502 418 556 454.5 c 128,-1,59
 610 491 610 491 623 544 c 0,60,61
 629 570 629 570 620.5 593 c 128,-1,62
 612 616 612 616 594 633.5 c 128,-1,63
 576 651 576 651 549 661 c 128,-1,64
 522 671 522 671 488 671 c 0,65,66
 421 671 421 671 366.5 634 c 128,-1,67
 312 597 312 597 300 544 c 0,52,53
EndSplineSet
EndChar
StartChar: nine
Encoding: 57 57 26
Width: 693
VWidth: 1507
Flags: W
HStem: 200 55<320.057 446.151> 671 54<401.438 567.915>
Fore
463 211 m 1,0,1
 445 206 445 206 426 203 c 128,-1,2
 407 200 407 200 389 200 c 0,3,4
 335 200 335 200 291 220.5 c 128,-1,5
 247 241 247 241 219 277.5 c 128,-1,6
 191 314 191 314 180.5 361 c 128,-1,7
 170 408 170 408 182 463 c 0,8,9
 193 517 193 517 224 564.5 c 128,-1,10
 255 612 255 612 298.5 648 c 128,-1,11
 342 684 342 684 394 704.5 c 128,-1,12
 446 725 446 725 500 725 c 256,13,14
 555 725 555 725 598 704.5 c 128,-1,15
 641 684 641 684 669.5 648 c 128,-1,16
 698 612 698 612 707.5 564.5 c 128,-1,17
 717 517 717 517 707 463 c 0,18,19
 695 407 695 407 662.5 359.5 c 128,-1,20
 630 312 630 312 586 274 c 2,21,-1
 285 11 l 2,22,23
 240 -30 240 -30 208 8 c 1,24,-1
 424 197 l 1,25,26
 445 202 445 202 467 208 c 1,27,-1
 463 211 l 1,0,1
243 463 m 0,28,29
 234 419 234 419 241.5 381.5 c 128,-1,30
 249 344 249 344 270 316 c 128,-1,31
 291 288 291 288 324 271.5 c 128,-1,32
 357 255 357 255 399 255 c 256,33,34
 442 255 442 255 482 271.5 c 128,-1,35
 522 288 522 288 555.5 316 c 128,-1,36
 589 344 589 344 613.5 381.5 c 128,-1,37
 638 419 638 419 647 463 c 0,38,39
 656 505 656 505 647.5 543.5 c 128,-1,40
 639 582 639 582 618 610 c 128,-1,41
 597 638 597 638 564 654.5 c 128,-1,42
 531 671 531 671 488 671 c 256,43,44
 446 671 446 671 406 654.5 c 128,-1,45
 366 638 366 638 333 610 c 128,-1,46
 300 582 300 582 276 543.5 c 128,-1,47
 252 505 252 505 243 463 c 0,28,29
EndSplineSet
EndChar
StartChar: less
Encoding: 60 60 29
Width: 602
VWidth: 1507
Flags: W
Fore
127 318 m 2,0,-1
 678 589 l 1,1,2
 687 543 687 543 645 522 c 2,3,-1
 193 298 l 1,4,-1
 550 75 l 2,5,6
 583 54 583 54 555 8 c 1,7,-1
 119 279 l 2,8,9
 109 285 109 285 112 298 c 128,-1,10
 115 311 115 311 127 318 c 2,0,-1
EndSplineSet
EndChar
StartChar: equal
Encoding: 61 61 30
Width: 602
VWidth: 1507
Flags: W
HStem: 182 52<96.5327 593.849> 363 52<134.151 631.467>
Fore
122 363 m 1,0,1
 131 415 131 415 184 415 c 2,2,-1
 645 415 l 1,3,4
 633 363 633 363 583 363 c 2,5,-1
 122 363 l 1,0,1
83 182 m 1,6,7
 95 234 95 234 145 234 c 2,8,-1
 606 234 l 1,9,10
 597 182 597 182 544 182 c 2,11,-1
 83 182 l 1,6,7
EndSplineSet
EndChar
StartChar: question
Encoding: 63 63 32
Width: 503
VWidth: 1507
Flags: W
HStem: -9 113<224.595 286.374> 674 51<355.278 469.217>
VStem: 199 113<26.4069 91.1205>
Fore
317 202 m 2,0,1
 303 145 303 145 247 145 c 1,2,-1
 265 234 l 2,3,4
 277 286 277 286 312.5 319.5 c 128,-1,5
 348 353 348 353 389 381.5 c 128,-1,6
 430 410 430 410 464.5 441.5 c 128,-1,7
 499 473 499 473 511 526 c 0,8,9
 525 589 525 589 491 631.5 c 128,-1,10
 457 674 457 674 389 674 c 0,11,12
 357 674 357 674 327 663.5 c 128,-1,13
 297 653 297 653 271.5 633 c 128,-1,14
 246 613 246 613 228 586 c 128,-1,15
 210 559 210 559 203 526 c 2,16,17
 200 517 200 517 199.5 511.5 c 128,-1,18
 199 506 199 506 199 497 c 1,19,20
 175 497 175 497 160 514 c 128,-1,21
 145 531 145 531 154 555 c 0,22,23
 167 594 167 594 191.5 625.5 c 128,-1,24
 216 657 216 657 249 679 c 128,-1,25
 282 701 282 701 320.5 713 c 128,-1,26
 359 725 359 725 399 725 c 0,27,28
 442 725 442 725 477 711.5 c 128,-1,29
 512 698 512 698 535.5 672.5 c 128,-1,30
 559 647 559 647 568 610 c 128,-1,31
 577 573 577 573 568 526 c 0,32,33
 555 464 555 464 518 425.5 c 128,-1,34
 481 387 481 387 441 358.5 c 128,-1,35
 401 330 401 330 366.5 302 c 128,-1,36
 332 274 332 274 323 234 c 2,37,-1
 317 202 l 2,0,1
199 47 m 0,38,39
 205 71 205 71 224 87.5 c 128,-1,40
 243 104 243 104 267 104 c 256,41,42
 291 104 291 104 304.5 87.5 c 128,-1,43
 318 71 318 71 312 47 c 0,44,45
 307 23 307 23 287 7 c 128,-1,46
 267 -9 267 -9 243 -9 c 256,47,48
 219 -9 219 -9 206.5 7 c 128,-1,49
 194 23 194 23 199 47 c 0,38,39
EndSplineSet
EndChar
StartChar: at
Encoding: 64 64 33
Width: 847
VWidth: 1507
Flags: W
HStem: -9 45<338.643 527.121> 137 48<349.941 453.981 573.358 657.071> 526 50<486.986 593.717> 681 44<464.629 690.362>
Fore
401 185 m 0,0,1
 436 185 436 185 472 211 c 128,-1,2
 508 237 508 237 538 274.5 c 128,-1,3
 568 312 568 312 590 354 c 128,-1,4
 612 396 612 396 620 431 c 0,5,6
 624 448 624 448 622 466 c 128,-1,7
 620 484 620 484 611.5 497.5 c 128,-1,8
 603 511 603 511 590 518.5 c 128,-1,9
 577 526 577 526 562 526 c 0,10,11
 523 526 523 526 485.5 503.5 c 128,-1,12
 448 481 448 481 417.5 444.5 c 128,-1,13
 387 408 387 408 364.5 367 c 128,-1,14
 342 326 342 326 335 288 c 0,15,16
 326 243 326 243 344 214 c 128,-1,17
 362 185 362 185 401 185 c 0,0,1
705 556 m 1,18,-1
 757 556 l 1,19,-1
 601 265 l 2,20,21
 592 249 592 249 584.5 235.5 c 128,-1,22
 577 222 577 222 574 210 c 0,23,24
 568 182 568 182 597 182 c 256,25,26
 626 182 626 182 658 203.5 c 128,-1,27
 690 225 690 225 721 259.5 c 128,-1,28
 752 294 752 294 776 337.5 c 128,-1,29
 800 381 800 381 809 424 c 0,30,31
 823 484 823 484 809.5 530 c 128,-1,32
 796 576 796 576 765 610 c 128,-1,33
 734 644 734 644 687.5 662.5 c 128,-1,34
 641 681 641 681 585 681 c 0,35,36
 517 681 517 681 453.5 655 c 128,-1,37
 390 629 390 629 339.5 584.5 c 128,-1,38
 289 540 289 540 252.5 481 c 128,-1,39
 216 422 216 422 200 354 c 0,40,41
 187 288 187 288 200 230.5 c 128,-1,42
 213 173 213 173 245 130 c 128,-1,43
 277 87 277 87 330 61.5 c 128,-1,44
 383 36 383 36 449 36 c 0,45,46
 526 36 526 36 604.5 72.5 c 128,-1,47
 683 109 683 109 740 173 c 0,48,49
 772 208 772 208 791 173 c 1,50,51
 758 131 758 131 718 98 c 128,-1,52
 678 65 678 65 632 41 c 128,-1,53
 586 17 586 17 536.5 4 c 128,-1,54
 487 -9 487 -9 439 -9 c 0,55,56
 359 -9 359 -9 300 20.5 c 128,-1,57
 241 50 241 50 202.5 101 c 128,-1,58
 164 152 164 152 150 218.5 c 128,-1,59
 136 285 136 285 152 362 c 0,60,61
 167 437 167 437 211 502.5 c 128,-1,62
 255 568 255 568 315 618 c 128,-1,63
 375 668 375 668 446 696.5 c 128,-1,64
 517 725 517 725 592 725 c 0,65,66
 663 725 663 725 717.5 702.5 c 128,-1,67
 772 680 772 680 809.5 639 c 128,-1,68
 847 598 847 598 860.5 543 c 128,-1,69
 874 488 874 488 861 422 c 0,70,71
 849 363 849 363 816.5 311 c 128,-1,72
 784 259 784 259 743 219 c 128,-1,73
 702 179 702 179 658.5 158 c 128,-1,74
 615 137 615 137 577 137 c 0,75,76
 550 137 550 137 534.5 155 c 128,-1,77
 519 173 519 173 523 205 c 1,78,-1
 522 205 l 1,79,80
 493 179 493 179 454 158 c 128,-1,81
 415 137 415 137 377 137 c 0,82,83
 312 137 312 137 285.5 181 c 128,-1,84
 259 225 259 225 271 282 c 0,85,86
 283 336 283 336 312.5 389 c 128,-1,87
 342 442 342 442 380.5 483.5 c 128,-1,88
 419 525 419 525 471 550.5 c 128,-1,89
 523 576 523 576 577 576 c 0,90,91
 610 576 610 576 635 558 c 128,-1,92
 660 540 660 540 666 493 c 1,93,-1
 705 556 l 1,18,-1
EndSplineSet
EndChar
StartChar: A
Encoding: 65 65 34
Width: 633
VWidth: 1507
Flags: W
HStem: -9 21G<55.5 78.0988 557.543 573.5> 234 54<246 509> 705 20G<459 480.5>
Fore
612 69 m 2,0,1
 616 45 616 45 601 22.5 c 128,-1,2
 586 0 586 0 561 -9 c 1,3,-1
 519 234 l 1,4,-1
 213 234 l 1,5,-1
 66 -9 l 1,6,7
 45 0 45 0 40 22.5 c 128,-1,8
 35 45 35 45 48 69 c 2,9,-1
 437 707 l 2,10,11
 448 725 448 725 470 725 c 0,12,13
 491 725 491 725 494 707 c 2,14,-1
 612 69 l 2,0,1
246 288 m 1,15,-1
 509 288 l 1,16,-1
 445 657 l 1,17,-1
 443 653 l 1,18,-1
 445 623 l 1,19,-1
 246 288 l 1,15,-1
EndSplineSet
EndChar
StartChar: B
Encoding: 66 66 35
Width: 700
VWidth: 1507
Flags: W
HStem: 0 54<161 552.843> 332 54<232 522.281> 662 54<291 580.151>
Fore
592 377 m 1,0,1
 657 362 657 362 683.5 310.5 c 128,-1,2
 710 259 710 259 696 194 c 0,3,4
 687 155 687 155 667.5 119.5 c 128,-1,5
 648 84 648 84 619.5 58 c 128,-1,6
 591 32 591 32 554 16 c 128,-1,7
 517 0 517 0 475 0 c 2,8,-1
 121 0 l 2,9,10
 109 0 109 0 101 9 c 128,-1,11
 93 18 93 18 96 30 c 2,12,-1
 235 686 l 2,13,14
 243 716 243 716 271 716 c 2,15,-1
 565 716 l 2,16,17
 603 716 603 716 632.5 700 c 128,-1,18
 662 684 662 684 680.5 658 c 128,-1,19
 699 632 699 632 706 597 c 128,-1,20
 713 562 713 562 705 525 c 0,21,22
 701 503 701 503 691 482 c 128,-1,23
 681 461 681 461 666 441 c 128,-1,24
 651 421 651 421 632 404 c 128,-1,25
 613 387 613 387 592 377 c 1,0,1
232 386 m 1,26,-1
 496 386 l 2,27,28
 522 386 522 386 546 398.5 c 128,-1,29
 570 411 570 411 590 431 c 128,-1,30
 610 451 610 451 625.5 475.5 c 128,-1,31
 641 500 641 500 645 525 c 0,32,33
 651 549 651 549 647.5 573.5 c 128,-1,34
 644 598 644 598 632 618 c 128,-1,35
 620 638 620 638 600 650 c 128,-1,36
 580 662 580 662 555 662 c 2,37,-1
 291 662 l 1,38,-1
 232 386 l 1,26,-1
485 54 m 2,39,40
 537 54 537 54 580 91 c 128,-1,41
 623 128 623 128 636 194 c 0,42,43
 650 258 650 258 622.5 295 c 128,-1,44
 595 332 595 332 544 332 c 2,45,-1
 220 332 l 1,46,-1
 161 54 l 1,47,-1
 485 54 l 2,39,40
EndSplineSet
EndChar
StartChar: C
Encoding: 67 67 36
Width: 699
VWidth: 1507
Flags: W
HStem: -9 54<275.204 429.07> 671 54<409.258 570.898>
Fore
182 226 m 2,0,1
 175 190 175 190 185.5 157 c 128,-1,2
 196 124 196 124 221 99 c 128,-1,3
 246 74 246 74 283 59.5 c 128,-1,4
 320 45 320 45 366 45 c 256,5,6
 413 45 413 45 456.5 59.5 c 128,-1,7
 500 74 500 74 535.5 99 c 128,-1,8
 571 124 571 124 595.5 157 c 128,-1,9
 620 190 620 190 627 226 c 2,10,11
 630 234 630 234 631 241.5 c 128,-1,12
 632 249 632 249 633 256 c 1,13,14
 657 256 657 256 673.5 239.5 c 128,-1,15
 690 223 690 223 674 184 c 0,16,17
 656 139 656 139 621 102.5 c 128,-1,18
 586 66 586 66 542.5 41.5 c 128,-1,19
 499 17 499 17 450 4 c 128,-1,20
 401 -9 401 -9 354 -9 c 0,21,22
 304 -9 304 -9 257.5 7 c 128,-1,23
 211 23 211 23 177 53 c 128,-1,24
 143 83 143 83 126.5 126.5 c 128,-1,25
 110 170 110 170 122 226 c 2,26,-1
 179 491 l 2,27,28
 190 546 190 546 224.5 589 c 128,-1,29
 259 632 259 632 306 662 c 128,-1,30
 353 692 353 692 406.5 708.5 c 128,-1,31
 460 725 460 725 511 725 c 0,32,33
 556 725 556 725 598.5 713.5 c 128,-1,34
 641 702 641 702 674 678 c 128,-1,35
 707 654 707 654 727.5 618.5 c 128,-1,36
 748 583 748 583 749 535 c 0,37,38
 749 494 749 494 725 477.5 c 128,-1,39
 701 461 701 461 677 461 c 1,40,41
 680 469 680 469 680.5 472.5 c 0,42,-1
 684 491 l 0,43,44
 692 528 692 528 681.5 561 c 128,-1,45
 671 594 671 594 646 618 c 128,-1,46
 621 642 621 642 583.5 656.5 c 128,-1,47
 546 671 546 671 499 671 c 256,48,49
 452 671 452 671 409 656.5 c 128,-1,50
 366 642 366 642 330.5 618 c 128,-1,51
 295 594 295 594 271 561 c 128,-1,52
 247 528 247 528 240 491 c 2,53,-1
 182 226 l 2,0,1
EndSplineSet
EndChar
StartChar: D
Encoding: 68 68 37
Width: 729
VWidth: 1507
Flags: W
HStem: 0 54<161 470.14> 662 54<291 594.326>
Fore
523 716 m 2,0,1
 573 716 573 716 619.5 700 c 128,-1,2
 666 684 666 684 701 655 c 128,-1,3
 736 626 736 626 752.5 582 c 128,-1,4
 769 538 769 538 757 482 c 2,5,-1
 704 235 l 2,6,7
 692 181 692 181 658 138 c 128,-1,8
 624 95 624 95 577.5 64 c 128,-1,9
 531 33 531 33 477.5 16.5 c 128,-1,10
 424 0 424 0 372 0 c 2,11,-1
 121 0 l 2,12,13
 107 0 107 0 100 9 c 128,-1,14
 93 18 93 18 96 30 c 2,15,-1
 235 686 l 2,16,17
 243 716 243 716 271 716 c 2,18,-1
 523 716 l 2,0,1
291 662 m 1,19,-1
 161 54 l 1,20,-1
 383 54 l 2,21,22
 428 54 428 54 471.5 68.5 c 128,-1,23
 515 83 515 83 551.5 108 c 128,-1,24
 588 133 588 133 613 166 c 128,-1,25
 638 199 638 199 645 235 c 2,26,-1
 698 482 l 2,27,28
 705 519 705 519 694 552 c 128,-1,29
 683 585 683 585 658 609 c 128,-1,30
 633 633 633 633 595.5 647.5 c 128,-1,31
 558 662 558 662 512 662 c 2,32,-1
 291 662 l 1,19,-1
EndSplineSet
EndChar
StartChar: E
Encoding: 69 69 38
Width: 699
VWidth: 1507
Flags: W
HStem: -9 54<275.204 429.07> 332 54<217 500.094> 671 54<409.258 570.898>
Fore
217 386 m 1,0,-1
 515 386 l 1,1,2
 503 332 503 332 449 332 c 2,3,-1
 205 332 l 1,4,-1
 182 226 l 2,5,6
 175 190 175 190 185.5 157 c 128,-1,7
 196 124 196 124 221 99 c 128,-1,8
 246 74 246 74 283 59.5 c 128,-1,9
 320 45 320 45 366 45 c 256,10,11
 413 45 413 45 456.5 59.5 c 128,-1,12
 500 74 500 74 535.5 99 c 128,-1,13
 571 124 571 124 595.5 157 c 128,-1,14
 620 190 620 190 627 226 c 2,15,16
 630 234 630 234 631 241.5 c 128,-1,17
 632 249 632 249 633 256 c 1,18,19
 657 256 657 256 673.5 239.5 c 128,-1,20
 690 223 690 223 674 184 c 0,21,22
 656 139 656 139 621 102.5 c 128,-1,23
 586 66 586 66 542.5 41.5 c 128,-1,24
 499 17 499 17 450 4 c 128,-1,25
 401 -9 401 -9 354 -9 c 0,26,27
 304 -9 304 -9 257.5 7 c 128,-1,28
 211 23 211 23 177 53 c 128,-1,29
 143 83 143 83 126.5 126.5 c 128,-1,30
 110 170 110 170 122 226 c 2,31,-1
 179 491 l 2,32,33
 190 546 190 546 224.5 589 c 128,-1,34
 259 632 259 632 306 662 c 128,-1,35
 353 692 353 692 406.5 708.5 c 128,-1,36
 460 725 460 725 511 725 c 0,37,38
 556 725 556 725 598.5 713.5 c 128,-1,39
 641 702 641 702 674 678 c 128,-1,40
 707 654 707 654 727.5 618.5 c 128,-1,41
 748 583 748 583 749 535 c 0,42,43
 749 494 749 494 725 477.5 c 128,-1,44
 701 461 701 461 677 461 c 1,45,46
 680 469 680 469 680.5 472.5 c 0,47,-1
 684 491 l 0,48,49
 692 528 692 528 681.5 561 c 128,-1,50
 671 594 671 594 646 618 c 128,-1,51
 621 642 621 642 583.5 656.5 c 128,-1,52
 546 671 546 671 499 671 c 256,53,54
 452 671 452 671 409 656.5 c 128,-1,55
 366 642 366 642 330.5 618 c 128,-1,56
 295 594 295 594 271 561 c 128,-1,57
 247 528 247 528 240 491 c 2,58,-1
 217 386 l 1,0,-1
EndSplineSet
EndChar
StartChar: F
Encoding: 70 70 39
Width: 699
VWidth: 1507
Flags: W
HStem: -9 21G<76.28 102.5> 332 54<217 500.094> 671 54<409.258 570.749>
Fore
179 491 m 2,0,1
 190 546 190 546 224.5 589 c 128,-1,2
 259 632 259 632 306 662 c 128,-1,3
 353 692 353 692 406.5 708.5 c 128,-1,4
 460 725 460 725 511 725 c 0,5,6
 556 725 556 725 597.5 713.5 c 128,-1,7
 639 702 639 702 671.5 678 c 128,-1,8
 704 654 704 654 725 618.5 c 128,-1,9
 746 583 746 583 749 535 c 0,10,11
 748 494 748 494 724.5 477.5 c 128,-1,12
 701 461 701 461 677 461 c 1,13,14
 680 469 680 469 680.5 472.5 c 0,15,-1
 684 491 l 0,16,17
 692 528 692 528 681.5 561 c 128,-1,18
 671 594 671 594 646 618 c 128,-1,19
 621 642 621 642 583.5 656.5 c 128,-1,20
 546 671 546 671 499 671 c 256,21,22
 452 671 452 671 409 656.5 c 128,-1,23
 366 642 366 642 330.5 618 c 128,-1,24
 295 594 295 594 271 561 c 128,-1,25
 247 528 247 528 240 491 c 2,26,-1
 217 386 l 1,27,-1
 515 386 l 1,28,29
 503 332 503 332 449 332 c 2,30,-1
 205 332 l 1,31,-1
 146 51 l 2,32,33
 133 -9 133 -9 72 -9 c 1,34,-1
 179 491 l 2,0,1
EndSplineSet
EndChar
StartChar: G
Encoding: 71 71 40
Width: 714
VWidth: 1507
Flags: W
HStem: -9 54<275.204 455.484> 332 54<442.438 648> 671 54<409.258 570.898>
Fore
686 226 m 0,0,1
 674 170 674 170 639 126.5 c 128,-1,2
 604 83 604 83 557.5 53 c 128,-1,3
 511 23 511 23 457.5 7 c 128,-1,4
 404 -9 404 -9 354 -9 c 256,5,6
 304 -9 304 -9 257.5 7 c 128,-1,7
 211 23 211 23 177 53 c 128,-1,8
 143 83 143 83 126.5 126.5 c 128,-1,9
 110 170 110 170 122 226 c 2,10,-1
 179 491 l 2,11,12
 190 546 190 546 224.5 589 c 128,-1,13
 259 632 259 632 306 662 c 128,-1,14
 353 692 353 692 406.5 708.5 c 128,-1,15
 460 725 460 725 511 725 c 0,16,17
 556 725 556 725 598.5 713.5 c 128,-1,18
 641 702 641 702 674 678 c 128,-1,19
 707 654 707 654 727.5 618.5 c 128,-1,20
 748 583 748 583 749 535 c 0,21,22
 749 494 749 494 725 477.5 c 128,-1,23
 701 461 701 461 677 461 c 1,24,25
 680 469 680 469 680.5 472.5 c 0,26,-1
 684 491 l 0,27,28
 692 528 692 528 681.5 561 c 128,-1,29
 671 594 671 594 646 618 c 128,-1,30
 621 642 621 642 583.5 656.5 c 128,-1,31
 546 671 546 671 499 671 c 256,32,33
 452 671 452 671 409 656.5 c 128,-1,34
 366 642 366 642 330.5 618 c 128,-1,35
 295 594 295 594 271 561 c 128,-1,36
 247 528 247 528 240 491 c 2,37,-1
 182 226 l 2,38,39
 175 190 175 190 185.5 157 c 128,-1,40
 196 124 196 124 221 99 c 128,-1,41
 246 74 246 74 283 59.5 c 128,-1,42
 320 45 320 45 366 45 c 256,43,44
 413 45 413 45 456.5 59.5 c 128,-1,45
 500 74 500 74 535 99 c 128,-1,46
 570 124 570 124 594 157 c 128,-1,47
 618 190 618 190 626 226 c 2,48,-1
 648 332 l 1,49,-1
 428 332 l 1,50,51
 439 386 439 386 494 386 c 2,52,-1
 690 386 l 2,53,54
 702 386 702 386 709.5 377 c 128,-1,55
 717 368 717 368 714 356 c 0,56,57
 711 348 711 348 706.5 327.5 c 128,-1,58
 702 307 702 307 698 285 c 0,59,60
 692 258 692 258 686 226 c 0,0,1
EndSplineSet
EndChar
StartChar: H
Encoding: 72 72 41
Width: 744
VWidth: 1507
Flags: W
HStem: -9 21G<91.273 117.5 595.223 621> 332 54<232 663> 705 20G<274 299.752 778 803.757>
Fore
665 51 m 2,0,1
 651 -9 651 -9 591 -9 c 1,2,-1
 663 332 l 1,3,-1
 220 332 l 1,4,-1
 161 51 l 2,5,6
 148 -9 148 -9 87 -9 c 1,7,-1
 231 665 l 2,8,9
 244 725 244 725 304 725 c 1,10,-1
 232 386 l 1,11,-1
 675 386 l 1,12,-1
 734 665 l 2,13,14
 748 725 748 725 808 725 c 1,15,-1
 665 51 l 2,0,1
EndSplineSet
EndChar
StartChar: I
Encoding: 73 73 42
Width: 241
VWidth: 1507
Flags: W
HStem: -9 734
Fore
161 51 m 2,0,1
 148 -9 148 -9 87 -9 c 1,2,-1
 231 665 l 2,3,4
 244 725 244 725 304 725 c 1,5,-1
 161 51 l 2,0,1
EndSplineSet
EndChar
StartChar: J
Encoding: 74 74 43
Width: 640
VWidth: 1507
Flags: W
HStem: -9 54<243.991 405.109> 662 54<460.422 645>
Fore
167 226 m 1,0,1
 160 190 160 190 168 157 c 128,-1,2
 176 124 176 124 197.5 99 c 128,-1,3
 219 74 219 74 250.5 59.5 c 128,-1,4
 282 45 282 45 323 45 c 0,5,6
 362 45 362 45 400.5 59.5 c 128,-1,7
 439 74 439 74 469.5 99 c 128,-1,8
 500 124 500 124 522 157 c 128,-1,9
 544 190 544 190 552 226 c 0,10,11
 574 335 574 335 594 425 c 0,12,13
 603 463 603 463 611.5 501.5 c 128,-1,14
 620 540 620 540 626.5 572 c 128,-1,15
 633 604 633 604 637.5 628.5 c 128,-1,16
 642 653 642 653 645 662 c 1,17,-1
 503 662 l 2,18,19
 448 662 448 662 460 716 c 1,20,-1
 687 716 l 2,21,22
 699 716 699 716 706 707.5 c 128,-1,23
 713 699 713 699 710 686 c 2,24,-1
 612 226 l 2,25,26
 601 178 601 178 572.5 135 c 128,-1,27
 544 92 544 92 503.5 60.5 c 128,-1,28
 463 29 463 29 412.5 10 c 128,-1,29
 362 -9 362 -9 311 -9 c 0,30,31
 264 -9 264 -9 225.5 5.5 c 128,-1,32
 187 20 187 20 160 46 c 128,-1,33
 133 72 133 72 117.5 107.5 c 128,-1,34
 102 143 102 143 102 184 c 0,35,36
 104 223 104 223 128 239.5 c 128,-1,37
 152 256 152 256 178 256 c 1,38,39
 175 249 175 249 172.5 241.5 c 128,-1,40
 170 234 170 234 167 226 c 1,0,1
EndSplineSet
EndChar
StartChar: K
Encoding: 75 75 44
Width: 684
VWidth: 1507
Flags: W
HStem: -9 21G<91.273 117.5 535.286 561> 368 54<378.494 496.797> 705 20G<274 299.77 679.83 719.5>
Fore
231 665 m 2,0,1
 244 725 244 725 304 725 c 1,2,-1
 223 342 l 1,3,-1
 705 725 l 1,4,5
 734 686 734 686 687 648 c 2,6,-1
 411 430 l 1,7,8
 392 424 392 424 379 418.5 c 128,-1,9
 366 413 366 413 356 407 c 1,10,-1
 360 405 l 1,11,12
 377 413 377 413 396 417.5 c 128,-1,13
 415 422 415 422 431 422 c 0,14,15
 482 422 482 422 524.5 403 c 128,-1,16
 567 384 567 384 594 352.5 c 128,-1,17
 621 321 621 321 632.5 278 c 128,-1,18
 644 235 644 235 633 187 c 2,19,-1
 604 51 l 2,20,21
 591 -9 591 -9 531 -9 c 1,22,-1
 573 187 l 2,23,24
 580 223 580 223 572 256 c 128,-1,25
 564 289 564 289 543.5 314 c 128,-1,26
 523 339 523 339 490.5 353.5 c 128,-1,27
 458 368 458 368 419 368 c 256,28,29
 380 368 380 368 342 353.5 c 128,-1,30
 304 339 304 339 272.5 314 c 128,-1,31
 241 289 241 289 219 256 c 128,-1,32
 197 223 197 223 190 187 c 2,33,-1
 161 51 l 2,34,35
 148 -9 148 -9 87 -9 c 1,36,-1
 231 665 l 2,0,1
EndSplineSet
EndChar
StartChar: L
Encoding: 76 76 45
Width: 624
VWidth: 1507
Flags: W
HStem: 0 54<161 592.5> 705 20G<274 299.738>
VStem: 96 498<9.85034 30 30 46.463 0 30 30 30>
Fore
550 54 m 2,0,1
 604 54 604 54 594 0 c 1,2,-1
 121 0 l 2,3,4
 107 0 107 0 100 9 c 128,-1,5
 93 18 93 18 96 30 c 2,6,-1
 231 665 l 2,7,8
 244 725 244 725 304 725 c 1,9,-1
 161 54 l 1,10,-1
 550 54 l 2,0,1
EndSplineSet
EndChar
StartChar: M
Encoding: 77 77 46
Width: 856
VWidth: 1507
Flags: W
HStem: -9 21G<91.273 117.5 416.5 435.5 706.298 732.5> 705 20G<274 308.462 846.059 889>
Fore
231 665 m 2,0,1
 244 725 244 725 304 725 c 1,2,-1
 445 93 l 1,3,-1
 430 66 l 1,4,-1
 430 62 l 1,5,-1
 859 725 l 1,6,7
 919 725 919 725 906 665 c 2,8,-1
 776 51 l 2,9,10
 763 -9 763 -9 702 -9 c 1,11,-1
 826 568 l 1,12,-1
 853 620 l 1,13,-1
 852 624 l 1,14,-1
 457 11 l 2,15,16
 446 -9 446 -9 425 -9 c 0,17,18
 408 -9 408 -9 402 11 c 2,19,-1
 267 624 l 1,20,-1
 265 620 l 1,21,-1
 271 568 l 1,22,-1
 161 51 l 2,23,24
 148 -9 148 -9 87 -9 c 1,25,-1
 231 665 l 2,0,1
EndSplineSet
EndChar
StartChar: N
Encoding: 78 78 47
Width: 744
VWidth: 1507
Flags: W
HStem: -9 21G<91.273 117.5 580.643 621> 705 20G<274 313.825 743.73 778>
Fore
231 665 m 2,0,1
 244 725 244 725 304 725 c 1,2,3
 318 696.5 l 2,4,5
 332 668 332 668 353.5 621 c 128,-1,6
 375 574 375 574 404 515.5 c 128,-1,7
 433 457 433 457 463 395 c 2,8,-1
 623 66 l 1,9,-1
 624 71 l 1,10,-1
 615 102 l 1,11,-1
 748 725 l 1,12,13
 808 725 808 725 794 665 c 2,14,-1
 665 51 l 2,15,16
 651 -9 651 -9 591 -9 c 1,17,-1
 576.5 19 l 2,18,19
 562 47 562 47 540.5 93 c 128,-1,20
 519 139 519 139 490 198.5 c 128,-1,21
 461 258 461 258 431 320 c 0,22,23
 360 464 360 464 273 650 c 1,24,-1
 270 645 l 1,25,-1
 280 613 l 1,26,-1
 161 51 l 2,27,28
 148 -9 148 -9 87 -9 c 1,29,-1
 231 665 l 2,0,1
EndSplineSet
EndChar
StartChar: O
Encoding: 79 79 48
Width: 854
VWidth: 1507
Flags: W
HStem: -9 54<325.867 553.528> 671 54<452.627 676.297>
Fore
136 357 m 256,0,1
 152 434 152 434 195 501 c 128,-1,2
 238 568 238 568 298.5 618 c 128,-1,3
 359 668 359 668 431 696.5 c 128,-1,4
 503 725 503 725 580 725 c 256,5,6
 657 725 657 725 717.5 696.5 c 128,-1,7
 778 668 778 668 818 618 c 128,-1,8
 858 568 858 568 872 501 c 128,-1,9
 886 434 886 434 870 357 c 256,10,11
 853 280 853 280 810 214 c 128,-1,12
 767 148 767 148 707 98 c 128,-1,13
 647 48 647 48 573.5 19.5 c 128,-1,14
 500 -9 500 -9 424 -9 c 256,15,16
 347 -9 347 -9 286.5 19.5 c 128,-1,17
 226 48 226 48 187 98 c 128,-1,18
 148 148 148 148 133.5 214 c 128,-1,19
 119 280 119 280 136 357 c 256,0,1
196 357 m 256,20,21
 182 292 182 292 193.5 235 c 128,-1,22
 205 178 205 178 237.5 135.5 c 128,-1,23
 270 93 270 93 321 69 c 128,-1,24
 372 45 372 45 436 45 c 256,25,26
 499 45 499 45 560 69 c 128,-1,27
 621 93 621 93 672.5 135.5 c 128,-1,28
 724 178 724 178 760 235 c 128,-1,29
 796 292 796 292 809 357 c 256,30,31
 823 422 823 422 811 479.5 c 128,-1,32
 799 537 799 537 766.5 579 c 128,-1,33
 734 621 734 621 683 646 c 128,-1,34
 632 671 632 671 568 671 c 256,35,36
 505 671 505 671 444 646 c 128,-1,37
 383 621 383 621 332.5 579 c 128,-1,38
 282 537 282 537 246 479.5 c 128,-1,39
 210 422 210 422 196 357 c 256,20,21
EndSplineSet
EndChar
StartChar: P
Encoding: 80 80 49
Width: 714
VWidth: 1507
Flags: W
HStem: -9 21G<91.259 117.5> 332 54<232 580.648> 662 54<291 657.889>
Fore
235 686 m 2,0,1
 243 716 243 716 271 716 c 2,2,-1
 624 716 l 2,3,4
 662 716 662 716 691 700 c 128,-1,5
 720 684 720 684 739 658 c 128,-1,6
 758 632 758 632 765 597 c 128,-1,7
 772 562 772 562 764 525 c 256,8,9
 757 487 757 487 735 452.5 c 128,-1,10
 713 418 713 418 683 390.5 c 128,-1,11
 653 363 653 363 616.5 347.5 c 128,-1,12
 580 332 580 332 543 332 c 2,13,-1
 220 332 l 1,14,-1
 161 51 l 2,15,16
 148 -9 148 -9 87 -9 c 1,17,-1
 235 686 l 2,0,1
555 386 m 2,18,19
 580 386 580 386 604.5 398.5 c 128,-1,20
 629 411 629 411 649 431 c 128,-1,21
 669 451 669 451 684 475.5 c 128,-1,22
 699 500 699 500 704 525 c 0,23,24
 710 549 710 549 706 573.5 c 128,-1,25
 702 598 702 598 690 618 c 128,-1,26
 678 638 678 638 658.5 650 c 128,-1,27
 639 662 639 662 613 662 c 2,28,-1
 291 662 l 1,29,-1
 232 386 l 1,30,-1
 555 386 l 2,18,19
EndSplineSet
EndChar
StartChar: Q
Encoding: 81 81 50
Width: 854
VWidth: 1507
Flags: W
HStem: -9 54<325.582 543.159> 244 54<235.804 427.124> 671 54<452.627 676.297>
Fore
802 38 m 1,0,1
 788 -26 788 -26 727 -5 c 0,2,3
 701 3 701 3 682 19 c 128,-1,4
 663 35 663 35 644 53 c 1,5,6
 592 23 592 23 536.5 7 c 128,-1,7
 481 -9 481 -9 424 -9 c 0,8,9
 347 -9 347 -9 286.5 19.5 c 128,-1,10
 226 48 226 48 187 98 c 128,-1,11
 148 148 148 148 133.5 214 c 128,-1,12
 119 280 119 280 136 357 c 256,13,14
 152 434 152 434 195 501 c 128,-1,15
 238 568 238 568 298.5 618 c 128,-1,16
 359 668 359 668 431 696.5 c 128,-1,17
 503 725 503 725 580 725 c 256,18,19
 657 725 657 725 717.5 696.5 c 128,-1,20
 778 668 778 668 818 618 c 128,-1,21
 858 568 858 568 872 501 c 128,-1,22
 886 434 886 434 870 357 c 0,23,24
 853 276 853 276 806.5 207.5 c 128,-1,25
 760 139 760 139 696 89 c 1,26,27
 719 68 719 68 744.5 53 c 128,-1,28
 770 38 770 38 802 38 c 1,0,1
196 357 m 0,29,30
 187 312 187 312 188 276 c 1,31,32
 258 298 258 298 329 298 c 0,33,34
 454 298 454 298 550 229 c 0,35,36
 580 208 580 208 602 186 c 128,-1,37
 624 164 624 164 645 143 c 1,38,39
 654 131 654 131 660 127 c 1,40,41
 714 169 714 169 754 228.5 c 128,-1,42
 794 288 794 288 809 357 c 0,43,44
 823 422 823 422 811 479.5 c 128,-1,45
 799 537 799 537 766.5 579 c 128,-1,46
 734 621 734 621 683 646 c 128,-1,47
 632 671 632 671 568 671 c 256,48,49
 505 671 505 671 444 646 c 128,-1,50
 383 621 383 621 332.5 579 c 128,-1,51
 282 537 282 537 246 479.5 c 128,-1,52
 210 422 210 422 196 357 c 0,29,30
436 45 m 0,53,54
 523 45 523 45 607 92 c 1,55,-1
 600 101 l 2,56,57
 579 122 579 122 555.5 144.5 c 128,-1,58
 532 167 532 167 509 184 c 0,59,60
 470 213 470 213 419.5 228.5 c 128,-1,61
 369 244 369 244 317 244 c 0,62,63
 288 244 288 244 258 239 c 128,-1,64
 228 234 228 234 197 220 c 1,65,66
 217 142 217 142 280.5 93.5 c 128,-1,67
 344 45 344 45 436 45 c 0,53,54
EndSplineSet
EndChar
StartChar: R
Encoding: 82 82 51
Width: 731
VWidth: 1507
Flags: W
HStem: -9 21G<91.259 117.5 596.335 622.5> 332 54<232 580.648> 662 54<291 657.889>
Fore
555 386 m 2,0,1
 580 386 580 386 604.5 398.5 c 128,-1,2
 629 411 629 411 649 431 c 128,-1,3
 669 451 669 451 684 475.5 c 128,-1,4
 699 500 699 500 704 525 c 0,5,6
 710 549 710 549 706 573.5 c 128,-1,7
 702 598 702 598 690 618 c 128,-1,8
 678 638 678 638 658.5 650 c 128,-1,9
 639 662 639 662 613 662 c 2,10,-1
 291 662 l 1,11,-1
 232 386 l 1,12,-1
 555 386 l 2,0,1
161 51 m 2,13,14
 148 -9 148 -9 87 -9 c 1,15,-1
 235 686 l 2,16,17
 243 716 243 716 271 716 c 2,18,-1
 624 716 l 2,19,20
 662 716 662 716 691 700 c 128,-1,21
 720 684 720 684 739 658 c 128,-1,22
 758 632 758 632 765 597 c 128,-1,23
 772 562 772 562 764 525 c 0,24,25
 760 499 760 499 747 474 c 128,-1,26
 734 449 734 449 716 426.5 c 128,-1,27
 698 404 698 404 677 385 c 128,-1,28
 656 366 656 366 633 356 c 1,29,30
 674 335 674 335 690.5 290.5 c 128,-1,31
 707 246 707 246 696 194 c 2,32,-1
 666 51 l 2,33,34
 653 -9 653 -9 592 -9 c 1,35,-1
 636 194 l 2,36,37
 650 258 650 258 622 295 c 128,-1,38
 594 332 594 332 543 332 c 2,39,-1
 220 332 l 1,40,-1
 161 51 l 2,13,14
EndSplineSet
EndChar
StartChar: S
Encoding: 83 83 52
Width: 684
VWidth: 1507
Flags: W
HStem: -9 54<257.727 444.422> 671 54<391.424 565.145>
Fore
164 226 m 0,0,1
 157 190 157 190 167.5 157 c 128,-1,2
 178 124 178 124 203 99 c 128,-1,3
 228 74 228 74 265.5 59.5 c 128,-1,4
 303 45 303 45 350 45 c 0,5,6
 395 45 395 45 439.5 60 c 128,-1,7
 484 75 484 75 520 100 c 128,-1,8
 556 125 556 125 580 156.5 c 128,-1,9
 604 188 604 188 609 223 c 0,10,11
 612 250 612 250 597.5 268 c 128,-1,12
 583 286 583 286 556 300 c 128,-1,13
 529 314 529 314 490.5 323.5 c 128,-1,14
 452 333 452 333 407 342 c 0,15,16
 351 353 351 353 309.5 365.5 c 128,-1,17
 268 378 268 378 242 397 c 128,-1,18
 216 416 216 416 205 443 c 128,-1,19
 194 470 194 470 199 511 c 256,20,21
 203 552 203 552 227.5 591 c 128,-1,22
 252 630 252 630 291 659.5 c 128,-1,23
 330 689 330 689 382 707 c 128,-1,24
 434 725 434 725 494 725 c 0,25,26
 601 725 601 725 652.5 670 c 128,-1,27
 704 615 704 615 699 532 c 0,28,29
 696 494 696 494 672 477.5 c 128,-1,30
 648 461 648 461 626 461 c 1,31,32
 629 469 629 469 629.5 472.5 c 0,33,-1
 633 491 l 0,34,35
 641 528 641 528 635 560 c 128,-1,36
 629 592 629 592 610 617 c 128,-1,37
 591 642 591 642 559.5 656.5 c 128,-1,38
 528 671 528 671 482 671 c 256,39,40
 437 671 437 671 398 657.5 c 128,-1,41
 359 644 359 644 329.5 622.5 c 128,-1,42
 300 601 300 601 281 573.5 c 128,-1,43
 262 546 262 546 259 517 c 0,44,45
 252 463 252 463 294 439.5 c 128,-1,46
 336 416 336 416 430 396 c 0,47,48
 485 384 485 384 532 373.5 c 128,-1,49
 579 363 579 363 612 345 c 128,-1,50
 645 327 645 327 661 300 c 128,-1,51
 677 273 677 273 671 228 c 0,52,53
 663 181 663 181 632 138 c 128,-1,54
 601 95 601 95 555 62.5 c 128,-1,55
 509 30 509 30 452.5 10.5 c 128,-1,56
 396 -9 396 -9 338 -9 c 0,57,58
 285 -9 285 -9 242 5.5 c 128,-1,59
 199 20 199 20 167.5 46 c 128,-1,60
 136 72 136 72 117.5 107.5 c 128,-1,61
 99 143 99 143 99 184 c 0,62,63
 101 223 101 223 125 239.5 c 128,-1,64
 149 256 149 256 173 256 c 1,65,66
 170 249 170 249 168 241.5 c 128,-1,67
 166 234 166 234 164 226 c 0,0,1
EndSplineSet
EndChar
StartChar: T
Encoding: 84 84 53
Width: 562
VWidth: 1507
Flags: W
HStem: -9 21G<253.262 279> 662 54<154.297 392 452 698.234>
Fore
713 716 m 1,0,1
 701 662 701 662 648 662 c 2,2,-1
 452 662 l 1,3,-1
 323 51 l 2,4,5
 309 -9 309 -9 249 -9 c 1,6,-1
 392 662 l 1,7,-1
 140 662 l 1,8,9
 151 716 151 716 205 716 c 2,10,-1
 713 716 l 1,0,1
EndSplineSet
EndChar
StartChar: U
Encoding: 85 85 54
Width: 744
VWidth: 1507
Flags: W
HStem: -9 54<290.494 470.484> 705 20G<274 299.711 778 803.711>
Fore
197 226 m 2,0,1
 190 190 190 190 200.5 157 c 128,-1,2
 211 124 211 124 236 99 c 128,-1,3
 261 74 261 74 298 59.5 c 128,-1,4
 335 45 335 45 381 45 c 256,5,6
 428 45 428 45 471.5 59.5 c 128,-1,7
 515 74 515 74 550 99 c 128,-1,8
 585 124 585 124 609 157 c 128,-1,9
 633 190 633 190 641 226 c 2,10,-1
 734 665 l 2,11,12
 748 725 748 725 808 725 c 1,13,-1
 701 226 l 2,14,15
 689 170 689 170 654.5 126.5 c 128,-1,16
 620 83 620 83 573 53 c 128,-1,17
 526 23 526 23 472.5 7 c 128,-1,18
 419 -9 419 -9 369 -9 c 256,19,20
 320 -9 320 -9 273 7 c 128,-1,21
 226 23 226 23 192 53 c 128,-1,22
 158 83 158 83 141.5 126.5 c 128,-1,23
 125 170 125 170 137 226 c 2,24,-1
 231 665 l 2,25,26
 244 725 244 725 304 725 c 1,27,-1
 197 226 l 2,0,1
EndSplineSet
EndChar
StartChar: V
Encoding: 86 86 55
Width: 651
VWidth: 1507
Flags: W
HStem: -9 21G<312 332.5>
Fore
342 93 m 1,0,-1
 326 63 l 1,1,-1
 327 59 l 1,2,-1
 702 687 l 2,3,4
 717 711 717 711 742 722 c 128,-1,5
 767 733 767 733 788 722 c 1,6,-1
 356 9 l 2,7,8
 342 -9 342 -9 323 -9 c 0,9,10
 301 -9 301 -9 298 9 c 2,11,-1
 167 722 l 1,12,13
 193 733 193 733 214 722 c 128,-1,14
 235 711 235 711 238 687 c 2,15,-1
 342 93 l 1,0,-1
EndSplineSet
EndChar
StartChar: W
Encoding: 87 87 56
Width: 961
VWidth: 1507
Flags: W
HStem: -9 21G<286 308.659 651.839 676.5>
Fore
298 -9 m 1,0,1
 274 -9 274 -9 263 4 c 128,-1,2
 252 17 252 17 249 41 c 2,3,-1
 169 724 l 1,4,5
 194 731 194 731 214 719.5 c 128,-1,6
 234 708 234 708 237 684 c 2,7,-1
 300 110 l 1,8,-1
 286 78 l 1,9,-1
 286 74 l 1,10,-1
 585 636 l 2,11,12
 597 656 597 656 618 656 c 256,13,14
 639 656 639 656 642 636 c 2,15,-1
 698 110 l 1,16,-1
 684 78 l 1,17,-1
 684 74 l 1,18,-1
 1011 684 l 2,19,20
 1023 708 1023 708 1049 719.5 c 128,-1,21
 1075 731 1075 731 1097 724 c 1,22,-1
 725 41 l 2,23,24
 699 -9 699 -9 654 -9 c 1,25,-1
 591 574 l 1,26,-1
 589 570 l 1,27,-1
 589 537 l 1,28,-1
 298 -9 l 1,0,1
EndSplineSet
EndChar
StartChar: X
Encoding: 88 88 57
Width: 633
VWidth: 1507
Flags: W
Fore
181 716 m 1,0,1
 205 731 205 731 226 725.5 c 128,-1,2
 247 720 247 720 256 701 c 2,3,-1
 404 415 l 1,4,-1
 672 701 l 2,5,6
 690 720 690 720 713.5 725.5 c 128,-1,7
 737 731 737 731 754 716 c 1,8,-1
 428 369 l 1,9,-1
 618 2 l 1,10,11
 594 -14 594 -14 573.5 -8.5 c 128,-1,12
 553 -3 553 -3 543 18 c 2,13,-1
 384 324 l 1,14,-1
 96 18 l 2,15,16
 77 -3 77 -3 54.5 -8.5 c 128,-1,17
 32 -14 32 -14 15 2 c 1,18,-1
 362 369 l 1,19,-1
 181 716 l 1,0,1
EndSplineSet
EndChar
StartChar: Y
Encoding: 89 89 58
Width: 602
VWidth: 1507
Flags: W
HStem: -9 21G<272.278 298.5>
Fore
342 51 m 2,0,1
 329 -9 329 -9 268 -9 c 1,2,-1
 348 365 l 1,3,-1
 166 716 l 1,4,5
 190 731 190 731 211 725.5 c 128,-1,6
 232 720 232 720 241 701 c 2,7,-1
 389 415 l 1,8,-1
 657 701 l 2,9,10
 675 720 675 720 698.5 725.5 c 128,-1,11
 722 731 722 731 739 716 c 1,12,-1
 408 365 l 1,13,-1
 342 51 l 2,0,1
EndSplineSet
EndChar
StartChar: Z
Encoding: 90 90 59
Width: 633
VWidth: 1507
Flags: W
HStem: 0 54<128 601.5> 662 54<181.562 656>
Fore
225 662 m 2,0,1
 169 662 169 662 181 716 c 1,2,-1
 724 716 l 2,3,4
 742 716 742 716 746.5 699.5 c 128,-1,5
 751 683 751 683 739 669 c 2,6,-1
 101 33 l 1,7,-1
 106 35 l 1,8,-1
 128 54 l 1,9,-1
 559 54 l 2,10,11
 613 54 613 54 603 0 c 1,12,-1
 60 0 l 2,13,14
 42 0 42 0 37.5 16.5 c 128,-1,15
 33 33 33 33 45 47 c 2,16,-1
 683 683 l 1,17,-1
 678 681 l 1,18,-1
 656 662 l 1,19,-1
 225 662 l 2,0,1
EndSplineSet
EndChar
StartChar: bracketleft
Encoding: 91 91 60
Width: 287
VWidth: 1507
Flags: W
HStem: -130 55<131 267> 689 54<294 438.172>
VStem: 62 390<-130 743 -130 -130>
Fore
62 -130 m 1,0,-1
 247 743 l 1,1,-1
 452 743 l 1,2,3
 442 689 442 689 387 689 c 2,4,-1
 294 689 l 1,5,-1
 131 -75 l 1,6,-1
 225 -75 l 2,7,8
 280 -75 280 -75 267 -130 c 1,9,-1
 62 -130 l 1,0,-1
EndSplineSet
EndChar
StartChar: backslash
Encoding: 92 92 61
Width: 420
VWidth: 1507
Flags: W
VStem: 143 285<-30 746 746 1528.03>
Fore
428 -30 m 1,0,1
 375 -56 375 -56 362 -6 c 2,2,-1
 143 746 l 1,3,4
 197 772 197 772 210 722 c 2,5,-1
 428 -30 l 1,0,1
EndSplineSet
EndChar
StartChar: asciicircum
Encoding: 94 94 63
Width: 642
VWidth: 1507
Flags: W
HStem: 700 20G<463.5 472 475 482.5>
VStem: 116 497<211 211 211 211>
Fore
472 720 m 1,0,1
 493 720 493 720 497 704 c 2,2,-1
 613 211 l 1,3,4
 594 202 594 202 573.5 208 c 128,-1,5
 553 214 553 214 549 232 c 2,6,-1
 455 638 l 1,7,-1
 190 232 l 2,8,9
 178 214 178 214 155.5 208 c 128,-1,10
 133 202 133 202 116 211 c 1,11,-1
 443 704 l 2,12,13
 452 720 452 720 475 720 c 1,14,-1
 472 720 l 1,0,1
EndSplineSet
EndChar
StartChar: underscore
Encoding: 95 95 64
Width: 542
VWidth: 1507
Flags: W
HStem: -282 48<-48 482>
Fore
-59 -282 m 1,0,-1
 -48 -234 l 1,1,-1
 493 -234 l 1,2,-1
 482 -282 l 1,3,-1
 -59 -282 l 1,0,-1
EndSplineSet
EndChar
StartChar: grave
Encoding: 96 96 65
Width: 325
VWidth: 1507
Flags: W
HStem: 562 157<217 374 334.5 374>
Fore
374 562 m 1,0,1
 348 562 348 562 334.5 566 c 128,-1,2
 321 570 321 570 314 579 c 2,3,-1
 217 719 l 1,4,-1
 252 719 l 2,5,6
 304 719 304 719 317 692 c 2,7,-1
 374 562 l 1,0,1
EndSplineSet
EndChar
StartChar: a
Encoding: 97 97 66
Width: 557
VWidth: 1507
Flags: W
HStem: -9 50<188.228 334.309> 283 50<269.066 380.583> 470 50<278.7 429.038>
VStem: 93 448<161 350 3.49136 60.3225>
Fore
333 333 m 0,0,1
 386 333 386 333 425 313.5 c 128,-1,2
 464 294 464 294 485 259 c 1,3,-1
 488 264 l 1,4,5
 482 276 482 276 473 285 c 1,6,-1
 487 350 l 2,7,8
 497 398 497 398 462 434 c 128,-1,9
 427 470 427 470 363 470 c 0,10,11
 314 470 314 470 266.5 441.5 c 128,-1,12
 219 413 219 413 188 372 c 1,13,14
 173 386 173 386 172.5 408 c 128,-1,15
 172 430 172 430 193 448 c 0,16,17
 228 482 228 482 276 501 c 128,-1,18
 324 520 324 520 374 520 c 0,19,20
 410 520 410 520 444 508.5 c 128,-1,21
 478 497 478 497 502 475.5 c 128,-1,22
 526 454 526 454 538 422 c 128,-1,23
 550 390 550 390 541 350 c 2,24,-1
 476 45 l 2,25,26
 464 -9 464 -9 410 -9 c 1,27,-1
 421 39 l 1,28,29
 427 42 427 42 433.5 49 c 128,-1,30
 440 56 440 56 445 60 c 1,31,-1
 445 65 l 1,32,33
 410 30 410 30 362 10.5 c 128,-1,34
 314 -9 314 -9 261 -9 c 0,35,36
 219 -9 219 -9 184 4.5 c 128,-1,37
 149 18 149 18 126.5 40.5 c 128,-1,38
 104 63 104 63 95 94 c 128,-1,39
 86 125 86 125 93 161 c 256,40,41
 101 197 101 197 123.5 228 c 128,-1,42
 146 259 146 259 178.5 282.5 c 128,-1,43
 211 306 211 306 251 319.5 c 128,-1,44
 291 333 291 333 333 333 c 0,0,1
271 41 m 0,45,46
 303 41 303 41 332.5 50.5 c 128,-1,47
 362 60 362 60 386 76.5 c 128,-1,48
 410 93 410 93 426 115 c 128,-1,49
 442 137 442 137 446 161 c 256,50,51
 451 185 451 185 445 207 c 128,-1,52
 439 229 439 229 422 246.5 c 128,-1,53
 405 264 405 264 379.5 273.5 c 128,-1,54
 354 283 354 283 323 283 c 256,55,56
 291 283 291 283 261.5 273.5 c 128,-1,57
 232 264 232 264 208 246.5 c 128,-1,58
 184 229 184 229 168 207 c 128,-1,59
 152 185 152 185 148 161 c 0,60,61
 137 113 137 113 171.5 77 c 128,-1,62
 206 41 206 41 271 41 c 0,45,46
EndSplineSet
Substitution2: "Single Substitution lookup 22 subtable" uni0E38
Substitution2: "Single Substitution lookup 22 subtable" uni0E38
EndChar
StartChar: b
Encoding: 98 98 67
Width: 572
VWidth: 1507
Flags: W
HStem: -9 50<243.417 354.934> 470 50<330.609 475.985> 705 20G<270.5 293.731>
VStem: 87 484<-9 350 -9 242.083>
Fore
178 163 m 2,0,1
 173 139 173 139 179 117 c 128,-1,2
 185 95 185 95 202 77.5 c 128,-1,3
 219 60 219 60 244.5 50.5 c 128,-1,4
 270 41 270 41 301 41 c 256,5,6
 333 41 333 41 362.5 50.5 c 128,-1,7
 392 60 392 60 416 77.5 c 128,-1,8
 440 95 440 95 456 117 c 128,-1,9
 472 139 472 139 476 163 c 2,10,-1
 517 350 l 2,11,12
 528 398 528 398 493 434 c 128,-1,13
 458 470 458 470 393 470 c 0,14,15
 362 470 362 470 332.5 460.5 c 128,-1,16
 303 451 303 451 279 434.5 c 128,-1,17
 255 418 255 418 239 396 c 128,-1,18
 223 374 223 374 219 350 c 2,19,-1
 178 163 l 2,0,1
244 472 m 1,20,21
 238 469 238 469 231.5 462 c 128,-1,22
 225 455 225 455 220 451 c 1,23,-1
 220 446 l 1,24,25
 255 481 255 481 303 500.5 c 128,-1,26
 351 520 351 520 404 520 c 0,27,28
 446 520 446 520 480 506.5 c 128,-1,29
 514 493 514 493 536.5 470.5 c 128,-1,30
 559 448 559 448 569 417 c 128,-1,31
 579 386 579 386 571 350 c 2,32,-1
 531 163 l 2,33,34
 523 127 523 127 500.5 96 c 128,-1,35
 478 65 478 65 445.5 41.5 c 128,-1,36
 413 18 413 18 373 4.5 c 128,-1,37
 333 -9 333 -9 291 -9 c 0,38,39
 238 -9 238 -9 199 10.5 c 128,-1,40
 160 30 160 30 140 65 c 1,41,-1
 137 60 l 1,42,43
 143 48 143 48 152 39 c 1,44,45
 146 17 146 17 132 4 c 128,-1,46
 118 -9 118 -9 87 -9 c 1,47,-1
 232 671 l 2,48,49
 243 725 243 725 298 725 c 1,50,-1
 244 472 l 1,20,21
EndSplineSet
Substitution2: "Single Substitution lookup 22 subtable" uni0E39
Substitution2: "Single Substitution lookup 22 subtable" uni0E39
EndChar
StartChar: c
Encoding: 99 99 68
Width: 518
VWidth: 1507
Flags: W
HStem: -9 50<204.106 349.566> 470 50<324.983 436.334>
VStem: 109 446<161 413 161 161>
Fore
389 520 m 0,0,1
 454 520 454 520 498.5 490.5 c 128,-1,2
 543 461 543 461 555 413 c 0,3,4
 558 399 558 399 553.5 387 c 128,-1,5
 549 375 549 375 540.5 367 c 128,-1,6
 532 359 532 359 521.5 353.5 c 128,-1,7
 511 348 511 348 502 348 c 1,8,9
 506 372 506 372 500 394 c 128,-1,10
 494 416 494 416 477.5 433.5 c 128,-1,11
 461 451 461 451 435.5 460.5 c 128,-1,12
 410 470 410 470 378 470 c 256,13,14
 347 470 347 470 317.5 460.5 c 128,-1,15
 288 451 288 451 264 433.5 c 128,-1,16
 240 416 240 416 224 394 c 128,-1,17
 208 372 208 372 203 348 c 2,18,-1
 163 161 l 2,19,20
 152 113 152 113 187 77 c 128,-1,21
 222 41 222 41 286 41 c 0,22,23
 318 41 318 41 347.5 50.5 c 128,-1,24
 377 60 377 60 401 77.5 c 128,-1,25
 425 95 425 95 441 117 c 128,-1,26
 457 139 457 139 461 163 c 1,27,28
 478 163 478 163 491.5 144 c 128,-1,29
 505 125 505 125 487 98 c 0,30,31
 454 50 454 50 397.5 20.5 c 128,-1,32
 341 -9 341 -9 276 -9 c 0,33,34
 234 -9 234 -9 199 4.5 c 128,-1,35
 164 18 164 18 141.5 40.5 c 128,-1,36
 119 63 119 63 110 94 c 128,-1,37
 101 125 101 125 109 161 c 2,38,-1
 149 348 l 2,39,40
 157 384 157 384 179.5 415 c 128,-1,41
 202 446 202 446 234.5 469.5 c 128,-1,42
 267 493 267 493 307 506.5 c 128,-1,43
 347 520 347 520 389 520 c 0,0,1
EndSplineSet
Substitution2: "Single Substitution lookup 22 subtable" uni0E3A
Substitution2: "Single Substitution lookup 22 subtable" uni0E3A
EndChar
StartChar: d
Encoding: 100 100 69
Width: 572
VWidth: 1507
Flags: W
HStem: -9 50<204.106 349.309> 470 50<324.983 436.501> 705 20G<608 631.735>
Fore
502 348 m 2,0,1
 506 372 506 372 500 394 c 128,-1,2
 494 416 494 416 477.5 433.5 c 128,-1,3
 461 451 461 451 435.5 460.5 c 128,-1,4
 410 470 410 470 378 470 c 256,5,6
 347 470 347 470 317.5 460.5 c 128,-1,7
 288 451 288 451 264 433.5 c 128,-1,8
 240 416 240 416 224 394 c 128,-1,9
 208 372 208 372 203 348 c 2,10,-1
 163 161 l 2,11,12
 152 113 152 113 187 77 c 128,-1,13
 222 41 222 41 286 41 c 0,14,15
 318 41 318 41 347.5 50.5 c 128,-1,16
 377 60 377 60 401 76.5 c 128,-1,17
 425 93 425 93 441 115 c 128,-1,18
 457 137 457 137 461 161 c 2,19,-1
 502 348 l 2,0,1
570 671 m 2,20,21
 580 725 580 725 636 725 c 1,22,-1
 491 45 l 2,23,24
 479 -9 479 -9 425 -9 c 1,25,-1
 436 39 l 1,26,27
 442 42 442 42 448.5 49 c 128,-1,28
 455 56 455 56 460 60 c 1,29,-1
 460 65 l 1,30,31
 425 30 425 30 377 10.5 c 128,-1,32
 329 -9 329 -9 276 -9 c 0,33,34
 234 -9 234 -9 199 4.5 c 128,-1,35
 164 18 164 18 141.5 40.5 c 128,-1,36
 119 63 119 63 110 94 c 128,-1,37
 101 125 101 125 109 161 c 2,38,-1
 149 348 l 2,39,40
 157 384 157 384 179.5 415 c 128,-1,41
 202 446 202 446 234.5 469.5 c 128,-1,42
 267 493 267 493 307 506.5 c 128,-1,43
 347 520 347 520 389 520 c 0,44,45
 442 520 442 520 481 500.5 c 128,-1,46
 520 481 520 481 540 446 c 1,47,-1
 543 451 l 1,48,49
 537 463 537 463 528 472 c 1,50,-1
 570 671 l 2,20,21
EndSplineSet
EndChar
StartChar: e
Encoding: 101 101 70
Width: 557
VWidth: 1507
Flags: W
HStem: -9 50<204.106 349.566> 267 50<196 494> 470 50<324.983 436.674>
VStem: 109 447<161 348 161 280.233>
Fore
163 161 m 2,0,1
 152 113 152 113 187 77 c 128,-1,2
 222 41 222 41 286 41 c 0,3,4
 318 41 318 41 347.5 50.5 c 128,-1,5
 377 60 377 60 401 77.5 c 128,-1,6
 425 95 425 95 441 117 c 128,-1,7
 457 139 457 139 461 163 c 1,8,9
 478 163 478 163 491.5 144 c 128,-1,10
 505 125 505 125 487 98 c 0,11,12
 454 50 454 50 397.5 20.5 c 128,-1,13
 341 -9 341 -9 276 -9 c 0,14,15
 234 -9 234 -9 199 4.5 c 128,-1,16
 164 18 164 18 141.5 40.5 c 128,-1,17
 119 63 119 63 110 94 c 128,-1,18
 101 125 101 125 109 161 c 2,19,-1
 149 348 l 2,20,21
 157 384 157 384 179.5 415 c 128,-1,22
 202 446 202 446 234.5 469.5 c 128,-1,23
 267 493 267 493 307 506.5 c 128,-1,24
 347 520 347 520 389 520 c 256,25,26
 431 520 431 520 465 506.5 c 128,-1,27
 499 493 499 493 521.5 469.5 c 128,-1,28
 544 446 544 446 554 415 c 128,-1,29
 564 384 564 384 556 348 c 2,30,-1
 544 294 l 2,31,32
 541 282 541 282 531.5 274.5 c 128,-1,33
 522 267 522 267 511 267 c 2,34,-1
 185 267 l 1,35,-1
 163 161 l 2,0,1
196 317 m 1,36,-1
 494 317 l 1,37,-1
 502 348 l 2,38,39
 506 372 506 372 500 394 c 128,-1,40
 494 416 494 416 477.5 433.5 c 128,-1,41
 461 451 461 451 435.5 460.5 c 128,-1,42
 410 470 410 470 378 470 c 256,43,44
 347 470 347 470 317.5 460.5 c 128,-1,45
 288 451 288 451 264 433.5 c 128,-1,46
 240 416 240 416 224 394 c 128,-1,47
 208 372 208 372 203 348 c 2,48,-1
 196 317 l 1,36,-1
EndSplineSet
EndChar
StartChar: f
Encoding: 102 102 71
Width: 301
VWidth: 1507
Flags: W
HStem: -9 21G<103.298 126.5> 461 50<124.15 200 265 347.496> 675 50<322.921 432.698>
VStem: 99 345<-9 706 1.32539 127.496>
Fore
200 461 m 1,0,-1
 113 461 l 1,1,2
 122 511 122 511 173 511 c 2,3,-1
 211 511 l 1,4,-1
 226 588 l 2,5,6
 238 645 238 645 287 685 c 128,-1,7
 336 725 336 725 405 725 c 0,8,9
 436 725 436 725 444 706 c 128,-1,10
 452 687 452 687 436 666 c 1,11,12
 419 675 419 675 395 675 c 0,13,14
 348 675 348 675 318 649.5 c 128,-1,15
 288 624 288 624 280 588 c 2,16,-1
 265 511 l 1,17,-1
 360 511 l 1,18,19
 348 461 348 461 300 461 c 2,20,-1
 255 461 l 1,21,-1
 166 45 l 2,22,23
 154 -9 154 -9 99 -9 c 1,24,-1
 200 461 l 1,0,-1
EndSplineSet
EndChar
StartChar: g
Encoding: 103 103 72
Width: 572
VWidth: 1507
Flags: W
HStem: -214 50<184.666 296.017> -9 50<204.106 349.309> 470 50<324.983 436.501>
Fore
502 348 m 2,0,1
 506 372 506 372 500 394 c 128,-1,2
 494 416 494 416 477.5 433.5 c 128,-1,3
 461 451 461 451 435.5 460.5 c 128,-1,4
 410 470 410 470 378 470 c 256,5,6
 347 470 347 470 317.5 460.5 c 128,-1,7
 288 451 288 451 264 433.5 c 128,-1,8
 240 416 240 416 224 394 c 128,-1,9
 208 372 208 372 203 348 c 2,10,-1
 163 161 l 2,11,12
 152 113 152 113 187 77 c 128,-1,13
 222 41 222 41 286 41 c 0,14,15
 318 41 318 41 347.5 50.5 c 128,-1,16
 377 60 377 60 401 76.5 c 128,-1,17
 425 93 425 93 441 115 c 128,-1,18
 457 137 457 137 461 161 c 2,19,-1
 502 348 l 2,0,1
436 39 m 1,20,21
 442 42 442 42 448.5 49 c 128,-1,22
 455 56 455 56 460 60 c 1,23,-1
 460 65 l 1,24,25
 425 30 425 30 377 10.5 c 128,-1,26
 329 -9 329 -9 276 -9 c 0,27,28
 234 -9 234 -9 199 4.5 c 128,-1,29
 164 18 164 18 141.5 40.5 c 128,-1,30
 119 63 119 63 110 94 c 128,-1,31
 101 125 101 125 109 161 c 2,32,-1
 149 348 l 2,33,34
 157 384 157 384 179.5 415 c 128,-1,35
 202 446 202 446 234.5 469.5 c 128,-1,36
 267 493 267 493 307 506.5 c 128,-1,37
 347 520 347 520 389 520 c 0,38,39
 442 520 442 520 481 500.5 c 128,-1,40
 520 481 520 481 540 446 c 1,41,-1
 543 451 l 1,42,43
 537 463 537 463 528 472 c 1,44,45
 534 494 534 494 548 507 c 128,-1,46
 562 520 562 520 592 520 c 1,47,-1
 472 -44 l 2,48,49
 464 -80 464 -80 441.5 -111 c 128,-1,50
 419 -142 419 -142 386.5 -164.5 c 128,-1,51
 354 -187 354 -187 314 -200.5 c 128,-1,52
 274 -214 274 -214 232 -214 c 0,53,54
 167 -214 167 -214 122.5 -184.5 c 128,-1,55
 78 -155 78 -155 66 -107 c 0,56,57
 63 -93 63 -93 68.5 -81 c 128,-1,58
 74 -69 74 -69 82 -61 c 128,-1,59
 90 -53 90 -53 101 -47.5 c 128,-1,60
 112 -42 112 -42 121 -42 c 1,61,62
 115 -66 115 -66 121.5 -88 c 128,-1,63
 128 -110 128 -110 144 -127.5 c 128,-1,64
 160 -145 160 -145 185.5 -154.5 c 128,-1,65
 211 -164 211 -164 243 -164 c 256,66,67
 274 -164 274 -164 303.5 -154.5 c 128,-1,68
 333 -145 333 -145 357 -128.5 c 128,-1,69
 381 -112 381 -112 397 -90 c 128,-1,70
 413 -68 413 -68 418 -44 c 2,71,-1
 436 39 l 1,20,21
EndSplineSet
EndChar
StartChar: h
Encoding: 104 104 73
Width: 587
VWidth: 1507
Flags: W
HStem: -9 21G<91.2647 114.5 444.314 467> 470 50<330.609 451.674> 705 20G<270.5 293.731>
VStem: 87 484<-9 348 -201.122 43.697>
Fore
232 671 m 2,0,1
 243 725 243 725 298 725 c 1,2,-1
 244 472 l 1,3,4
 238 469 238 469 231.5 462 c 128,-1,5
 225 455 225 455 220 451 c 1,6,-1
 220 446 l 1,7,8
 255 481 255 481 303 500.5 c 128,-1,9
 351 520 351 520 404 520 c 0,10,11
 446 520 446 520 480 506.5 c 128,-1,12
 514 493 514 493 536.5 469.5 c 128,-1,13
 559 446 559 446 569 415 c 128,-1,14
 579 384 579 384 571 348 c 2,15,-1
 506 45 l 2,16,17
 494 -9 494 -9 440 -9 c 1,18,-1
 517 348 l 2,19,20
 522 372 522 372 515.5 394 c 128,-1,21
 509 416 509 416 492.5 433.5 c 128,-1,22
 476 451 476 451 450.5 460.5 c 128,-1,23
 425 470 425 470 393 470 c 256,24,25
 362 470 362 470 332.5 460.5 c 128,-1,26
 303 451 303 451 279 433.5 c 128,-1,27
 255 416 255 416 239 394 c 128,-1,28
 223 372 223 372 219 348 c 2,29,-1
 154 45 l 2,30,31
 142 -9 142 -9 87 -9 c 1,32,-1
 232 671 l 2,0,1
EndSplineSet
EndChar
StartChar: i
Encoding: 105 105 74
Width: 235
VWidth: 1507
Flags: W
HStem: -9 21G<91.2526 114.5> 500 20G<227 250.747> 601 103<228.563 282.437>
VStem: 87 220<-9 653 -9 -9> 205 102<636.161 692.761>
Fore
188 466 m 2,0,1
 199 520 199 520 255 520 c 1,2,-1
 154 45 l 2,3,4
 142 -9 142 -9 87 -9 c 1,5,-1
 188 466 l 2,0,1
205 653 m 0,6,7
 210 674 210 674 228 689 c 128,-1,8
 246 704 246 704 267 704 c 256,9,10
 288 704 288 704 300 689 c 128,-1,11
 312 674 312 674 307 653 c 0,12,13
 301 632 301 632 283 616.5 c 128,-1,14
 265 601 265 601 244 601 c 256,15,16
 223 601 223 601 211 616.5 c 128,-1,17
 199 632 199 632 205 653 c 0,6,7
EndSplineSet
EndChar
StartChar: j
Encoding: 106 106 75
Width: 235
VWidth: 1507
Flags: W
HStem: -214 50<-77.1737 31.1442> 500 20G<227 250.745> 601 103<228.563 282.437>
VStem: 205 102<636.161 692.761>
Fore
128 -77 m 2,0,1
 116 -134 116 -134 67 -174 c 128,-1,2
 18 -214 18 -214 -50 -214 c 0,3,4
 -80 -214 -80 -214 -88 -195 c 128,-1,5
 -96 -176 -96 -176 -80 -155 c 1,6,7
 -65 -164 -65 -164 -39 -164 c 0,8,9
 6 -164 6 -164 36 -138.5 c 128,-1,10
 66 -113 66 -113 74 -77 c 2,11,-1
 188 466 l 2,12,13
 199 520 199 520 255 520 c 1,14,-1
 128 -77 l 2,0,1
205 653 m 0,15,16
 210 674 210 674 228 689 c 128,-1,17
 246 704 246 704 267 704 c 256,18,19
 288 704 288 704 300 689 c 128,-1,20
 312 674 312 674 307 653 c 0,21,22
 301 632 301 632 283 616.5 c 128,-1,23
 265 601 265 601 244 601 c 256,24,25
 223 601 223 601 211 616.5 c 128,-1,26
 199 632 199 632 205 653 c 0,15,16
EndSplineSet
EndChar
StartChar: k
Encoding: 107 107 76
Width: 572
VWidth: 1507
Flags: W
HStem: -9 21G<91.2647 114.5 444.2 467> 314 49<362 441.36> 499 20G<538.412 582.5> 705 20G<270.5 293.756>
VStem: 87 487<-9 519 -361.605 43.6754>
Fore
232 671 m 2,0,1
 243 725 243 725 298 725 c 1,2,-1
 211 315 l 1,3,-1
 574 519 l 1,4,5
 591 469 591 469 540 443 c 2,6,-1
 404 368 l 1,7,8
 392 368 392 368 385 368 c 128,-1,9
 378 368 378 368 366 365 c 2,10,-1
 362 363 l 1,11,-1
 371 363 l 2,12,13
 413 363 413 363 447 349.5 c 128,-1,14
 481 336 481 336 503.5 312.5 c 128,-1,15
 526 289 526 289 535 258.5 c 128,-1,16
 544 228 544 228 537 191 c 2,17,-1
 506 45 l 2,18,19
 494 -9 494 -9 440 -9 c 1,20,-1
 482 191 l 2,21,22
 493 240 493 240 459 277 c 128,-1,23
 425 314 425 314 360 314 c 0,24,25
 329 314 329 314 299.5 304 c 128,-1,26
 270 294 270 294 246 276.5 c 128,-1,27
 222 259 222 259 206 237.5 c 128,-1,28
 190 216 190 216 184 191 c 2,29,-1
 154 45 l 2,30,31
 142 -9 142 -9 87 -9 c 1,32,-1
 232 671 l 2,0,1
EndSplineSet
EndChar
StartChar: l
Encoding: 108 108 77
Width: 289
VWidth: 1507
Flags: W
HStem: -9 50<184.979 284.707> 705 20G<270.5 293.779>
VStem: 118 180<128 725 128 128>
Fore
237 -9 m 0,0,1
 167 -9 167 -9 136.5 31 c 128,-1,2
 106 71 106 71 118 128 c 2,3,-1
 232 671 l 2,4,5
 243 725 243 725 298 725 c 1,6,-1
 172 128 l 2,7,8
 164 92 164 92 182 66.5 c 128,-1,9
 200 41 200 41 247 41 c 0,10,11
 273 41 273 41 294 50 c 1,12,13
 301 29 301 29 284 10 c 128,-1,14
 267 -9 267 -9 237 -9 c 0,0,1
EndSplineSet
EndChar
StartChar: m
Encoding: 109 109 78
Width: 786
VWidth: 1507
Flags: W
HStem: -9 21G<91.2526 114.5 367.235 390.5 643.235 666> 470 50<283.029 423.078 551.782 699.165>
Fore
446 383 m 2,0,1
 454 419 454 419 427.5 444.5 c 128,-1,2
 401 470 401 470 354 470 c 256,3,4
 307 470 307 470 269.5 444.5 c 128,-1,5
 232 419 232 419 225 383 c 2,6,-1
 154 45 l 2,7,8
 142 -9 142 -9 87 -9 c 1,9,-1
 188 466 l 2,10,11
 199 520 199 520 255 520 c 1,12,-1
 249 493 l 1,13,14
 243 490 243 490 234.5 483 c 128,-1,15
 226 476 226 476 222 472 c 1,16,-1
 226 470 l 1,17,18
 253 493 253 493 289.5 506.5 c 128,-1,19
 326 520 326 520 365 520 c 0,20,21
 405 520 405 520 437.5 505 c 128,-1,22
 470 490 470 490 487 464 c 1,23,24
 482 460 482 460 477 452.5 c 128,-1,25
 472 445 472 445 470 440 c 1,26,-1
 470 436 l 1,27,28
 496 473 496 473 542 496.5 c 128,-1,29
 588 520 588 520 641 520 c 0,30,31
 710 520 710 520 749 480 c 128,-1,32
 788 440 788 440 776 383 c 2,33,-1
 705 45 l 2,34,35
 693 -9 693 -9 639 -9 c 1,36,-1
 722 383 l 2,37,38
 730 419 730 419 703.5 444.5 c 128,-1,39
 677 470 677 470 630 470 c 256,40,41
 583 470 583 470 545.5 444.5 c 128,-1,42
 508 419 508 419 500 383 c 2,43,-1
 430 45 l 2,44,45
 418 -9 418 -9 363 -9 c 1,46,-1
 446 383 l 2,0,1
EndSplineSet
EndChar
StartChar: n
Encoding: 110 110 79
Width: 587
VWidth: 1507
Flags: W
HStem: -9 21G<91.2526 114.5 444.314 467> 470 50<330.609 451.674>
VStem: 87 484<-9 348 -251.801 -88.6415>
Fore
188 466 m 2,0,1
 199 520 199 520 255 520 c 1,2,-1
 244 472 l 1,3,4
 238 469 238 469 231.5 462 c 128,-1,5
 225 455 225 455 220 451 c 1,6,-1
 220 446 l 1,7,8
 255 481 255 481 303 500.5 c 128,-1,9
 351 520 351 520 404 520 c 0,10,11
 446 520 446 520 480 506.5 c 128,-1,12
 514 493 514 493 536.5 469.5 c 128,-1,13
 559 446 559 446 569 415 c 128,-1,14
 579 384 579 384 571 348 c 2,15,-1
 506 45 l 2,16,17
 494 -9 494 -9 440 -9 c 1,18,-1
 517 348 l 2,19,20
 522 372 522 372 515.5 394 c 128,-1,21
 509 416 509 416 492.5 433.5 c 128,-1,22
 476 451 476 451 450.5 460.5 c 128,-1,23
 425 470 425 470 393 470 c 256,24,25
 362 470 362 470 332.5 460.5 c 128,-1,26
 303 451 303 451 279 433.5 c 128,-1,27
 255 416 255 416 239 394 c 128,-1,28
 223 372 223 372 219 348 c 2,29,-1
 154 45 l 2,30,31
 142 -9 142 -9 87 -9 c 1,32,-1
 188 466 l 2,0,1
EndSplineSet
EndChar
StartChar: o
Encoding: 111 111 80
Width: 649
VWidth: 1507
Flags: W
HStem: -9 50<249.377 421.258> 470 50<334.227 506.588>
Fore
113 255 m 256,0,1
 125 309 125 309 156 357 c 128,-1,2
 187 405 187 405 230.5 441.5 c 128,-1,3
 274 478 274 478 327 499 c 128,-1,4
 380 520 380 520 434 520 c 256,5,6
 488 520 488 520 532 499 c 128,-1,7
 576 478 576 478 604.5 441.5 c 128,-1,8
 633 405 633 405 643.5 357 c 128,-1,9
 654 309 654 309 642 255 c 256,10,11
 630 200 630 200 599 152 c 128,-1,12
 568 104 568 104 524.5 68 c 128,-1,13
 481 32 481 32 428 11.5 c 128,-1,14
 375 -9 375 -9 321 -9 c 256,15,16
 267 -9 267 -9 223 11.5 c 128,-1,17
 179 32 179 32 150.5 68 c 128,-1,18
 122 104 122 104 111.5 152 c 128,-1,19
 101 200 101 200 113 255 c 256,0,1
167 255 m 256,20,21
 158 210 158 210 166.5 171.5 c 128,-1,22
 175 133 175 133 197 103.5 c 128,-1,23
 219 74 219 74 253.5 57.5 c 128,-1,24
 288 41 288 41 332 41 c 256,25,26
 375 41 375 41 417.5 57.5 c 128,-1,27
 460 74 460 74 494.5 103.5 c 128,-1,28
 529 133 529 133 554 171.5 c 128,-1,29
 579 210 579 210 588 255 c 256,30,31
 597 300 597 300 589.5 339 c 128,-1,32
 582 378 582 378 559.5 407.5 c 128,-1,33
 537 437 537 437 502 453.5 c 128,-1,34
 467 470 467 470 424 470 c 256,35,36
 380 470 380 470 338.5 453.5 c 128,-1,37
 297 437 297 437 261.5 407.5 c 128,-1,38
 226 378 226 378 201 339 c 128,-1,39
 176 300 176 300 167 255 c 256,20,21
EndSplineSet
EndChar
StartChar: p
Encoding: 112 112 81
Width: 572
VWidth: 1507
Flags: W
HStem: -214 21G<48.2353 71> -9 50<219.038 354.934> 470 50<330.609 451.674>
Fore
178 161 m 2,0,1
 167 113 167 113 202 77 c 128,-1,2
 237 41 237 41 301 41 c 0,3,4
 333 41 333 41 362.5 50.5 c 128,-1,5
 392 60 392 60 416 76.5 c 128,-1,6
 440 93 440 93 456 115 c 128,-1,7
 472 137 472 137 476 161 c 2,8,-1
 517 348 l 2,9,10
 522 372 522 372 515.5 394 c 128,-1,11
 509 416 509 416 492.5 433.5 c 128,-1,12
 476 451 476 451 450.5 460.5 c 128,-1,13
 425 470 425 470 393 470 c 256,14,15
 362 470 362 470 332.5 460.5 c 128,-1,16
 303 451 303 451 279 433.5 c 128,-1,17
 255 416 255 416 239 394 c 128,-1,18
 223 372 223 372 219 348 c 2,19,-1
 178 161 l 2,0,1
188 466 m 2,20,21
 199 520 199 520 255 520 c 1,22,-1
 244 472 l 1,23,24
 238 469 238 469 231.5 462 c 128,-1,25
 225 455 225 455 220 451 c 1,26,-1
 220 446 l 1,27,28
 255 481 255 481 303 500.5 c 128,-1,29
 351 520 351 520 404 520 c 0,30,31
 446 520 446 520 480 506.5 c 128,-1,32
 514 493 514 493 536.5 469.5 c 128,-1,33
 559 446 559 446 569 415 c 128,-1,34
 579 384 579 384 571 348 c 2,35,-1
 531 161 l 2,36,37
 523 125 523 125 500.5 94 c 128,-1,38
 478 63 478 63 445.5 40.5 c 128,-1,39
 413 18 413 18 373 4.5 c 128,-1,40
 333 -9 333 -9 291 -9 c 0,41,42
 238 -9 238 -9 199 10.5 c 128,-1,43
 160 30 160 30 140 65 c 1,44,-1
 137 60 l 1,45,46
 143 48 143 48 152 39 c 1,47,-1
 110 -160 l 2,48,49
 98 -214 98 -214 44 -214 c 1,50,-1
 188 466 l 2,20,21
EndSplineSet
EndChar
StartChar: q
Encoding: 113 113 82
Width: 572
VWidth: 1507
Flags: W
HStem: -214 21G<385.348 408.5> -9 50<204.106 349.309> 470 50<324.983 436.501>
VStem: 109 483<161 520 -61.829 0.752939>
Fore
502 348 m 2,0,1
 506 372 506 372 500 394 c 128,-1,2
 494 416 494 416 477.5 433.5 c 128,-1,3
 461 451 461 451 435.5 460.5 c 128,-1,4
 410 470 410 470 378 470 c 256,5,6
 347 470 347 470 317.5 460.5 c 128,-1,7
 288 451 288 451 264 433.5 c 128,-1,8
 240 416 240 416 224 394 c 128,-1,9
 208 372 208 372 203 348 c 2,10,-1
 163 161 l 2,11,12
 152 113 152 113 187 77 c 128,-1,13
 222 41 222 41 286 41 c 0,14,15
 318 41 318 41 347.5 50.5 c 128,-1,16
 377 60 377 60 401 76.5 c 128,-1,17
 425 93 425 93 441 115 c 128,-1,18
 457 137 457 137 461 161 c 2,19,-1
 502 348 l 2,0,1
436 39 m 1,20,21
 442 42 442 42 448.5 49 c 128,-1,22
 455 56 455 56 460 60 c 1,23,-1
 460 65 l 1,24,25
 425 30 425 30 377 10.5 c 128,-1,26
 329 -9 329 -9 276 -9 c 0,27,28
 234 -9 234 -9 199 4.5 c 128,-1,29
 164 18 164 18 141.5 40.5 c 128,-1,30
 119 63 119 63 110 94 c 128,-1,31
 101 125 101 125 109 161 c 2,32,-1
 149 348 l 2,33,34
 157 384 157 384 179.5 415 c 128,-1,35
 202 446 202 446 234.5 469.5 c 128,-1,36
 267 493 267 493 307 506.5 c 128,-1,37
 347 520 347 520 389 520 c 0,38,39
 442 520 442 520 481 500.5 c 128,-1,40
 520 481 520 481 540 446 c 1,41,-1
 543 451 l 1,42,43
 537 463 537 463 528 472 c 1,44,45
 534 494 534 494 548 507 c 128,-1,46
 562 520 562 520 592 520 c 1,47,-1
 448 -160 l 2,48,49
 436 -214 436 -214 381 -214 c 1,50,-1
 436 39 l 1,20,21
EndSplineSet
EndChar
StartChar: r
Encoding: 114 114 83
Width: 378
VWidth: 1507
Flags: W
HStem: -9 529<87 457 236.45 242.902>
Fore
457 514 m 1,0,1
 442 466 442 466 393 470 c 0,2,3
 362 470 362 470 332.5 460.5 c 128,-1,4
 303 451 303 451 279 433.5 c 128,-1,5
 255 416 255 416 239 394 c 128,-1,6
 223 372 223 372 219 348 c 2,7,-1
 154 45 l 2,8,9
 142 -9 142 -9 87 -9 c 1,10,-1
 188 466 l 2,11,12
 199 520 199 520 255 520 c 1,13,-1
 244 469 l 1,14,15
 229 455 229 455 219 443 c 1,16,-1
 219 439 l 1,17,18
 255 478 255 478 303 499 c 128,-1,19
 351 520 351 520 404 520 c 0,20,21
 418 520 418 520 431.5 518.5 c 128,-1,22
 445 517 445 517 457 514 c 1,0,1
EndSplineSet
EndChar
StartChar: s
Encoding: 115 115 84
Width: 495
VWidth: 1507
Flags: W
HStem: -9 50<199.801 308.92> 470 50<295.04 406.969>
VStem: 74 55<84.603 160.979>
Fore
506 377 m 0,0,1
 503 348 503 348 484.5 334 c 128,-1,2
 466 320 466 320 440 323 c 1,3,4
 454 351 454 351 452.5 377.5 c 128,-1,5
 451 404 451 404 437.5 424.5 c 128,-1,6
 424 445 424 445 400.5 457.5 c 128,-1,7
 377 470 377 470 347 470 c 256,8,9
 317 470 317 470 291 461 c 128,-1,10
 265 452 265 452 245 438 c 128,-1,11
 225 424 225 424 212 405 c 128,-1,12
 199 386 199 386 197 368 c 0,13,14
 194 332 194 332 221.5 316.5 c 128,-1,15
 249 301 249 301 312 288 c 0,16,17
 353 279 353 279 387 270.5 c 128,-1,18
 421 262 421 262 444 248.5 c 128,-1,19
 467 235 467 235 477.5 214.5 c 128,-1,20
 488 194 488 194 484 161 c 256,21,22
 479 128 479 128 457.5 97 c 128,-1,23
 436 66 436 66 402.5 43 c 128,-1,24
 369 20 369 20 327.5 5.5 c 128,-1,25
 286 -9 286 -9 244 -9 c 0,26,27
 169 -9 169 -9 120.5 31 c 128,-1,28
 72 71 72 71 74 133 c 0,29,30
 75 158 75 158 92 174 c 128,-1,31
 109 190 109 190 139 187 c 1,32,33
 124 155 124 155 129 128.5 c 128,-1,34
 134 102 134 102 152 82.5 c 128,-1,35
 170 63 170 63 197.5 52 c 128,-1,36
 225 41 225 41 255 41 c 0,37,38
 286 41 286 41 316.5 50.5 c 128,-1,39
 347 60 347 60 371 76.5 c 128,-1,40
 395 93 395 93 411 114.5 c 128,-1,41
 427 136 427 136 430 158 c 0,42,43
 434 193 434 193 395 209 c 128,-1,44
 356 225 356 225 292 238 c 0,45,46
 208 255 208 255 172 277.5 c 128,-1,47
 136 300 136 300 143 362 c 0,48,49
 146 392 146 392 164 420.5 c 128,-1,50
 182 449 182 449 211 471 c 128,-1,51
 240 493 240 493 277 506.5 c 128,-1,52
 314 520 314 520 357 520 c 0,53,54
 436 520 436 520 472.5 479.5 c 128,-1,55
 509 439 509 439 506 377 c 0,0,1
EndSplineSet
EndChar
StartChar: t
Encoding: 116 116 85
Width: 301
VWidth: 1507
Flags: W
HStem: -9 50<198.101 297.292> 461 50<124.15 200 265 347.496 113 360 173 173> 705 20G<283 306.701>
Fore
249 -9 m 0,0,1
 179 -9 179 -9 148.5 31 c 128,-1,2
 118 71 118 71 130 128 c 2,3,-1
 200 461 l 1,4,-1
 113 461 l 1,5,6
 122 511 122 511 173 511 c 2,7,-1
 211 511 l 1,8,-1
 244 671 l 2,9,10
 255 725 255 725 311 725 c 1,11,-1
 265 511 l 1,12,-1
 360 511 l 1,13,14
 348 461 348 461 300 461 c 2,15,-1
 255 461 l 1,16,-1
 184 128 l 2,17,18
 176 92 176 92 194.5 66.5 c 128,-1,19
 213 41 213 41 259 41 c 0,20,21
 285 41 285 41 306 50 c 1,22,23
 314 29 314 29 296.5 10 c 128,-1,24
 279 -9 279 -9 249 -9 c 0,0,1
EndSplineSet
EndChar
StartChar: u
Encoding: 117 117 86
Width: 587
VWidth: 1507
Flags: W
HStem: -9 50<243.375 364.309> 500 20G<227 250.686 579.5 602.747>
VStem: 124 483<163 520 307.317 472.831>
Fore
506 45 m 2,0,1
 494 -9 494 -9 440 -9 c 1,2,-1
 451 39 l 1,3,4
 457 42 457 42 463.5 49 c 128,-1,5
 470 56 470 56 475 60 c 1,6,-1
 475 65 l 1,7,8
 440 30 440 30 392 10.5 c 128,-1,9
 344 -9 344 -9 291 -9 c 0,10,11
 249 -9 249 -9 214 4.5 c 128,-1,12
 179 18 179 18 156.5 41.5 c 128,-1,13
 134 65 134 65 125 96 c 128,-1,14
 116 127 116 127 124 163 c 2,15,-1
 188 466 l 2,16,17
 199 520 199 520 255 520 c 1,18,-1
 178 163 l 2,19,20
 173 139 173 139 179 117 c 128,-1,21
 185 95 185 95 202 77.5 c 128,-1,22
 219 60 219 60 244.5 50.5 c 128,-1,23
 270 41 270 41 301 41 c 256,24,25
 333 41 333 41 362.5 50.5 c 128,-1,26
 392 60 392 60 416 77.5 c 128,-1,27
 440 95 440 95 456 117 c 128,-1,28
 472 139 472 139 476 163 c 2,29,-1
 541 466 l 2,30,31
 552 520 552 520 607 520 c 1,32,-1
 506 45 l 2,0,1
EndSplineSet
EndChar
StartChar: v
Encoding: 118 118 87
Width: 506
VWidth: 1507
Flags: W
HStem: -9 21G<240.5 259>
VStem: 131 461<515 515 256.622 508.646>
Fore
250 -9 m 0,0,1
 231 -9 231 -9 231 8 c 1,2,-1
 131 515 l 1,3,4
 155 525 155 525 171 516.5 c 128,-1,5
 187 508 187 508 190 488 c 2,6,-1
 267 83 l 1,7,-1
 252 53 l 1,8,-1
 252 48 l 1,9,-1
 522 488 l 2,10,11
 534 508 534 508 553.5 516.5 c 128,-1,12
 573 525 573 525 592 515 c 1,13,-1
 279 8 l 2,14,15
 268 -9 268 -9 250 -9 c 0,0,1
EndSplineSet
EndChar
StartChar: w
Encoding: 119 119 88
Width: 729
VWidth: 1507
Flags: W
HStem: -9 21G<218 247.773 484.789 497.5>
Fore
439 366 m 1,0,-1
 237 -9 l 1,1,2
 199 -9 199 -9 194 32 c 2,3,-1
 131 515 l 1,4,5
 182 531 182 531 188 484 c 2,6,-1
 238 92 l 1,7,-1
 226 63 l 1,8,-1
 228 59 l 1,9,-1
 433 446 l 2,10,11
 445 466 445 466 463 466 c 256,12,13
 481 466 481 466 484 446 c 2,14,-1
 522 92 l 1,15,-1
 509 63 l 1,16,-1
 511 59 l 1,17,-1
 746 484 l 2,18,19
 772 532 772 532 815 515 c 1,20,-1
 547 32 l 2,21,22
 535 12 535 12 521.5 1.5 c 128,-1,23
 508 -9 508 -9 487 -9 c 1,24,-1
 442 398 l 1,25,-1
 439 393 l 1,26,-1
 439 366 l 1,0,-1
EndSplineSet
EndChar
StartChar: x
Encoding: 120 120 89
Width: 509
VWidth: 1507
Flags: W
Fore
487 5 m 1,0,1
 442 -26 442 -26 419 14 c 2,2,-1
 303 231 l 1,3,-1
 93 14 l 2,4,5
 56 -27 56 -27 23 5 c 1,6,-1
 280 273 l 1,7,-1
 154 508 l 1,8,9
 199 537 199 537 223 497 c 2,10,-1
 321 315 l 1,11,-1
 497 497 l 2,12,13
 535 538 535 538 570 508 c 1,14,-1
 344 273 l 1,15,-1
 487 5 l 1,0,1
EndSplineSet
EndChar
StartChar: y
Encoding: 121 121 90
Width: 506
VWidth: 1507
Flags: W
Fore
41 -211 m 0,0,1
 -18 -225 -18 -225 -14 -170 c 1,2,3
 -3 -170 -3 -170 4.5 -169.5 c 128,-1,4
 12 -169 12 -169 24 -166 c 0,5,6
 81 -154 81 -154 119.5 -125 c 128,-1,7
 158 -96 158 -96 194 -39 c 2,8,-1
 229 15 l 1,9,-1
 131 515 l 1,10,11
 155 525 155 525 171 516.5 c 128,-1,12
 187 508 187 508 190 488 c 2,13,-1
 267 83 l 1,14,-1
 252 53 l 1,15,-1
 252 48 l 1,16,-1
 522 488 l 2,17,18
 534 508 534 508 553.5 516.5 c 128,-1,19
 573 525 573 525 592 515 c 1,20,-1
 240 -54 l 2,21,22
 197 -122 197 -122 151.5 -159 c 128,-1,23
 106 -196 106 -196 41 -211 c 0,0,1
EndSplineSet
EndChar
StartChar: z
Encoding: 122 122 91
Width: 455
VWidth: 1507
Flags: W
HStem: 0 50<112 432.334> 461 50<131 452>
Fore
170 461 m 2,0,1
 119 461 119 461 131 511 c 1,2,-1
 514 511 l 2,3,4
 531 511 531 511 535.5 495 c 128,-1,5
 540 479 540 479 525 466 c 2,6,-1
 84 29 l 1,7,-1
 89 30 l 1,8,-1
 112 50 l 1,9,-1
 393 50 l 2,10,11
 442 50 442 50 433 0 c 1,12,-1
 50 0 l 2,13,14
 33 0 33 0 28 16 c 128,-1,15
 23 32 23 32 38 45 c 2,16,-1
 479 482 l 1,17,-1
 473 481 l 1,18,-1
 452 461 l 1,19,-1
 170 461 l 2,0,1
EndSplineSet
EndChar
StartChar: braceleft
Encoding: 123 123 92
Width: 287
VWidth: 1507
Flags: W
HStem: -128 48<184.893 196 196 267> 288 39<101.159 161.863> 695 48<344.563 441.679>
VStem: 101 351<307 743 283 354>
CounterMasks: 1 e0
Fore
101 307 m 256,0,1
 106 327 106 327 124 327 c 0,2,3
 163 327 163 327 183 352 c 128,-1,4
 203 377 203 377 213 421 c 2,5,-1
 253 612 l 2,6,7
 267 675 267 675 300 709 c 128,-1,8
 333 743 333 743 381 743 c 2,9,-1
 452 743 l 1,10,11
 443 695 443 695 393 695 c 2,12,-1
 384 695 l 2,13,14
 362 695 362 695 344 681.5 c 128,-1,15
 326 668 326 668 317 626 c 2,16,-1
 274 431 l 2,17,18
 262 374 262 374 239 346 c 128,-1,19
 216 318 216 318 175 307 c 1,20,21
 211 297 211 297 223 269 c 128,-1,22
 235 241 235 241 222 184 c 2,23,-1
 181 -11 l 2,24,25
 172 -53 172 -53 184.5 -66.5 c 128,-1,26
 197 -80 197 -80 220 -80 c 2,27,-1
 229 -80 l 2,28,29
 277 -80 277 -80 267 -128 c 1,30,-1
 196 -128 l 2,31,32
 148 -128 148 -128 129 -94 c 128,-1,33
 110 -60 110 -60 124 3 c 2,34,-1
 164 194 l 2,35,36
 173 238 173 238 163.5 263 c 128,-1,37
 154 288 154 288 115 288 c 0,38,39
 96 288 96 288 101 307 c 256,0,1
EndSplineSet
EndChar
StartChar: bar
Encoding: 124 124 93
Width: 232
VWidth: 1507
Flags: W
HStem: -157 951
Fore
247 743 m 2,0,1
 259 794 259 794 311 794 c 1,2,-1
 119 -106 l 2,3,4
 107 -157 107 -157 56 -157 c 1,5,-1
 247 743 l 2,0,1
EndSplineSet
EndChar
StartChar: asciitilde
Encoding: 126 126 95
Width: 652
VWidth: 1507
Flags: W
HStem: 235 53<428.548 574.759> 307 55<178.551 308.727>
Fore
121 265 m 1,0,1
 95 315 95 315 151 342 c 0,2,3
 199 362 199 362 255 362 c 0,4,5
 318 362 318 362 394 325 c 128,-1,6
 470 288 470 288 517 288 c 0,7,8
 591 288 591 288 662 353 c 1,9,10
 678 336 678 336 675 316.5 c 128,-1,11
 672 297 672 297 648 280 c 0,12,13
 615 256 615 256 579.5 245.5 c 128,-1,14
 544 235 544 235 506 235 c 0,15,16
 449 235 449 235 359 276 c 0,17,18
 327 292 327 292 297.5 299.5 c 128,-1,19
 268 307 268 307 243 307 c 0,20,21
 205 307 205 307 174 295 c 128,-1,22
 143 283 143 283 121 265 c 1,0,1
EndSplineSet
EndChar
StartChar: quotedbl
Encoding: 34 34 97
Width: 349
VWidth: 1507
Flags: W
HStem: 508 217<191 301 301 301>
VStem: 191 67<533.239 607.928> 323 66<532.815 603.832>
Fore
214 653 m 2,0,1
 220 690 220 690 243.5 707.5 c 128,-1,2
 267 725 267 725 301 725 c 1,3,-1
 258 565 l 2,4,5
 253 544 253 544 234.5 526 c 128,-1,6
 216 508 216 508 191 508 c 1,7,-1
 214 653 l 2,0,1
345 653 m 2,8,9
 351 690 351 690 374.5 707.5 c 128,-1,10
 398 725 398 725 433 725 c 1,11,-1
 389 565 l 2,12,13
 384 544 384 544 365.5 526 c 128,-1,14
 347 508 347 508 323 508 c 1,15,-1
 345 653 l 2,8,9
EndSplineSet
EndChar
StartChar: exclam
Encoding: 33 33 98
Width: 221
VWidth: 1507
Flags: W
HStem: -9 113<88.595 150.859> 705 20G<289 306.029>
VStem: 63 248<47 725 47 47> 63 113<22.6933 90.4514> 115 66<160.582 267.051>
Fore
205 642 m 2,0,1
 213 681 213 681 240 703 c 128,-1,2
 267 725 267 725 311 725 c 1,3,-1
 181 202 l 2,4,5
 166 145 166 145 115 145 c 1,6,-1
 205 642 l 2,0,1
63 47 m 0,7,8
 69 71 69 71 88 87.5 c 128,-1,9
 107 104 107 104 131 104 c 256,10,11
 155 104 155 104 168.5 87.5 c 128,-1,12
 182 71 182 71 176 47 c 0,13,14
 172 23 172 23 151.5 7 c 128,-1,15
 131 -9 131 -9 107 -9 c 256,16,17
 83 -9 83 -9 71 7 c 128,-1,18
 59 23 59 23 63 47 c 0,7,8
EndSplineSet
EndChar
StartChar: exclamdown
Encoding: 161 161 100
Width: 221
VWidth: 1507
Flags: W
HStem: -214 21G<24.9331 41.5> 407 113<179.141 241.89>
VStem: 20 247<-214 464 -214 -214> 149 67<251.443 361.285> 154 113<439.21 506.884>
Fore
125 -131 m 2,0,1
 118 -170 118 -170 90.5 -192 c 128,-1,2
 63 -214 63 -214 20 -214 c 1,3,-1
 149 309 l 2,4,5
 163 366 163 366 216 366 c 1,6,-1
 125 -131 l 2,0,1
267 464 m 256,7,8
 262 440 262 440 242.5 423.5 c 128,-1,9
 223 407 223 407 199 407 c 256,10,11
 175 407 175 407 162 423.5 c 128,-1,12
 149 440 149 440 154 464 c 256,13,14
 158 488 158 488 178.5 504 c 128,-1,15
 199 520 199 520 223 520 c 256,16,17
 247 520 247 520 259 504 c 128,-1,18
 271 488 271 488 267 464 c 256,7,8
EndSplineSet
EndChar
StartChar: cent
Encoding: 162 162 101
Width: 518
VWidth: 1507
Flags: W
VStem: 502 51.5<374.629 409.086>
Fore
368 544 m 2,0,1
 378 595 378 595 430 595 c 1,2,-1
 415 519 l 1,3,4
 469 512 469 512 506 484.5 c 128,-1,5
 543 457 543 457 555 413 c 0,6,7
 558 399 558 399 553.5 387 c 128,-1,8
 549 375 549 375 540.5 367 c 128,-1,9
 532 359 532 359 521.5 353.5 c 128,-1,10
 511 348 511 348 502 348 c 1,11,12
 511 392 511 392 484 426.5 c 128,-1,13
 457 461 457 461 404 469 c 1,14,-1
 312 42 l 1,15,16
 369 50 369 50 410.5 84.5 c 128,-1,17
 452 119 452 119 461 163 c 1,18,19
 478 163 478 163 491.5 144 c 128,-1,20
 505 125 505 125 487 98 c 0,21,22
 457 54 457 54 408 26 c 128,-1,23
 359 -2 359 -2 301 -8 c 1,24,-1
 297 -33 l 2,25,26
 286 -84 286 -84 235 -84 c 1,27,-1
 250 -8 l 1,28,29
 214 -3 214 -3 184.5 11.5 c 128,-1,30
 155 26 155 26 135.5 48.5 c 128,-1,31
 116 71 116 71 108.5 99.5 c 128,-1,32
 101 128 101 128 109 161 c 2,33,-1
 149 348 l 2,34,35
 155 381 155 381 175.5 410.5 c 128,-1,36
 196 440 196 440 224.5 462.5 c 128,-1,37
 253 485 253 485 288.5 499.5 c 128,-1,38
 324 514 324 514 363 519 c 1,39,-1
 368 544 l 2,0,1
203 348 m 2,40,-1
 163 161 l 2,41,42
 154 118 154 118 181 84 c 128,-1,43
 208 50 208 50 261 42 c 1,44,-1
 353 469 l 1,45,46
 295 461 295 461 254 426.5 c 128,-1,47
 213 392 213 392 203 348 c 2,40,-1
EndSplineSet
EndChar
StartChar: sterling
Encoding: 163 163 102
Width: 575
VWidth: 1507
Flags: W
HStem: 0 54<184 527.969> 332 54<145.438 265 326 487.094> 672 53<439.74 591.512>
Fore
131 332 m 1,0,1
 142 386 142 386 197 386 c 2,2,-1
 270 386 l 1,3,4
 273 421 273 421 276.5 453 c 128,-1,5
 280 485 280 485 288 520 c 0,6,7
 297 565 297 565 320.5 603 c 128,-1,8
 344 641 344 641 375.5 668 c 128,-1,9
 407 695 407 695 447 710 c 128,-1,10
 487 725 487 725 531 725 c 0,11,12
 570 725 570 725 597 716 c 128,-1,13
 624 707 624 707 638 692 c 0,14,15
 650 680 650 680 645.5 662.5 c 128,-1,16
 641 645 641 645 627 635 c 1,17,18
 594 672 594 672 514 672 c 0,19,20
 446 672 446 672 404 631.5 c 128,-1,21
 362 591 362 591 347 519 c 0,22,23
 341 494 341 494 335.5 459 c 128,-1,24
 330 424 330 424 326 386 c 1,25,-1
 502 386 l 1,26,27
 490 332 490 332 436 332 c 2,28,-1
 320 332 l 1,29,30
 317 297 317 297 314 270 c 128,-1,31
 311 243 311 243 307 231 c 0,32,33
 294 166 294 166 264 125 c 128,-1,34
 234 84 234 84 184 54 c 1,35,-1
 485 54 l 2,36,37
 540 54 540 54 529 0 c 1,38,-1
 77 0 l 1,39,40
 84 39 84 39 112 56 c 0,41,42
 130 66 130 66 151.5 82 c 128,-1,43
 173 98 173 98 193 119 c 128,-1,44
 213 140 213 140 228.5 165.5 c 128,-1,45
 244 191 244 191 250 220 c 256,46,47
 256 249 256 249 259 276.5 c 128,-1,48
 262 304 262 304 265 332 c 1,49,-1
 131 332 l 1,0,1
EndSplineSet
EndChar
StartChar: currency
Encoding: 164 164 103
Width: 743
VWidth: 1507
Flags: W
HStem: 78 53<312.95 484.789> 586 55<410.226 579.086>
Fore
190 187 m 1,0,1
 145 262 145 262 166 359 c 0,2,3
 176 405 176 405 199.5 450.5 c 128,-1,4
 223 496 223 496 264 534 c 1,5,-1
 216 595 l 1,6,-1
 271 642 l 1,7,-1
 320 579 l 1,8,9
 363 609 363 609 413 625 c 128,-1,10
 463 641 463 641 506 641 c 0,11,12
 604 641 604 641 669 579 c 1,13,-1
 748 642 l 1,14,-1
 781 595 l 1,15,-1
 707 534 l 1,16,17
 730 499 730 499 734.5 453 c 128,-1,18
 739 407 739 407 728 359 c 0,19,20
 719 314 719 314 695 269.5 c 128,-1,21
 671 225 671 225 633 187 c 1,22,-1
 681 124 l 1,23,-1
 627 78 l 1,24,-1
 577 143 l 1,25,26
 534 110 534 110 485 94 c 128,-1,27
 436 78 436 78 387 78 c 256,28,29
 339 78 339 78 298.5 93.5 c 128,-1,30
 258 109 258 109 228 143 c 1,31,-1
 152 78 l 1,32,-1
 116 124 l 1,33,-1
 190 187 l 1,0,1
226 359 m 256,34,35
 216 312 216 312 224 270.5 c 128,-1,36
 232 229 232 229 255.5 198 c 128,-1,37
 279 167 279 167 316 149 c 128,-1,38
 353 131 353 131 398 131 c 256,39,40
 443 131 443 131 487.5 149 c 128,-1,41
 532 167 532 167 568 198 c 128,-1,42
 604 229 604 229 630 270.5 c 128,-1,43
 656 312 656 312 666 359 c 256,44,45
 677 405 677 405 668.5 446.5 c 128,-1,46
 660 488 660 488 636.5 519 c 128,-1,47
 613 550 613 550 576.5 568 c 128,-1,48
 540 586 540 586 494 586 c 256,49,50
 449 586 449 586 404.5 568 c 128,-1,51
 360 550 360 550 324 519 c 128,-1,52
 288 488 288 488 262.5 446.5 c 128,-1,53
 237 405 237 405 226 359 c 256,34,35
EndSplineSet
EndChar
StartChar: yen
Encoding: 165 165 104
Width: 602
VWidth: 1507
Flags: W
HStem: -9 21G<272.322 298.5> 264 54<154.297 327 398 570.234> 399 55<182.828 301 491 598.375>
Fore
169 399 m 1,0,1
 179 454 179 454 234 454 c 2,2,-1
 301 454 l 1,3,-1
 166 716 l 1,4,5
 190 731 190 731 211 725.5 c 128,-1,6
 232 720 232 720 241 701 c 2,7,-1
 389 415 l 1,8,-1
 657 701 l 2,9,10
 675 720 675 720 698.5 725.5 c 128,-1,11
 722 731 722 731 739 716 c 1,12,-1
 491 454 l 1,13,-1
 613 454 l 1,14,15
 601 399 601 399 549 399 c 2,16,-1
 442 399 l 1,17,-1
 408 365 l 1,18,-1
 398 318 l 1,19,-1
 585 318 l 1,20,21
 573 264 573 264 520 264 c 2,22,-1
 387 264 l 1,23,-1
 342 51 l 2,24,25
 329 -9 329 -9 268 -9 c 1,26,-1
 327 264 l 1,27,-1
 140 264 l 1,28,29
 151 318 151 318 205 318 c 2,30,-1
 338 318 l 1,31,-1
 348 365 l 1,32,-1
 330 399 l 1,33,-1
 169 399 l 1,0,1
EndSplineSet
EndChar
StartChar: brokenbar
Encoding: 166 166 105
Width: 232
VWidth: 1507
Flags: W
VStem: 56 255<-157 794 -218 -157>
Fore
247 743 m 2,0,1
 259 794 259 794 311 794 c 1,2,-1
 231 424 l 2,3,4
 222 372 222 372 169 372 c 1,5,-1
 247 743 l 2,0,1
136 214 m 2,6,7
 145 265 145 265 197 265 c 1,8,-1
 119 -106 l 2,9,10
 107 -157 107 -157 56 -157 c 1,11,-1
 136 214 l 2,6,7
EndSplineSet
EndChar
StartChar: section
Encoding: 167 167 106
Width: 592
VWidth: 1507
Flags: W
HStem: -9 51<219.96 388.986> 678 47<360.46 515.69>
VStem: 160 429<18 669 18 18>
Fore
574 345 m 0,0,1
 567 307 567 307 544.5 278 c 128,-1,2
 522 249 522 249 488 223 c 1,3,4
 497 211 497 211 503 188.5 c 128,-1,5
 509 166 509 166 503 139 c 0,6,7
 488 68 488 68 424 29.5 c 128,-1,8
 360 -9 360 -9 276 -9 c 0,9,10
 240 -9 240 -9 208 -1.5 c 128,-1,11
 176 6 176 6 160 18 c 0,12,13
 128 45 128 45 161 87 c 1,14,15
 178 66 178 66 209.5 54 c 128,-1,16
 241 42 241 42 289 42 c 0,17,18
 350 42 350 42 393.5 65.5 c 128,-1,19
 437 89 437 89 446 133 c 0,20,21
 455 173 455 173 430 198 c 128,-1,22
 405 223 405 223 326 249 c 0,23,24
 240 276 240 276 201.5 308.5 c 128,-1,25
 163 341 163 341 175 401 c 0,26,27
 181 427 181 427 200 454.5 c 128,-1,28
 219 482 219 482 265 512 c 1,29,30
 253 526 253 526 250 545.5 c 128,-1,31
 247 565 247 565 252 586 c 0,32,33
 265 650 265 650 325.5 687.5 c 128,-1,34
 386 725 386 725 467 725 c 0,35,36
 502 725 502 725 533.5 717.5 c 128,-1,37
 565 710 565 710 582 695 c 0,38,39
 592 687 592 687 589 669 c 128,-1,40
 586 651 586 651 574 639 c 1,41,42
 555 653 555 653 523 665.5 c 128,-1,43
 491 678 491 678 449 678 c 0,44,45
 399 678 399 678 358.5 655.5 c 128,-1,46
 318 633 318 633 311 595 c 0,47,48
 303 555 303 555 340.5 533.5 c 128,-1,49
 378 512 378 512 442 493 c 0,50,51
 475 481 475 481 502 468 c 128,-1,52
 529 455 529 455 547 438 c 128,-1,53
 565 421 565 421 572.5 398 c 128,-1,54
 580 375 580 375 574 345 c 0,0,1
512 338 m 0,55,56
 520 368 520 368 499.5 393.5 c 128,-1,57
 479 419 479 419 421 440 c 0,58,59
 393 449 393 449 359.5 462 c 128,-1,60
 326 475 326 475 303 488 c 1,61,62
 273 467 273 467 255 444.5 c 128,-1,63
 237 422 237 422 232 404 c 0,64,65
 228 378 228 378 248 351 c 128,-1,66
 268 324 268 324 345 300 c 0,67,68
 389 283 389 283 414 272.5 c 128,-1,69
 439 262 439 262 455 252 c 1,70,71
 476 270 476 270 492 292.5 c 128,-1,72
 508 315 508 315 512 338 c 0,55,56
EndSplineSet
EndChar
StartChar: dieresis
Encoding: 168 168 107
Width: 324
VWidth: 1507
Flags: W
HStem: 606 102<173.563 230.437 371.563 427.437>
VStem: 151 102<621.47 692.53> 348 103<641.096 696.761>
Fore
151 657 m 256,0,1
 155 678 155 678 173 693 c 128,-1,2
 191 708 191 708 213 708 c 256,3,4
 234 708 234 708 246 693 c 128,-1,5
 258 678 258 678 253 657 c 256,6,7
 249 636 249 636 231 621 c 128,-1,8
 213 606 213 606 191 606 c 256,9,10
 170 606 170 606 158 621 c 128,-1,11
 146 636 146 636 151 657 c 256,0,1
348 657 m 256,12,13
 353 678 353 678 371 693 c 128,-1,14
 389 708 389 708 410 708 c 256,15,16
 431 708 431 708 443 693 c 128,-1,17
 455 678 455 678 451 657 c 256,18,19
 446 636 446 636 428 621 c 128,-1,20
 410 606 410 606 389 606 c 256,21,22
 368 606 368 606 356 621 c 128,-1,23
 344 636 344 636 348 657 c 256,12,13
EndSplineSet
EndChar
StartChar: copyright
Encoding: 169 169 108
Width: 824
VWidth: 1507
Flags: W
HStem: -9 48<310.128 538.218> 142 45<398.17 509.563> 531 43<475.22 594.778> 677 48<436.055 665.287>
Fore
121 357 m 256,0,1
 137 434 137 434 180 501 c 128,-1,2
 223 568 223 568 283.5 618 c 128,-1,3
 344 668 344 668 416 696.5 c 128,-1,4
 488 725 488 725 565 725 c 256,5,6
 642 725 642 725 702.5 696.5 c 128,-1,7
 763 668 763 668 803 618 c 128,-1,8
 843 568 843 568 857 501 c 128,-1,9
 871 434 871 434 855 357 c 256,10,11
 838 280 838 280 795 214 c 128,-1,12
 752 148 752 148 692 98 c 128,-1,13
 632 48 632 48 558.5 19.5 c 128,-1,14
 485 -9 485 -9 408 -9 c 256,15,16
 332 -9 332 -9 271.5 19.5 c 128,-1,17
 211 48 211 48 172 98 c 128,-1,18
 133 148 133 148 118.5 214 c 128,-1,19
 104 280 104 280 121 357 c 256,0,1
175 356 m 256,20,21
 161 289 161 289 173 232 c 128,-1,22
 185 175 185 175 218.5 132 c 128,-1,23
 252 89 252 89 303 64 c 128,-1,24
 354 39 354 39 419 39 c 256,25,26
 484 39 484 39 546.5 64 c 128,-1,27
 609 89 609 89 661 132 c 128,-1,28
 713 175 713 175 750 232 c 128,-1,29
 787 289 787 289 800 356 c 256,30,31
 814 422 814 422 802 481 c 128,-1,32
 790 540 790 540 757 583.5 c 128,-1,33
 724 627 724 627 672 652 c 128,-1,34
 620 677 620 677 555 677 c 256,35,36
 490 677 490 677 428 652 c 128,-1,37
 366 627 366 627 314 583.5 c 128,-1,38
 262 540 262 540 225 481 c 128,-1,39
 188 422 188 422 175 356 c 256,20,21
528 531 m 256,40,41
 479 531 479 531 439 502 c 128,-1,42
 399 473 399 473 392 436 c 2,43,-1
 359 282 l 2,44,45
 351 243 351 243 379 215 c 128,-1,46
 407 187 407 187 455 187 c 0,47,48
 479 187 479 187 502.5 195 c 128,-1,49
 526 203 526 203 545 217 c 128,-1,50
 564 231 564 231 577.5 249 c 128,-1,51
 591 267 591 267 595 288 c 1,52,53
 621 291 621 291 632.5 278 c 128,-1,54
 644 265 644 265 630 238 c 0,55,56
 603 191 603 191 549.5 166.5 c 128,-1,57
 496 142 496 142 445 142 c 0,58,59
 416 142 416 142 388 151 c 128,-1,60
 360 160 360 160 340 178 c 128,-1,61
 320 196 320 196 309 222.5 c 128,-1,62
 298 249 298 249 306 282 c 2,63,-1
 339 436 l 2,64,65
 345 467 345 467 366 493 c 128,-1,66
 387 519 387 519 415 537 c 128,-1,67
 443 555 443 555 474.5 564.5 c 128,-1,68
 506 574 506 574 537 574 c 0,69,70
 588 574 588 574 631 550 c 128,-1,71
 674 526 674 526 681 479 c 0,72,73
 684 451 684 451 667 439 c 128,-1,74
 650 427 650 427 626 430 c 1,75,76
 635 469 635 469 605.5 500 c 128,-1,77
 576 531 576 531 528 531 c 256,40,41
EndSplineSet
EndChar
StartChar: ordfeminine
Encoding: 170 170 109
Width: 409
VWidth: 1507
Flags: W
HStem: 311 45<182.125 320.789> 534 45<236.202 354.448> 675 45<249.156 373.174>
VStem: 109 349<443 588 404.167 493.174>
Fore
250 356 m 0,0,1
 298 356 298 356 333.5 382 c 128,-1,2
 369 408 369 408 377 443 c 0,3,4
 384 479 384 479 360 506.5 c 128,-1,5
 336 534 336 534 288 534 c 0,6,7
 241 534 241 534 204 506.5 c 128,-1,8
 167 479 167 479 160 443 c 0,9,10
 152 408 152 408 177.5 382 c 128,-1,11
 203 356 203 356 250 356 c 0,0,1
407 588 m 2,12,13
 415 623 415 623 390 649 c 128,-1,14
 365 675 365 675 318 675 c 0,15,16
 282 675 282 675 245 652.5 c 128,-1,17
 208 630 208 630 185 600 c 1,18,19
 170 612 170 612 169.5 630 c 128,-1,20
 169 648 169 648 185 663 c 0,21,22
 214 692 214 692 251 706 c 128,-1,23
 288 720 288 720 327 720 c 0,24,25
 356 720 356 720 382 711 c 128,-1,26
 408 702 408 702 427 685 c 128,-1,27
 446 668 446 668 455 643 c 128,-1,28
 464 618 464 618 458 588 c 2,29,-1
 410 356 l 2,30,31
 401 311 401 311 348 311 c 1,32,-1
 354 339 l 1,33,34
 368 348 368 348 380 360 c 1,35,-1
 380 365 l 1,36,37
 353 339 353 339 316 325 c 128,-1,38
 279 311 279 311 240 311 c 0,39,40
 173 311 173 311 134.5 349 c 128,-1,41
 96 387 96 387 109 443 c 0,42,43
 115 470 115 470 132 495 c 128,-1,44
 149 520 149 520 174.5 539 c 128,-1,45
 200 558 200 558 232 568.5 c 128,-1,46
 264 579 264 579 297 579 c 0,47,48
 336 579 336 579 366 564.5 c 128,-1,49
 396 550 396 550 413 525 c 1,50,-1
 416 529 l 1,51,52
 407 543 407 543 399 550 c 1,53,-1
 407 588 l 2,12,13
EndSplineSet
EndChar
StartChar: logicalnot
Encoding: 172 172 111
Width: 602
VWidth: 1507
Flags: W
HStem: 182 233<583 593.849> 363 52<134.151 583>
Fore
645 415 m 1,0,-1
 606 234 l 2,1,2
 597 182 597 182 544 182 c 1,3,-1
 583 363 l 1,4,-1
 122 363 l 1,5,6
 131 415 131 415 184 415 c 2,7,-1
 645 415 l 1,0,-1
EndSplineSet
EndChar
StartChar: registered
Encoding: 174 174 112
Width: 822
VWidth: 1507
Flags: W
HStem: -9 48<310.128 538.218> 335 45<383 586.56> 522 43<413 623.184> 677 48<436.055 665.287>
Fore
556 380 m 2,0,1
 582 380 582 380 604.5 403.5 c 128,-1,2
 627 427 627 427 632 451 c 0,3,4
 638 476 638 476 625 499 c 128,-1,5
 612 522 612 522 586 522 c 2,6,-1
 413 522 l 1,7,-1
 383 380 l 1,8,-1
 556 380 l 2,0,1
341 184 m 2,9,10
 333 143 333 143 282 143 c 1,11,-1
 366 543 l 2,12,13
 369 552 369 552 376.5 558.5 c 128,-1,14
 384 565 384 565 396 565 c 2,15,-1
 595 565 l 2,16,17
 644 565 644 565 668 531 c 128,-1,18
 692 497 692 497 681 451 c 0,19,20
 675 425 675 425 657 399.5 c 128,-1,21
 639 374 639 374 613 357 c 1,22,23
 657 329 657 329 645 264 c 2,24,-1
 627 184 l 2,25,26
 620 143 620 143 568 143 c 1,27,-1
 594 264 l 2,28,29
 601 298 601 298 587 316.5 c 128,-1,30
 573 335 573 335 547 335 c 2,31,-1
 374 335 l 1,32,-1
 341 184 l 2,9,10
121 357 m 256,33,34
 137 434 137 434 180 501 c 128,-1,35
 223 568 223 568 283.5 618 c 128,-1,36
 344 668 344 668 416 696.5 c 128,-1,37
 488 725 488 725 565 725 c 256,38,39
 642 725 642 725 702.5 696.5 c 128,-1,40
 763 668 763 668 803 618 c 128,-1,41
 843 568 843 568 857 501 c 128,-1,42
 871 434 871 434 855 357 c 256,43,44
 838 280 838 280 795 214 c 128,-1,45
 752 148 752 148 692 98 c 128,-1,46
 632 48 632 48 558.5 19.5 c 128,-1,47
 485 -9 485 -9 408 -9 c 256,48,49
 332 -9 332 -9 271.5 19.5 c 128,-1,50
 211 48 211 48 172 98 c 128,-1,51
 133 148 133 148 118.5 214 c 128,-1,52
 104 280 104 280 121 357 c 256,33,34
175 356 m 256,53,54
 161 289 161 289 173 232 c 128,-1,55
 185 175 185 175 218.5 132 c 128,-1,56
 252 89 252 89 303 64 c 128,-1,57
 354 39 354 39 419 39 c 256,58,59
 484 39 484 39 546.5 64 c 128,-1,60
 609 89 609 89 661 132 c 128,-1,61
 713 175 713 175 750 232 c 128,-1,62
 787 289 787 289 800 356 c 256,63,64
 814 422 814 422 802 481 c 128,-1,65
 790 540 790 540 757 583.5 c 128,-1,66
 724 627 724 627 672 652 c 128,-1,67
 620 677 620 677 555 677 c 256,68,69
 490 677 490 677 428 652 c 128,-1,70
 366 627 366 627 314 583.5 c 128,-1,71
 262 540 262 540 225 481 c 128,-1,72
 188 422 188 422 175 356 c 256,53,54
EndSplineSet
EndChar
StartChar: macron
Encoding: 175 175 113
Width: 325
VWidth: 1507
Flags: W
HStem: 636 48<187 416 176 427 187 187>
Fore
176 636 m 1,0,-1
 187 684 l 1,1,-1
 427 684 l 1,2,-1
 416 636 l 1,3,-1
 176 636 l 1,0,-1
EndSplineSet
EndChar
StartChar: degree
Encoding: 176 176 114
Width: 325
VWidth: 1507
Flags: W
HStem: 451 48<216.381 307.086> 677 48<263.781 354.086>
VStem: 146 278.5<616 616 588 641 588 588>
Fore
146 588 m 0,0,1
 152 616 152 616 168.5 641 c 128,-1,2
 185 666 185 666 208 685 c 128,-1,3
 231 704 231 704 258.5 714.5 c 128,-1,4
 286 725 286 725 315 725 c 256,5,6
 344 725 344 725 366.5 714.5 c 128,-1,7
 389 704 389 704 404 685 c 128,-1,8
 419 666 419 666 424.5 641 c 128,-1,9
 430 616 430 616 424 588 c 256,10,11
 418 559 418 559 402 534 c 128,-1,12
 386 509 386 509 363.5 490.5 c 128,-1,13
 341 472 341 472 313 461.5 c 128,-1,14
 285 451 285 451 256 451 c 0,15,16
 199 451 199 451 166.5 491 c 128,-1,17
 134 531 134 531 146 588 c 0,0,1
202 588 m 256,18,19
 194 550 194 550 213 524.5 c 128,-1,20
 232 499 232 499 267 499 c 256,21,22
 301 499 301 499 330.5 524.5 c 128,-1,23
 360 550 360 550 368 588 c 256,24,25
 375 626 375 626 357 651.5 c 128,-1,26
 339 677 339 677 304 677 c 256,27,28
 270 677 270 677 240 651.5 c 128,-1,29
 210 626 210 626 202 588 c 256,18,19
EndSplineSet
EndChar
StartChar: plusminus
Encoding: 177 177 115
Width: 602
VWidth: 1507
Flags: W
HStem: -2 55<67.5334 545.951> 273 51<115.191 332 396 614.162>
Fore
332 273 m 1,0,-1
 102 273 l 1,1,2
 115 324 115 324 164 324 c 2,3,-1
 342 324 l 1,4,-1
 371 457 l 2,5,6
 381 511 381 511 437 511 c 1,7,-1
 396 324 l 1,8,-1
 626 324 l 1,9,10
 616 273 616 273 564 273 c 2,11,-1
 386 273 l 1,12,-1
 357 140 l 2,13,14
 345 86 345 86 292 86 c 1,15,-1
 332 273 l 1,0,-1
45 -2 m 1,16,17
 50 24 50 24 67 38.5 c 128,-1,18
 84 53 84 53 110 53 c 2,19,-1
 568 53 l 1,20,21
 564 27 564 27 546.5 12.5 c 128,-1,22
 529 -2 529 -2 503 -2 c 2,23,-1
 45 -2 l 1,16,17
EndSplineSet
EndChar
StartChar: twosuperior
Encoding: 178 178 116
Width: 419
VWidth: 1507
Flags: W
HStem: 314 45<188 425> 677 43<304.903 404.98>
VStem: 131 353<335 595 335 335>
Fore
395 359 m 2,0,1
 434 359 434 359 425 314 c 1,2,-1
 151 314 l 2,3,4
 142 314 142 314 135 319 c 128,-1,5
 128 324 128 324 131 335 c 0,6,7
 142 386 142 386 184 429.5 c 128,-1,8
 226 473 226 473 300 502 c 0,9,10
 350 522 350 522 389 542 c 128,-1,11
 428 562 428 562 436 595 c 0,12,13
 443 627 443 627 419 652 c 128,-1,14
 395 677 395 677 353 677 c 0,15,16
 312 677 312 677 276.5 652 c 128,-1,17
 241 627 241 627 234 595 c 1,18,19
 234 592 234 592 233 587.5 c 128,-1,20
 232 583 232 583 232 571 c 1,21,22
 213 571 213 571 199 584.5 c 128,-1,23
 185 598 185 598 191 612 c 0,24,25
 202 636 202 636 221 656.5 c 128,-1,26
 240 677 240 677 263 691 c 128,-1,27
 286 705 286 705 312 712.5 c 128,-1,28
 338 720 338 720 362 720 c 0,29,30
 387 720 387 720 412 712 c 128,-1,31
 437 704 437 704 455 688 c 128,-1,32
 473 672 473 672 481.5 649 c 128,-1,33
 490 626 490 626 484 595 c 0,34,35
 479 570 479 570 462.5 549.5 c 128,-1,36
 446 529 446 529 422.5 513 c 128,-1,37
 399 497 399 497 370 484.5 c 128,-1,38
 341 472 341 472 311 460 c 0,39,40
 264 442 264 442 233 415.5 c 128,-1,41
 202 389 202 389 188 359 c 1,42,-1
 395 359 l 2,0,1
EndSplineSet
EndChar
StartChar: threesuperior
Encoding: 179 179 117
Width: 419
VWidth: 1507
Flags: W
HStem: 309 44<216.763 356.277> 509 44<312.281 380.423> 677 43<291.397 405.219>
VStem: 149 318<415 615 402.148 454.494>
Fore
217 633 m 0,0,1
 229 665 229 665 269 692.5 c 128,-1,2
 309 720 309 720 362 720 c 0,3,4
 413 720 413 720 445.5 689.5 c 128,-1,5
 478 659 478 659 467 615 c 0,6,7
 463 591 463 591 446.5 570 c 128,-1,8
 430 549 430 549 404 534 c 1,9,10
 433 517 433 517 445 490 c 128,-1,11
 457 463 457 463 449 431 c 0,12,13
 439 380 439 380 388.5 344.5 c 128,-1,14
 338 309 338 309 274 309 c 256,15,16
 211 309 211 309 177 343 c 128,-1,17
 143 377 143 377 149 415 c 0,18,19
 155 455 155 455 206 455 c 1,20,21
 203 448 203 448 201.5 442.5 c 128,-1,22
 200 437 200 437 199 431 c 0,23,24
 191 398 191 398 216 375.5 c 128,-1,25
 241 353 241 353 283 353 c 0,26,27
 324 353 324 353 358 375.5 c 128,-1,28
 392 398 392 398 399 431 c 0,29,30
 407 463 407 463 382 486 c 128,-1,31
 357 509 357 509 317 509 c 0,32,33
 292 509 292 509 295 531 c 0,34,35
 298 541 298 541 307.5 547 c 128,-1,36
 317 553 317 553 327 553 c 0,37,38
 359 553 359 553 386 571 c 128,-1,39
 413 589 413 589 418 615 c 0,40,41
 424 641 424 641 404 659 c 128,-1,42
 384 677 384 677 353 677 c 0,43,44
 320 677 320 677 293.5 659 c 128,-1,45
 267 641 267 641 261 615 c 1,46,47
 261 612 261 612 260 606.5 c 128,-1,48
 259 601 259 601 261 594 c 1,49,50
 237 591 237 591 222.5 601.5 c 128,-1,51
 208 612 208 612 217 633 c 0,0,1
EndSplineSet
EndChar
StartChar: acute
Encoding: 180 180 118
Width: 319
VWidth: 1507
Flags: W
HStem: 562 157<184 407 372 372>
Fore
295 692 m 2,0,1
 320 719 320 719 372 719 c 2,2,-1
 407 719 l 1,3,-1
 250 579 l 2,4,5
 238 570 238 570 224 566 c 128,-1,6
 210 562 210 562 184 562 c 1,7,-1
 295 692 l 2,0,1
EndSplineSet
EndChar
StartChar: mu
Encoding: 181 181 119
Width: 587
VWidth: 1507
Flags: W
HStem: -214 21G<48.2353 71> -9 50<243.417 364.309> 500 20G<227 250.686 579.5 602.747>
Fore
291 -9 m 256,0,1
 238 -9 238 -9 199 10.5 c 128,-1,2
 160 30 160 30 140 65 c 1,3,-1
 137 60 l 1,4,5
 143 48 143 48 152 39 c 1,6,-1
 110 -160 l 2,7,8
 98 -214 98 -214 44 -214 c 1,9,-1
 188 466 l 2,10,11
 199 520 199 520 255 520 c 1,12,-1
 178 163 l 2,13,14
 173 139 173 139 179 117 c 128,-1,15
 185 95 185 95 202 77.5 c 128,-1,16
 219 60 219 60 244.5 50.5 c 128,-1,17
 270 41 270 41 301 41 c 256,18,19
 333 41 333 41 362.5 50.5 c 128,-1,20
 392 60 392 60 416 77.5 c 128,-1,21
 440 95 440 95 456 117 c 128,-1,22
 472 139 472 139 476 163 c 2,23,-1
 541 466 l 2,24,25
 552 520 552 520 607 520 c 1,26,-1
 506 45 l 2,27,28
 494 -9 494 -9 440 -9 c 1,29,-1
 451 39 l 1,30,31
 457 42 457 42 463.5 49 c 128,-1,32
 470 56 470 56 475 60 c 1,33,-1
 475 65 l 1,34,35
 440 30 440 30 392 10.5 c 128,-1,36
 344 -9 344 -9 291 -9 c 256,0,1
EndSplineSet
EndChar
StartChar: paragraph
Encoding: 182 182 120
Width: 559
VWidth: 1507
Flags: W
HStem: 677 48<482 554.482>
VStem: 139 482<487 717 487 487>
Fore
451 -84 m 2,0,1
 437 -139 437 -139 381 -139 c 1,2,-1
 555 677 l 1,3,-1
 482 677 l 1,4,-1
 321 -84 l 2,5,6
 307 -139 307 -139 252 -139 c 1,7,-1
 339 271 l 1,8,-1
 333 271 l 2,9,10
 291 271 291 271 251 284.5 c 128,-1,11
 211 298 211 298 182.5 325.5 c 128,-1,12
 154 353 154 353 140.5 393 c 128,-1,13
 127 433 127 433 139 487 c 0,14,15
 148 528 148 528 169.5 570 c 128,-1,16
 191 612 191 612 233.5 646.5 c 128,-1,17
 276 681 276 681 340 703 c 128,-1,18
 404 725 404 725 497 725 c 0,19,20
 547 725 547 725 575.5 722.5 c 128,-1,21
 604 720 604 720 621 717 c 1,22,-1
 451 -84 l 2,0,1
EndSplineSet
EndChar
StartChar: periodcentered
Encoding: 183 183 121
Width: 346
VWidth: 1507
Flags: W
HStem: 200 196<189.999 280.914>
VStem: 139 196<268.721 363.004>
Fore
139 298 m 0,0,1
 146 339 146 339 181 367.5 c 128,-1,2
 216 396 216 396 256 396 c 256,3,4
 297 396 297 396 319.5 367.5 c 128,-1,5
 342 339 342 339 335 298 c 0,6,7
 326 258 326 258 291 229 c 128,-1,8
 256 200 256 200 216 200 c 256,9,10
 175 200 175 200 152.5 229 c 128,-1,11
 130 258 130 258 139 298 c 0,0,1
EndSplineSet
EndChar
StartChar: cedilla
Encoding: 184 184 122
Width: 263
VWidth: 1507
Flags: W
HStem: -211 41<13.4438 116.539>
VStem: 11 188<-146 -121 -146 -146>
Fore
199 -121 m 0,0,1
 190 -164 190 -164 150 -187.5 c 128,-1,2
 110 -211 110 -211 69 -211 c 0,3,4
 36 -211 36 -211 12 -194 c 0,5,6
 -12 -173 -12 -173 11 -146 c 1,7,8
 36 -170 36 -170 77 -170 c 0,9,10
 98 -170 98 -170 119 -159 c 128,-1,11
 140 -148 140 -148 143 -128 c 0,12,13
 149 -101 149 -101 119.5 -89.5 c 128,-1,14
 90 -78 90 -78 50 -81 c 1,15,-1
 130 11 l 1,16,-1
 175 11 l 1,17,-1
 121 -48 l 1,18,19
 160 -48 160 -48 183 -69 c 128,-1,20
 206 -90 206 -90 199 -121 c 0,0,1
EndSplineSet
EndChar
StartChar: onesuperior
Encoding: 185 185 123
Width: 419
VWidth: 1507
Flags: W
HStem: 671 45<304.8 351>
VStem: 274 133<309 690 309 309>
Fore
383 716 m 1,0,1
 395 716 395 716 402.5 708.5 c 128,-1,2
 410 701 410 701 407 690 c 2,3,-1
 336 360 l 2,4,5
 327 309 327 309 274 309 c 1,6,-1
 351 671 l 1,7,-1
 335 671 l 2,8,9
 314 671 314 671 304.5 683 c 128,-1,10
 295 695 295 695 298 716 c 1,11,-1
 383 716 l 1,0,1
EndSplineSet
EndChar
StartChar: ordmasculine
Encoding: 186 186 124
Width: 443
VWidth: 1507
Flags: W
HStem: 311 45<227.894 334.428> 675 45<295.965 424.743>
VStem: 107.5 415<436 594 436 436>
Fore
109 514 m 0,0,1
 118 556 118 556 142 594 c 128,-1,2
 166 632 166 632 200 659.5 c 128,-1,3
 234 687 234 687 274.5 703.5 c 128,-1,4
 315 720 315 720 357 720 c 0,5,6
 401 720 401 720 435.5 703.5 c 128,-1,7
 470 687 470 687 492 659.5 c 128,-1,8
 514 632 514 632 522.5 594 c 128,-1,9
 531 556 531 556 522 514 c 0,10,11
 512 473 512 473 488 436 c 128,-1,12
 464 399 464 399 430 371.5 c 128,-1,13
 396 344 396 344 355 327.5 c 128,-1,14
 314 311 314 311 270 311 c 0,15,16
 228 311 228 311 194 327.5 c 128,-1,17
 160 344 160 344 138 371.5 c 128,-1,18
 116 399 116 399 107.5 436 c 128,-1,19
 99 473 99 473 109 514 c 0,0,1
160 514 m 256,20,21
 152 481 152 481 158 452.5 c 128,-1,22
 164 424 164 424 181.5 402 c 128,-1,23
 199 380 199 380 224 368 c 128,-1,24
 249 356 249 356 280 356 c 0,25,26
 314 356 314 356 344.5 368 c 128,-1,27
 375 380 375 380 401 402 c 128,-1,28
 427 424 427 424 445 452.5 c 128,-1,29
 463 481 463 481 470 514 c 0,30,31
 485 582 485 582 450 628.5 c 128,-1,32
 415 675 415 675 348 675 c 0,33,34
 317 675 317 675 286.5 662.5 c 128,-1,35
 256 650 256 650 230.5 628 c 128,-1,36
 205 606 205 606 186 576.5 c 128,-1,37
 167 547 167 547 160 514 c 256,20,21
EndSplineSet
EndChar
StartChar: onequarter
Encoding: 188 188 126
Width: 854
VWidth: 1507
Flags: W
HStem: -5 21G<693.158 714.5> 96 46<567 710 770 826.543> 671 45<310.8 357>
Fore
389 716 m 2,0,1
 401 716 401 716 408.5 708.5 c 128,-1,2
 416 701 416 701 413 690 c 2,3,-1
 342 360 l 2,4,5
 333 309 333 309 280 309 c 1,6,-1
 357 671 l 1,7,-1
 341 671 l 2,8,9
 320 671 320 671 310.5 683 c 128,-1,10
 301 695 301 695 304 716 c 1,11,-1
 389 716 l 2,0,1
835 142 m 1,12,13
 826 96 826 96 788 96 c 2,14,-1
 761 96 l 1,15,-1
 749 36 l 2,16,17
 740 -5 740 -5 689 -5 c 1,18,-1
 710 96 l 1,19,-1
 511 96 l 2,20,21
 494 96 494 96 490.5 108.5 c 128,-1,22
 487 121 487 121 499 134 c 2,23,-1
 781 398 l 2,24,25
 796 410 796 410 810 404.5 c 128,-1,26
 824 399 824 399 821 383 c 2,27,-1
 770 142 l 1,28,-1
 835 142 l 1,12,13
719 142 m 1,29,-1
 758 320 l 1,30,-1
 567 142 l 1,31,-1
 719 142 l 1,29,-1
733 722 m 2,32,33
 767 770 767 770 811 746 c 1,34,-1
 273 -6 l 2,35,36
 237 -56 237 -56 196 -30 c 1,37,-1
 733 722 l 2,32,33
EndSplineSet
Ligature2: "'frac' Diagonal Fractions in Latin lookup 0 subtable" one fraction four
Ligature2: "'frac' Diagonal Fractions in Latin lookup 0 subtable" one slash four
EndChar
StartChar: onehalf
Encoding: 189 189 127
Width: 854
VWidth: 1507
Flags: W
HStem: 0 45<552 788> 363 44<668.016 768.313> 671 45<310.8 357>
Fore
389 716 m 2,0,1
 401 716 401 716 408.5 708.5 c 128,-1,2
 416 701 416 701 413 690 c 2,3,-1
 342 360 l 2,4,5
 333 309 333 309 280 309 c 1,6,-1
 357 671 l 1,7,-1
 341 671 l 2,8,9
 320 671 320 671 310.5 683 c 128,-1,10
 301 695 301 695 304 716 c 1,11,-1
 389 716 l 2,0,1
758 45 m 2,12,13
 797 45 797 45 788 0 c 1,14,-1
 514 0 l 2,15,16
 505 0 505 0 498 5.5 c 128,-1,17
 491 11 491 11 493 21 c 0,18,19
 505 72 505 72 547 116 c 128,-1,20
 589 160 589 160 663 188 c 0,21,22
 713 208 713 208 752 228.5 c 128,-1,23
 791 249 791 249 799 282 c 0,24,25
 806 314 806 314 782 338.5 c 128,-1,26
 758 363 758 363 716 363 c 0,27,28
 675 363 675 363 639.5 338.5 c 128,-1,29
 604 314 604 314 597 282 c 1,30,31
 597 279 597 279 596 274.5 c 128,-1,32
 595 270 595 270 595 258 c 1,33,34
 576 258 576 258 562.5 271.5 c 128,-1,35
 549 285 549 285 555 298 c 0,36,37
 565 323 565 323 584 343 c 128,-1,38
 603 363 603 363 626.5 377.5 c 128,-1,39
 650 392 650 392 675.5 399.5 c 128,-1,40
 701 407 701 407 725 407 c 0,41,42
 751 407 751 407 775.5 398.5 c 128,-1,43
 800 390 800 390 818.5 374.5 c 128,-1,44
 837 359 837 359 845 335.5 c 128,-1,45
 853 312 853 312 847 282 c 0,46,47
 835 229 835 229 785.5 199.5 c 128,-1,48
 736 170 736 170 674 146 c 0,49,50
 627 128 627 128 595.5 101.5 c 128,-1,51
 564 75 564 75 552 45 c 1,52,-1
 758 45 l 2,12,13
733 722 m 2,53,54
 767 770 767 770 811 746 c 1,55,-1
 273 -6 l 2,56,57
 237 -56 237 -56 196 -30 c 1,58,-1
 733 722 l 2,53,54
EndSplineSet
Ligature2: "'frac' Diagonal Fractions in Latin lookup 0 subtable" one fraction two
Ligature2: "'frac' Diagonal Fractions in Latin lookup 0 subtable" one slash two
EndChar
StartChar: threequarters
Encoding: 190 190 128
Width: 854
VWidth: 1507
Flags: W
HStem: -5 21G<693.158 714.5> 96 46<567 710 770 826.543> 309 44<222.763 362.277> 509 44<318.281 386.423> 677 43<297.397 411.219>
Fore
835 142 m 1,0,1
 826 96 826 96 788 96 c 2,2,-1
 761 96 l 1,3,-1
 749 36 l 2,4,5
 740 -5 740 -5 689 -5 c 1,6,-1
 710 96 l 1,7,-1
 511 96 l 2,8,9
 494 96 494 96 490.5 108.5 c 128,-1,10
 487 121 487 121 499 134 c 2,11,-1
 781 398 l 2,12,13
 796 410 796 410 810 404.5 c 128,-1,14
 824 399 824 399 821 383 c 2,15,-1
 770 142 l 1,16,-1
 835 142 l 1,0,1
719 142 m 1,17,-1
 758 320 l 1,18,-1
 567 142 l 1,19,-1
 719 142 l 1,17,-1
223 633 m 0,20,21
 235 665 235 665 275 692.5 c 128,-1,22
 315 720 315 720 368 720 c 0,23,24
 419 720 419 720 451.5 689.5 c 128,-1,25
 484 659 484 659 473 615 c 0,26,27
 469 591 469 591 452.5 570 c 128,-1,28
 436 549 436 549 410 534 c 1,29,30
 439 517 439 517 451 490 c 128,-1,31
 463 463 463 463 455 431 c 0,32,33
 445 380 445 380 394.5 344.5 c 128,-1,34
 344 309 344 309 280 309 c 256,35,36
 217 309 217 309 183 343 c 128,-1,37
 149 377 149 377 155 415 c 0,38,39
 161 455 161 455 213 455 c 1,40,41
 210 448 210 448 208 442.5 c 128,-1,42
 206 437 206 437 205 431 c 0,43,44
 197 398 197 398 222 375.5 c 128,-1,45
 247 353 247 353 289 353 c 0,46,47
 330 353 330 353 364 375.5 c 128,-1,48
 398 398 398 398 405 431 c 0,49,50
 413 463 413 463 388 486 c 128,-1,51
 363 509 363 509 323 509 c 0,52,53
 298 509 298 509 301 531 c 0,54,55
 304 541 304 541 313.5 547 c 128,-1,56
 323 553 323 553 333 553 c 0,57,58
 365 553 365 553 392 571 c 128,-1,59
 419 589 419 589 424 615 c 0,60,61
 430 641 430 641 410 659 c 128,-1,62
 390 677 390 677 359 677 c 0,63,64
 326 677 326 677 299.5 659 c 128,-1,65
 273 641 273 641 267 615 c 1,66,67
 267 612 267 612 266 606.5 c 128,-1,68
 265 601 265 601 267 594 c 1,69,70
 243 591 243 591 228.5 601.5 c 128,-1,71
 214 612 214 612 223 633 c 0,20,21
733 722 m 2,72,73
 767 770 767 770 811 746 c 1,74,-1
 273 -6 l 2,75,76
 237 -56 237 -56 196 -30 c 1,77,-1
 733 722 l 2,72,73
EndSplineSet
Ligature2: "'frac' Diagonal Fractions in Latin lookup 0 subtable" three fraction four
Ligature2: "'frac' Diagonal Fractions in Latin lookup 0 subtable" three slash four
EndChar
StartChar: questiondown
Encoding: 191 191 129
Width: 503
VWidth: 1507
Flags: W
HStem: -214 51<143.085 256.112> 407 113<324.141 386.89>
VStem: 298 113<425.063 500.93>
Fore
294 309 m 2,0,1
 307 366 307 366 363 366 c 1,2,-1
 345 277 l 2,3,4
 333 225 333 225 297.5 191.5 c 128,-1,5
 262 158 262 158 221.5 129.5 c 128,-1,6
 181 101 181 101 145.5 68.5 c 128,-1,7
 110 36 110 36 99 -15 c 0,8,9
 86 -78 86 -78 120.5 -120.5 c 128,-1,10
 155 -163 155 -163 223 -163 c 0,11,12
 255 -163 255 -163 285 -152.5 c 128,-1,13
 315 -142 315 -142 340 -122 c 128,-1,14
 365 -102 365 -102 382 -75 c 128,-1,15
 399 -48 399 -48 407 -15 c 0,16,17
 410 -6 410 -6 410.5 -0.5 c 128,-1,18
 411 5 411 5 411 14 c 1,19,20
 436 14 436 14 451 -3 c 128,-1,21
 466 -20 466 -20 457 -44 c 0,22,23
 443 -83 443 -83 419 -114.5 c 128,-1,24
 395 -146 395 -146 362 -168 c 128,-1,25
 329 -190 329 -190 290.5 -202 c 128,-1,26
 252 -214 252 -214 211 -214 c 0,27,28
 169 -214 169 -214 133.5 -200.5 c 128,-1,29
 98 -187 98 -187 74.5 -161.5 c 128,-1,30
 51 -136 51 -136 42 -99 c 128,-1,31
 33 -62 33 -62 42 -15 c 0,32,33
 56 47 56 47 93 85.5 c 128,-1,34
 130 124 130 124 170 152.5 c 128,-1,35
 210 181 210 181 244.5 209 c 128,-1,36
 279 237 279 237 288 277 c 2,37,-1
 294 309 l 2,0,1
411 464 m 256,38,39
 407 440 407 440 387.5 423.5 c 128,-1,40
 368 407 368 407 344 407 c 256,41,42
 320 407 320 407 307 423.5 c 128,-1,43
 294 440 294 440 298 464 c 256,44,45
 303 488 303 488 323.5 504 c 128,-1,46
 344 520 344 520 368 520 c 256,47,48
 392 520 392 520 404 504 c 128,-1,49
 416 488 416 488 411 464 c 256,38,39
EndSplineSet
EndChar
StartChar: AE
Encoding: 198 198 135
Width: 908
VWidth: 1507
Flags: W
HStem: 0 54<601 889.375> 234 54<298 556> 332 54<633 915.094> 662 54<660 1017.5>
Fore
613 716 m 1,0,-1
 975 716 l 2,1,2
 1029 716 1029 716 1019 662 c 1,3,-1
 660 662 l 1,4,-1
 633 386 l 1,5,-1
 930 386 l 1,6,7
 918 332 918 332 864 332 c 2,8,-1
 629 332 l 1,9,-1
 601 54 l 1,10,-1
 904 54 l 1,11,12
 892 0 892 0 840 0 c 2,13,-1
 532 0 l 1,14,-1
 556 234 l 1,15,-1
 250 234 l 1,16,-1
 36 -9 l 1,17,18
 17 0 17 0 17.5 22.5 c 128,-1,19
 18 45 18 45 39 69 c 2,20,-1
 613 716 l 1,0,-1
298 288 m 1,21,-1
 562 288 l 1,22,-1
 600 657 l 1,23,-1
 597 653 l 1,24,-1
 591 623 l 1,25,-1
 298 288 l 1,21,-1
EndSplineSet
EndChar
StartChar: Eth
Encoding: 208 208 145
Width: 729
VWidth: 1507
Flags: W
HStem: 0 54<161 470.14> 333 51<81.9766 160 232 389.142> 662 54<291 594.326>
Fore
523 716 m 2,0,1
 573 716 573 716 619.5 700 c 128,-1,2
 666 684 666 684 701 655 c 128,-1,3
 736 626 736 626 752.5 582 c 128,-1,4
 769 538 769 538 757 482 c 2,5,-1
 704 235 l 2,6,7
 692 181 692 181 658 138 c 128,-1,8
 624 95 624 95 577.5 64 c 128,-1,9
 531 33 531 33 477.5 16.5 c 128,-1,10
 424 0 424 0 372 0 c 2,11,-1
 121 0 l 2,12,13
 107 0 107 0 100 9 c 128,-1,14
 93 18 93 18 96 30 c 2,15,-1
 160 333 l 1,16,-1
 69 333 l 1,17,18
 81 384 81 384 133 384 c 2,19,-1
 172 384 l 1,20,-1
 235 686 l 2,21,22
 243 716 243 716 271 716 c 2,23,-1
 523 716 l 2,0,1
291 662 m 1,24,-1
 232 384 l 1,25,-1
 402 384 l 1,26,27
 390 333 390 333 339 333 c 2,28,-1
 220 333 l 1,29,-1
 161 54 l 1,30,-1
 383 54 l 2,31,32
 428 54 428 54 471.5 68.5 c 128,-1,33
 515 83 515 83 551.5 108 c 128,-1,34
 588 133 588 133 613 166 c 128,-1,35
 638 199 638 199 645 235 c 2,36,-1
 698 482 l 2,37,38
 705 519 705 519 694 552 c 128,-1,39
 683 585 683 585 658 609 c 128,-1,40
 633 633 633 633 595.5 647.5 c 128,-1,41
 558 662 558 662 512 662 c 2,42,-1
 291 662 l 1,24,-1
EndSplineSet
EndChar
StartChar: multiply
Encoding: 215 215 152
Width: 602
VWidth: 1507
Flags: W
HStem: 113 369<182 544 182 182>
Fore
544 113 m 1,0,1
 500 78 500 78 472 113 c 2,2,-1
 182 482 l 1,3,4
 226 517 226 517 255 482 c 2,5,-1
 544 113 l 1,0,1
552 482 m 2,6,7
 594 517 594 517 624 482 c 1,8,-1
 175 113 l 2,9,10
 133 78 133 78 102 113 c 1,11,-1
 552 482 l 2,6,7
EndSplineSet
EndChar
StartChar: Thorn
Encoding: 222 222 159
Width: 595
VWidth: 1507
Flags: W
HStem: -9 21G<91.273 101> 175.5 50.5<219.084 260.062 260.062 273.758 266.91 415.741> 549 47.5<323.068 371.911 347.49 475.529> 704 20G<289.5 298.588>
Fore
624 402 m 0,0,1
 612 350 612 350 582.5 307.5 c 128,-1,2
 553 265 553 265 508.5 235.5 c 128,-1,3
 464 206 464 206 407 190.5 c 128,-1,4
 350 175 350 175 285 175 c 0,5,6
 262 175 262 175 235 175.5 c 128,-1,7
 208 176 208 176 187 181 c 1,8,-1
 160 50 l 2,9,10
 152 21 152 21 133.5 6 c 128,-1,11
 115 -9 115 -9 87 -9 c 1,12,-1
 231 665 l 2,13,14
 237 692 237 692 256.5 708 c 128,-1,15
 276 724 276 724 303 724 c 1,16,-1
 273 588 l 1,17,18
 306 595 306 595 341.5 596.5 c 128,-1,19
 377 598 377 598 402 598 c 0,20,21
 540 598 540 598 594 535 c 0,22,23
 641 481 641 481 624 402 c 0,0,1
564 395 m 0,24,25
 573 439 573 439 563 468 c 128,-1,26
 553 497 553 497 528 515.5 c 128,-1,27
 503 534 503 534 468 541.5 c 128,-1,28
 433 549 433 549 392 549 c 0,29,30
 353 549 353 549 317.5 545 c 128,-1,31
 282 541 282 541 262 535 c 1,32,-1
 199 235 l 1,33,34
 225 229 225 229 249.5 227.5 c 128,-1,35
 274 226 274 226 298 226 c 0,36,37
 410 226 410 226 478.5 270.5 c 128,-1,38
 547 315 547 315 564 395 c 0,24,25
EndSplineSet
EndChar
StartChar: uni00DF
Encoding: 223 223 160
Width: 559
VWidth: 1507
Flags: W
HStem: -2 47<286 294.396 294.396 309.25 301.823 392.588> 360 48<329 417.171> 677 48<339.015 473.192>
VStem: 60 498<-139 616.5 -168.604 -153.75>
Fore
203 534 m 2,0,1
 222 620 222 620 277 672.5 c 128,-1,2
 332 725 332 725 422 725 c 0,3,4
 460 725 460 725 489.5 710.5 c 128,-1,5
 519 696 519 696 535.5 673 c 128,-1,6
 552 650 552 650 558 616.5 c 128,-1,7
 564 583 564 583 555 544 c 0,8,9
 544 494 544 494 512.5 456 c 128,-1,10
 481 418 481 418 431 393 c 1,11,12
 494 372 494 372 517.5 322.5 c 128,-1,13
 541 273 541 273 526 202 c 0,14,15
 505 104 505 104 449 47.5 c 128,-1,16
 393 -9 393 -9 309 -9 c 0,17,18
 289 -9 289 -9 279.5 -7 c 128,-1,19
 270 -5 270 -5 261 -2 c 0,20,21
 223 14 223 14 255 59 c 1,22,23
 268 51 268 51 286 45 c 128,-1,24
 304 39 304 39 324 39 c 0,25,26
 377 39 377 39 413 79 c 128,-1,27
 449 119 449 119 466 194 c 0,28,29
 484 283 484 283 446 321.5 c 128,-1,30
 408 360 408 360 318 360 c 1,31,-1
 329 408 l 1,32,33
 395 411 395 411 436.5 441.5 c 128,-1,34
 478 472 478 472 494 547 c 0,35,36
 506 607 506 607 484.5 642 c 128,-1,37
 463 677 463 677 401 677 c 0,38,39
 368 677 368 677 345.5 665 c 128,-1,40
 323 653 323 653 306 632.5 c 128,-1,41
 289 612 289 612 278.5 588 c 128,-1,42
 268 564 268 564 262 538 c 2,43,-1
 131 -78 l 2,44,45
 119 -139 119 -139 60 -139 c 1,46,-1
 203 534 l 2,0,1
EndSplineSet
EndChar
StartChar: ae
Encoding: 230 230 167
Width: 895
VWidth: 1507
Flags: W
HStem: -9 50<201.765 335.608 541.739 687.885> 267 50<287.219 469 534 832> 470 50<278.7 445.081 652.747 774.674>
Fore
479 317 m 1,0,-1
 487 350 l 2,1,2
 497 398 497 398 462 434 c 128,-1,3
 427 470 427 470 363 470 c 0,4,5
 314 470 314 470 266.5 441.5 c 128,-1,6
 219 413 219 413 188 372 c 1,7,8
 173 386 173 386 172.5 408 c 128,-1,9
 172 430 172 430 193 448 c 0,10,11
 228 482 228 482 276 501 c 128,-1,12
 324 520 324 520 374 520 c 0,13,14
 425 520 425 520 468.5 497.5 c 128,-1,15
 512 475 512 475 534 434 c 1,16,17
 568 473 568 473 618.5 496.5 c 128,-1,18
 669 520 669 520 727 520 c 0,19,20
 769 520 769 520 803 506.5 c 128,-1,21
 837 493 837 493 859.5 469.5 c 128,-1,22
 882 446 882 446 891.5 415 c 128,-1,23
 901 384 901 384 894 348 c 2,24,-1
 882 294 l 2,25,26
 879 282 879 282 869 274.5 c 128,-1,27
 859 267 859 267 849 267 c 2,28,-1
 523 267 l 1,29,-1
 500 161 l 2,30,31
 490 113 490 113 524.5 77 c 128,-1,32
 559 41 559 41 624 41 c 0,33,34
 656 41 656 41 685 50.5 c 128,-1,35
 714 60 714 60 738.5 77.5 c 128,-1,36
 763 95 763 95 778.5 117 c 128,-1,37
 794 139 794 139 799 163 c 1,38,39
 815 163 815 163 829 144 c 128,-1,40
 843 125 843 125 824 98 c 0,41,42
 791 50 791 50 734.5 20.5 c 128,-1,43
 678 -9 678 -9 613 -9 c 0,44,45
 556 -9 556 -9 515.5 14.5 c 128,-1,46
 475 38 475 38 457 77 c 1,47,48
 421 36 421 36 366.5 13.5 c 128,-1,49
 312 -9 312 -9 261 -9 c 0,50,51
 219 -9 219 -9 184 3 c 128,-1,52
 149 15 149 15 126.5 37 c 128,-1,53
 104 59 104 59 94 88.5 c 128,-1,54
 84 118 84 118 92 154 c 256,55,56
 99 190 99 190 122 219.5 c 128,-1,57
 145 249 145 249 176.5 270.5 c 128,-1,58
 208 292 208 292 248 304.5 c 128,-1,59
 288 317 288 317 330 317 c 2,60,-1
 479 317 l 1,0,-1
320 267 m 2,61,62
 255 267 255 267 206 234.5 c 128,-1,63
 157 202 157 202 146 154 c 256,64,65
 136 106 136 106 171 73.5 c 128,-1,66
 206 41 206 41 271 41 c 0,67,68
 303 41 303 41 332.5 50.5 c 128,-1,69
 362 60 362 60 386 76.5 c 128,-1,70
 410 93 410 93 426 115 c 128,-1,71
 442 137 442 137 446 161 c 2,72,-1
 469 267 l 1,73,-1
 320 267 l 2,61,62
534 317 m 1,74,-1
 832 317 l 1,75,-1
 840 348 l 2,76,77
 844 372 844 372 838 394 c 128,-1,78
 832 416 832 416 815.5 433.5 c 128,-1,79
 799 451 799 451 773.5 460.5 c 128,-1,80
 748 470 748 470 716 470 c 256,81,82
 684 470 684 470 655 460.5 c 128,-1,83
 626 451 626 451 602.5 434.5 c 128,-1,84
 579 418 579 418 562.5 395 c 128,-1,85
 546 372 546 372 541 348 c 2,86,-1
 534 317 l 1,74,-1
EndSplineSet
EndChar
StartChar: eth
Encoding: 240 240 177
Width: 630
VWidth: 1507
Flags: W
HStem: -9 48<241.223 400.094> 472 48<325.181 499.005>
VStem: 572 65<313.722 351 351 412.185>
Fore
276 553 m 1,0,1
 264 600 264 600 314 621 c 2,2,-1
 410 662 l 1,3,4
 386 678 386 678 359.5 691.5 c 128,-1,5
 333 705 333 705 307 717 c 1,6,-1
 339 764 l 1,7,8
 375 748 375 748 410 729.5 c 128,-1,9
 445 711 445 711 475 689 c 1,10,-1
 629 754 l 1,11,12
 641 707 641 707 589 686 c 2,13,-1
 515 654 l 1,14,15
 553 618 553 618 580 573 c 128,-1,16
 607 528 607 528 624 472 c 0,17,18
 636 425 636 425 637 375.5 c 128,-1,19
 638 326 638 326 626 268 c 0,20,21
 610 196 610 196 575.5 143 c 128,-1,22
 541 90 541 90 497.5 56.5 c 128,-1,23
 454 23 454 23 404 7 c 128,-1,24
 354 -9 354 -9 307 -9 c 0,25,26
 252 -9 252 -9 209.5 10.5 c 128,-1,27
 167 30 167 30 141.5 64.5 c 128,-1,28
 116 99 116 99 107.5 146 c 128,-1,29
 99 193 99 193 112 247 c 0,30,31
 125 311 125 311 158 361 c 128,-1,32
 191 411 191 411 234 446.5 c 128,-1,33
 277 482 277 482 327 501 c 128,-1,34
 377 520 377 520 425 520 c 0,35,36
 479 520 479 520 525 496 c 128,-1,37
 571 472 571 472 600 427 c 1,38,-1
 601 431 l 1,39,40
 594 449 594 449 574 469 c 1,41,42
 532 565 532 565 455 629 c 1,43,-1
 276 553 l 1,0,1
565 261 m 256,44,45
 577 315 577 315 572 351 c 128,-1,46
 567 387 567 387 550 413 c 1,47,48
 529 434 529 434 497.5 453 c 128,-1,49
 466 472 466 472 415 472 c 0,50,51
 362 472 362 472 320.5 451.5 c 128,-1,52
 279 431 279 431 247.5 398.5 c 128,-1,53
 216 366 216 366 195.5 326 c 128,-1,54
 175 286 175 286 167 249 c 0,55,56
 157 199 157 199 165 160 c 128,-1,57
 173 121 173 121 195 93.5 c 128,-1,58
 217 66 217 66 248.5 52.5 c 128,-1,59
 280 39 280 39 317 39 c 0,60,61
 359 39 359 39 399 53.5 c 128,-1,62
 439 68 439 68 472 96 c 128,-1,63
 505 124 505 124 529 165 c 128,-1,64
 553 206 553 206 565 261 c 256,44,45
EndSplineSet
EndChar
StartChar: divide
Encoding: 247 247 184
Width: 602
VWidth: 1507
Flags: W
HStem: 66 112<297.141 356.89> 271 55<125.049 601.951> 419 112<371.11 431.89>
CounterMasks: 1 e0
Fore
624 326 m 1,0,1
 620 300 620 300 602.5 285.5 c 128,-1,2
 585 271 585 271 559 271 c 2,3,-1
 102 271 l 1,4,5
 107 297 107 297 124.5 311.5 c 128,-1,6
 142 326 142 326 167 326 c 2,7,-1
 624 326 l 1,0,1
345 475 m 0,8,9
 351 497 351 497 370.5 514 c 128,-1,10
 390 531 390 531 413 531 c 256,11,12
 436 531 436 531 449.5 514 c 128,-1,13
 463 497 463 497 457 475 c 0,14,15
 452 452 452 452 432.5 435.5 c 128,-1,16
 413 419 413 419 390 419 c 256,17,18
 368 419 368 419 354.5 435.5 c 128,-1,19
 341 452 341 452 345 475 c 0,8,9
271 122 m 0,20,21
 276 145 276 145 296.5 161.5 c 128,-1,22
 317 178 317 178 339 178 c 256,23,24
 362 178 362 178 374.5 161.5 c 128,-1,25
 387 145 387 145 383 122 c 0,26,27
 377 99 377 99 357.5 82.5 c 128,-1,28
 338 66 338 66 315 66 c 256,29,30
 292 66 292 66 278.5 82.5 c 128,-1,31
 265 99 265 99 271 122 c 0,20,21
EndSplineSet
EndChar
StartChar: oslash
Encoding: 248 248 185
Width: 649
VWidth: 1507
Flags: W
HStem: -9 50<247.934 421.258> 470 50<334.227 508.742>
Fore
535 517 m 2,0,1
 570 565 570 565 613 541 c 1,2,-1
 222 -6 l 2,3,4
 185 -54 185 -54 143 -30 c 1,5,-1
 535 517 l 2,0,1
113 255 m 256,6,7
 125 309 125 309 156 357 c 128,-1,8
 187 405 187 405 230.5 441.5 c 128,-1,9
 274 478 274 478 327 499 c 128,-1,10
 380 520 380 520 434 520 c 256,11,12
 488 520 488 520 532 499 c 128,-1,13
 576 478 576 478 604.5 441.5 c 128,-1,14
 633 405 633 405 643.5 357 c 128,-1,15
 654 309 654 309 642 255 c 256,16,17
 630 200 630 200 599 152 c 128,-1,18
 568 104 568 104 524.5 68 c 128,-1,19
 481 32 481 32 428 11.5 c 128,-1,20
 375 -9 375 -9 321 -9 c 256,21,22
 267 -9 267 -9 223 11.5 c 128,-1,23
 179 32 179 32 150.5 68 c 128,-1,24
 122 104 122 104 111.5 152 c 128,-1,25
 101 200 101 200 113 255 c 256,6,7
167 255 m 256,26,27
 158 210 158 210 166.5 171.5 c 128,-1,28
 175 133 175 133 197 103.5 c 128,-1,29
 219 74 219 74 253.5 57.5 c 128,-1,30
 288 41 288 41 332 41 c 256,31,32
 375 41 375 41 417.5 57.5 c 128,-1,33
 460 74 460 74 494.5 103.5 c 128,-1,34
 529 133 529 133 554 171.5 c 128,-1,35
 579 210 579 210 588 255 c 256,36,37
 597 300 597 300 589.5 339 c 128,-1,38
 582 378 582 378 559.5 407.5 c 128,-1,39
 537 437 537 437 502 453.5 c 128,-1,40
 467 470 467 470 424 470 c 256,41,42
 380 470 380 470 338.5 453.5 c 128,-1,43
 297 437 297 437 261.5 407.5 c 128,-1,44
 226 378 226 378 201 339 c 128,-1,45
 176 300 176 300 167 255 c 256,26,27
EndSplineSet
EndChar
StartChar: thorn
Encoding: 254 254 191
Width: 587
VWidth: 1507
Flags: W
HStem: -214 21G<48.2486 71.5> -9 50<243.417 354.934> 470 50<330.609 475.985> 705 20G<270.5 293.731>
Fore
178 163 m 2,0,1
 173 139 173 139 179 117 c 128,-1,2
 185 95 185 95 202 77.5 c 128,-1,3
 219 60 219 60 244.5 50.5 c 128,-1,4
 270 41 270 41 301 41 c 256,5,6
 333 41 333 41 362.5 50.5 c 128,-1,7
 392 60 392 60 416 77.5 c 128,-1,8
 440 95 440 95 456 117 c 128,-1,9
 472 139 472 139 476 163 c 2,10,-1
 517 350 l 2,11,12
 528 398 528 398 493 434 c 128,-1,13
 458 470 458 470 393 470 c 0,14,15
 362 470 362 470 332.5 460.5 c 128,-1,16
 303 451 303 451 279 434.5 c 128,-1,17
 255 418 255 418 239 396 c 128,-1,18
 223 374 223 374 219 350 c 2,19,-1
 178 163 l 2,0,1
109 -166 m 2,20,21
 99 -214 99 -214 44 -214 c 1,22,-1
 232 671 l 2,23,24
 243 725 243 725 298 725 c 1,25,-1
 244 472 l 1,26,27
 238 469 238 469 231.5 462 c 128,-1,28
 225 455 225 455 220 451 c 1,29,-1
 220 446 l 1,30,31
 255 481 255 481 303 500.5 c 128,-1,32
 351 520 351 520 404 520 c 0,33,34
 446 520 446 520 480 506.5 c 128,-1,35
 514 493 514 493 536.5 470.5 c 128,-1,36
 559 448 559 448 569 417 c 128,-1,37
 579 386 579 386 571 350 c 2,38,-1
 531 163 l 2,39,40
 523 127 523 127 500.5 96 c 128,-1,41
 478 65 478 65 445.5 41.5 c 128,-1,42
 413 18 413 18 373 4.5 c 128,-1,43
 333 -9 333 -9 291 -9 c 0,44,45
 238 -9 238 -9 199 10.5 c 128,-1,46
 160 30 160 30 140 65 c 1,47,-1
 137 60 l 1,48,49
 143 48 143 48 152 39 c 1,50,-1
 109 -166 l 2,20,21
EndSplineSet
EndChar
StartChar: Lslash
Encoding: 321 321 193
Width: 624
VWidth: 1507
Flags: W
HStem: 0 54<161 592.5> 705 20G<274 299.728>
Fore
550 54 m 2,0,1
 604 54 604 54 594 0 c 1,2,-1
 121 0 l 2,3,4
 107 0 107 0 100 9 c 128,-1,5
 93 18 93 18 96 30 c 2,6,-1
 154 301 l 1,7,-1
 63 250 l 1,8,9
 45 292 45 292 93 320 c 2,10,-1
 167 362 l 1,11,-1
 231 665 l 2,12,13
 244 725 244 725 304 725 c 1,14,-1
 235 402 l 1,15,-1
 430 514 l 1,16,17
 448 472 448 472 401 445 c 2,18,-1
 223 341 l 1,19,-1
 161 54 l 1,20,-1
 550 54 l 2,0,1
EndSplineSet
EndChar
StartChar: lslash
Encoding: 322 322 194
Width: 241
VWidth: 1507
Flags: W
HStem: -9 21G<91.3226 117.5> 705 20G<274 299.741>
VStem: 63 263<250 454 302.308 616.35>
Fore
235 401 m 1,0,-1
 326 454 l 1,1,2
 344 411 344 411 298 384 c 2,3,-1
 223 341 l 1,4,-1
 161 51 l 2,5,6
 148 -9 148 -9 87 -9 c 1,7,-1
 154 301 l 1,8,-1
 63 250 l 1,9,10
 45 292 45 292 93 320 c 2,11,-1
 167 362 l 1,12,-1
 231 665 l 2,13,14
 244 725 244 725 304 725 c 1,15,-1
 235 401 l 1,0,-1
EndSplineSet
EndChar
StartChar: OE
Encoding: 338 338 195
Width: 1204
VWidth: 1507
Flags: W
HStem: -9 54<275.204 429.119 779.774 934.07> 332 54<722 1005.09> 671 54<409.258 590.764 943.085 1075.9>
Fore
722 386 m 1,0,-1
 1020 386 l 1,1,2
 1008 332 1008 332 954 332 c 2,3,-1
 710 332 l 1,4,-1
 687 226 l 2,5,6
 680 190 680 190 690.5 157 c 128,-1,7
 701 124 701 124 726 99 c 128,-1,8
 751 74 751 74 787.5 59.5 c 128,-1,9
 824 45 824 45 871 45 c 256,10,11
 918 45 918 45 961.5 59.5 c 128,-1,12
 1005 74 1005 74 1040.5 99 c 128,-1,13
 1076 124 1076 124 1100 157 c 128,-1,14
 1124 190 1124 190 1132 226 c 2,15,16
 1135 234 1135 234 1136 241.5 c 128,-1,17
 1137 249 1137 249 1138 256 c 1,18,19
 1162 256 1162 256 1178.5 239.5 c 128,-1,20
 1195 223 1195 223 1179 184 c 0,21,22
 1161 139 1161 139 1126 102.5 c 128,-1,23
 1091 66 1091 66 1047.5 41.5 c 128,-1,24
 1004 17 1004 17 955 4 c 128,-1,25
 906 -9 906 -9 859 -9 c 0,26,27
 788 -9 788 -9 724 23.5 c 128,-1,28
 660 56 660 56 635 118 c 1,29,30
 610 87 610 87 577 64 c 128,-1,31
 544 41 544 41 507 24.5 c 128,-1,32
 470 8 470 8 431 -0.5 c 128,-1,33
 392 -9 392 -9 354 -9 c 0,34,35
 304 -9 304 -9 257.5 7 c 128,-1,36
 211 23 211 23 177 53 c 128,-1,37
 143 83 143 83 126.5 126.5 c 128,-1,38
 110 170 110 170 122 226 c 2,39,-1
 179 491 l 2,40,41
 190 546 190 546 224.5 589 c 128,-1,42
 259 632 259 632 306 662 c 128,-1,43
 353 692 353 692 406.5 708.5 c 128,-1,44
 460 725 460 725 511 725 c 0,45,46
 585 725 585 725 648 693.5 c 128,-1,47
 711 662 711 662 737 597 c 1,48,49
 761 627 761 627 794.5 650.5 c 128,-1,50
 828 674 828 674 864.5 690.5 c 128,-1,51
 901 707 901 707 940.5 716 c 128,-1,52
 980 725 980 725 1016 725 c 0,53,54
 1061 725 1061 725 1103.5 713.5 c 128,-1,55
 1146 702 1146 702 1179 678 c 128,-1,56
 1212 654 1212 654 1232.5 618.5 c 128,-1,57
 1253 583 1253 583 1254 535 c 0,58,59
 1254 494 1254 494 1230 477.5 c 128,-1,60
 1206 461 1206 461 1182 461 c 1,61,62
 1185 469 1185 469 1185.5 472.5 c 0,63,-1
 1189 491 l 0,64,65
 1197 528 1197 528 1186.5 561 c 128,-1,66
 1176 594 1176 594 1151 618 c 128,-1,67
 1126 642 1126 642 1088.5 656.5 c 128,-1,68
 1051 671 1051 671 1004 671 c 256,69,70
 957 671 957 671 914 656.5 c 128,-1,71
 871 642 871 642 835.5 618 c 128,-1,72
 800 594 800 594 776 561 c 128,-1,73
 752 528 752 528 745 491 c 2,74,-1
 722 386 l 1,0,-1
684 491 m 2,75,76
 692 528 692 528 681.5 561 c 128,-1,77
 671 594 671 594 646 618 c 128,-1,78
 621 642 621 642 583.5 656.5 c 128,-1,79
 546 671 546 671 499 671 c 256,80,81
 452 671 452 671 409 656.5 c 128,-1,82
 366 642 366 642 330.5 618 c 128,-1,83
 295 594 295 594 271 561 c 128,-1,84
 247 528 247 528 240 491 c 2,85,-1
 182 226 l 2,86,87
 175 190 175 190 185.5 157 c 128,-1,88
 196 124 196 124 221 99 c 128,-1,89
 246 74 246 74 283 59.5 c 128,-1,90
 320 45 320 45 366 45 c 256,91,92
 413 45 413 45 456.5 59.5 c 128,-1,93
 500 74 500 74 535.5 99 c 128,-1,94
 571 124 571 124 595.5 157 c 128,-1,95
 620 190 620 190 627 226 c 2,96,-1
 684 491 l 2,75,76
EndSplineSet
EndChar
StartChar: oe
Encoding: 339 339 196
Width: 910
VWidth: 1507
Flags: W
HStem: -9 50<204.106 349.168 556.433 702.988> 267 50<549 847> 470 50<324.983 436.879 667.535 789.674>
Fore
515 161 m 2,0,1
 505 113 505 113 539.5 77 c 128,-1,2
 574 41 574 41 639 41 c 0,3,4
 671 41 671 41 700.5 50.5 c 128,-1,5
 730 60 730 60 754 77.5 c 128,-1,6
 778 95 778 95 793.5 117 c 128,-1,7
 809 139 809 139 814 163 c 1,8,9
 831 163 831 163 844.5 144 c 128,-1,10
 858 125 858 125 840 98 c 0,11,12
 806 50 806 50 749.5 20.5 c 128,-1,13
 693 -9 693 -9 629 -9 c 0,14,15
 571 -9 571 -9 529 14.5 c 128,-1,16
 487 38 487 38 469 77 c 1,17,18
 434 38 434 38 383.5 14.5 c 128,-1,19
 333 -9 333 -9 276 -9 c 0,20,21
 234 -9 234 -9 199 4.5 c 128,-1,22
 164 18 164 18 141.5 40.5 c 128,-1,23
 119 63 119 63 110 94 c 128,-1,24
 101 125 101 125 109 161 c 2,25,-1
 149 348 l 2,26,27
 157 384 157 384 179.5 415 c 128,-1,28
 202 446 202 446 234.5 469.5 c 128,-1,29
 267 493 267 493 307 506.5 c 128,-1,30
 347 520 347 520 389 520 c 0,31,32
 446 520 446 520 487.5 496.5 c 128,-1,33
 529 473 529 473 547 434 c 1,34,35
 582 473 582 473 633 496.5 c 128,-1,36
 684 520 684 520 742 520 c 0,37,38
 784 520 784 520 818 506.5 c 128,-1,39
 852 493 852 493 874.5 469.5 c 128,-1,40
 897 446 897 446 906.5 415 c 128,-1,41
 916 384 916 384 909 348 c 2,42,-1
 897 294 l 2,43,44
 894 282 894 282 884 274.5 c 128,-1,45
 874 267 874 267 864 267 c 2,46,-1
 538 267 l 1,47,-1
 515 161 l 2,0,1
378 470 m 256,48,49
 347 470 347 470 317.5 460.5 c 128,-1,50
 288 451 288 451 264 433.5 c 128,-1,51
 240 416 240 416 224 394 c 128,-1,52
 208 372 208 372 203 348 c 2,53,-1
 163 161 l 2,54,55
 152 113 152 113 187 77 c 128,-1,56
 222 41 222 41 286 41 c 0,57,58
 318 41 318 41 346.5 50.5 c 128,-1,59
 375 60 375 60 399.5 76 c 128,-1,60
 424 92 424 92 440.5 114 c 128,-1,61
 457 136 457 136 461 161 c 2,62,-1
 502 348 l 2,63,64
 506 372 506 372 500 394 c 128,-1,65
 494 416 494 416 477.5 433.5 c 128,-1,66
 461 451 461 451 435.5 460.5 c 128,-1,67
 410 470 410 470 378 470 c 256,48,49
549 317 m 1,68,-1
 847 317 l 1,69,-1
 855 348 l 2,70,71
 859 372 859 372 853 394 c 128,-1,72
 847 416 847 416 830.5 433.5 c 128,-1,73
 814 451 814 451 788.5 460.5 c 128,-1,74
 763 470 763 470 731 470 c 256,75,76
 699 470 699 470 670 460.5 c 128,-1,77
 641 451 641 451 616.5 433.5 c 128,-1,78
 592 416 592 416 576.5 394 c 128,-1,79
 561 372 561 372 556 348 c 2,80,-1
 549 317 l 1,68,-1
EndSplineSet
EndChar
StartChar: florin
Encoding: 402 402 202
Width: 575
VWidth: 1507
Flags: W
HStem: -80 45<30 53.766 53.766 68.15 60.958 143.999> 387 49<228.986 321 395 530.499> 677 50<524.64 640.885>
Fore
666 657 m 1,0,1
 651 666 651 666 630.5 671.5 c 128,-1,2
 610 677 610 677 592 677 c 0,3,4
 558 677 558 677 529 661 c 128,-1,5
 500 645 500 645 477.5 618.5 c 128,-1,6
 455 592 455 592 438.5 558.5 c 128,-1,7
 422 525 422 525 411 487 c 2,8,-1
 395 436 l 1,9,-1
 552 436 l 1,10,11
 547 413 547 413 531 400 c 128,-1,12
 515 387 515 387 493 387 c 2,13,-1
 380 387 l 1,14,15
 365 342 365 342 351 300 c 0,16,17
 339 264 339 264 326.5 224.5 c 128,-1,18
 314 185 314 185 306 158 c 0,19,20
 270 45 270 45 214 -20.5 c 128,-1,21
 158 -86 158 -86 69 -86 c 0,22,23
 48 -86 48 -86 30 -80 c 0,24,25
 14 -72 14 -72 9.5 -58 c 128,-1,26
 5 -44 5 -44 20 -21 c 1,27,28
 36 -32 36 -32 50.5 -35 c 128,-1,29
 65 -38 65 -38 86 -38 c 0,30,31
 115 -38 115 -38 139 -23.5 c 128,-1,32
 163 -9 163 -9 181.5 15 c 128,-1,33
 200 39 200 39 214.5 70 c 128,-1,34
 229 101 229 101 240 133 c 2,35,-1
 321 387 l 1,36,-1
 208 387 l 1,37,38
 213 410 213 410 228.5 423 c 128,-1,39
 244 436 244 436 267 436 c 2,40,-1
 338 436 l 1,41,42
 341 449 341 449 346 462 c 128,-1,43
 351 475 351 475 354 488 c 0,44,45
 389 594 389 594 453 660.5 c 128,-1,46
 517 727 517 727 610 727 c 0,47,48
 644 727 644 727 660 716 c 0,49,50
 696 696 696 696 666 657 c 1,0,1
EndSplineSet
EndChar
StartChar: circumflex
Encoding: 710 710 203
Width: 461
VWidth: 1507
Flags: W
HStem: 565 155
VStem: 206 293<577 577 577 577>
Fore
383 720 m 0,0,1
 395 720 395 720 399 713 c 2,2,-1
 499 577 l 1,3,4
 481 565 481 565 461.5 565 c 128,-1,5
 442 565 442 565 431 577 c 2,6,-1
 371 660 l 1,7,-1
 274 577 l 2,8,9
 259 565 259 565 239.5 565 c 128,-1,10
 220 565 220 565 206 577 c 1,11,-1
 363 713 l 2,12,13
 374 720 374 720 383 720 c 0,0,1
EndSplineSet
EndChar
StartChar: breve
Encoding: 728 728 205
Width: 452
VWidth: 1507
Flags: W
HStem: 562 51<301.343 404.187> 705 20G<256.5 261.5 487.5 503.5>
VStem: 208 59<663.129 713.14> 493 41<648.63 720.894>
Fore
345 562 m 0,0,1
 320 562 320 562 293.5 570.5 c 128,-1,2
 267 579 267 579 246.5 594.5 c 128,-1,3
 226 610 226 610 214.5 633.5 c 128,-1,4
 203 657 203 657 208 687 c 0,5,6
 211 702 211 702 228.5 713.5 c 128,-1,7
 246 725 246 725 267 725 c 1,8,9
 256 677 256 677 281 645 c 128,-1,10
 306 613 306 613 356 613 c 256,11,12
 405 613 405 613 443.5 645 c 128,-1,13
 482 677 482 677 493 725 c 1,14,15
 514 725 514 725 526 713.5 c 128,-1,16
 538 702 538 702 534 687 c 0,17,18
 526 657 526 657 505 633.5 c 128,-1,19
 484 610 484 610 457 594.5 c 128,-1,20
 430 579 430 579 399.5 570.5 c 128,-1,21
 369 562 369 562 345 562 c 0,0,1
EndSplineSet
EndChar
StartChar: dotaccent
Encoding: 729 729 206
Width: 238
VWidth: 1507
Flags: W
HStem: 642 109<235.564 297.405>
VStem: 213 108<659.006 733.468>
Fore
213 696 m 0,0,1
 217 717 217 717 235 734 c 128,-1,2
 253 751 253 751 277 751 c 256,3,4
 301 751 301 751 313.5 734 c 128,-1,5
 326 717 326 717 321 696 c 0,6,7
 317 674 317 674 298 658 c 128,-1,8
 279 642 279 642 255 642 c 256,9,10
 231 642 231 642 219.5 658 c 128,-1,11
 208 674 208 674 213 696 c 0,0,1
EndSplineSet
EndChar
StartChar: ring
Encoding: 730 730 207
Width: 419
VWidth: 1507
Flags: W
HStem: 595 37<301.598 394.503> 757 36<318.238 411.138>
VStem: 255 37<662.129 731.969>
Fore
255 695 m 0,0,1
 262 730 262 730 296 761.5 c 128,-1,2
 330 793 330 793 377 793 c 0,3,4
 422 793 422 793 442.5 761.5 c 128,-1,5
 463 730 463 730 455 695 c 0,6,7
 446 651 446 651 412 623 c 128,-1,8
 378 595 378 595 335 595 c 128,-1,9
 292 595 292 595 269.5 624 c 128,-1,10
 247 653 247 653 255 695 c 0,0,1
292 695 m 0,11,12
 288 668 288 668 302.5 650 c 128,-1,13
 317 632 317 632 344 632 c 256,14,15
 371 632 371 632 393 650 c 128,-1,16
 415 668 415 668 419 695 c 0,17,18
 424 716 424 716 411 736.5 c 128,-1,19
 398 757 398 757 369 757 c 0,20,21
 339 757 339 757 318.5 737 c 128,-1,22
 298 717 298 717 292 695 c 0,11,12
EndSplineSet
EndChar
StartChar: tilde
Encoding: 732 732 209
Width: 351
VWidth: 1507
Flags: W
HStem: 597 47<354.375 417.218> 668 46<209.687 272.953>
VStem: 157 313<641 671 641 641>
Fore
335 674 m 1,0,1
 345 662 345 662 356.5 653 c 128,-1,2
 368 644 368 644 384 644 c 256,3,4
 401 644 401 644 417.5 665 c 128,-1,5
 434 686 434 686 428 711 c 1,6,7
 458 720 458 720 468 704.5 c 128,-1,8
 478 689 478 689 470 671 c 0,9,10
 458 638 458 638 433 617.5 c 128,-1,11
 408 597 408 597 375 597 c 0,12,13
 345 597 345 597 328 609 c 128,-1,14
 311 621 311 621 292 638 c 1,15,16
 283 650 283 650 271 659 c 128,-1,17
 259 668 259 668 243 668 c 256,18,19
 226 668 226 668 209.5 647 c 128,-1,20
 193 626 193 626 199 600 c 1,21,22
 170 589 170 589 159.5 606 c 128,-1,23
 149 623 149 623 157 641 c 0,24,25
 169 674 169 674 194.5 694 c 128,-1,26
 220 714 220 714 252 714 c 256,27,28
 283 714 283 714 299 702 c 128,-1,29
 315 690 315 690 335 674 c 1,0,1
EndSplineSet
EndChar
StartChar: uni0E01
Encoding: 3585 3585 212
Width: 630
VWidth: 1507
Flags: W
HStem: -9 21G<160 176.3 483.3 491> 555 51<358.783 480.165>
VStem: 128 498<54 405 35.9419 64.9098>
Fore
179 291 m 1,0,1
 176 294 176 294 171.5 310.5 c 128,-1,2
 167 327 167 327 161 345 c 0,3,4
 155 366 155 366 146 392 c 0,5,6
 143 398 143 398 146 405 c 1,7,8
 155 451 155 451 184.5 488 c 128,-1,9
 214 525 214 525 253 551 c 128,-1,10
 292 577 292 577 338 591.5 c 128,-1,11
 384 606 384 606 428 606 c 0,12,13
 470 606 470 606 510 592.5 c 128,-1,14
 550 579 550 579 579.5 553.5 c 128,-1,15
 609 528 609 528 622.5 490 c 128,-1,16
 636 452 636 452 626 405 c 2,17,-1
 550 54 l 2,18,19
 544 27 544 27 523.5 9 c 128,-1,20
 503 -9 503 -9 479 -9 c 1,21,-1
 568 405 l 2,22,23
 574 434 574 434 565 461 c 128,-1,24
 556 488 556 488 535.5 509.5 c 128,-1,25
 515 531 515 531 485 543 c 128,-1,26
 455 555 455 555 418 555 c 128,-1,27
 381 555 381 555 346 543.5 c 128,-1,28
 311 532 311 532 282 512.5 c 128,-1,29
 253 493 253 493 233 467.5 c 128,-1,30
 213 442 213 442 205 413 c 1,31,32
 206 408 206 408 211 391.5 c 128,-1,33
 216 375 216 375 222 357 c 0,34,35
 228 336 228 336 237 312 c 0,36,37
 238 307 238 307 238 298 c 1,38,-1
 172 -9 l 1,39,40
 148 -9 148 -9 135 9 c 128,-1,41
 122 27 122 27 128 54 c 0,42,43
 142 118 142 118 152 167 c 0,44,45
 161 211 161 211 169.5 248 c 128,-1,46
 178 285 178 285 179 291 c 1,0,1
EndSplineSet
EndChar
StartChar: uni0E02
Encoding: 3586 3586 213
Width: 604
VWidth: 1507
Flags: W
HStem: -9 51<298.86 409.19> 312 45<181.355 257.239> 454 39<210.262 269.507> 555 51<255.29 377.553>
Fore
571 541 m 2,0,1
 577 567 577 567 597.5 585.5 c 128,-1,2
 618 604 618 604 642 604 c 1,3,-1
 543 137 l 2,4,5
 535 104 535 104 516 77 c 128,-1,6
 497 50 497 50 471 31 c 128,-1,7
 445 12 445 12 413 1.5 c 128,-1,8
 381 -9 381 -9 350 -9 c 256,9,10
 318 -9 318 -9 291.5 1.5 c 128,-1,11
 265 12 265 12 247 31 c 128,-1,12
 229 50 229 50 221.5 77 c 128,-1,13
 214 104 214 104 222 137 c 2,14,-1
 228 166 l 2,15,16
 240 222 240 222 275.5 268 c 128,-1,17
 311 314 311 314 354 357 c 0,18,19
 396 398 396 398 405 437 c 0,20,21
 416 482 416 482 390.5 518.5 c 128,-1,22
 365 555 365 555 320 555 c 0,23,24
 280 555 280 555 247 534.5 c 128,-1,25
 214 514 214 514 194 484 c 1,26,27
 175 469 175 469 166 454 c 1,28,-1
 167 449 l 1,29,30
 179 470 179 470 202 481.5 c 128,-1,31
 225 493 225 493 244 493 c 0,32,33
 283 493 283 493 305 468 c 128,-1,34
 327 443 327 443 320 405 c 0,35,36
 311 366 311 366 277.5 339 c 128,-1,37
 244 312 244 312 205 312 c 0,38,39
 157 312 157 312 136 349.5 c 128,-1,40
 115 387 115 387 125 437 c 0,41,42
 133 472 133 472 152.5 503 c 128,-1,43
 172 534 172 534 200 556.5 c 128,-1,44
 228 579 228 579 261.5 592.5 c 128,-1,45
 295 606 295 606 330 606 c 256,46,47
 365 606 365 606 393 592.5 c 128,-1,48
 421 579 421 579 439 556.5 c 128,-1,49
 457 534 457 534 463.5 503 c 128,-1,50
 470 472 470 472 463 437 c 0,51,52
 455 407 455 407 434 378.5 c 128,-1,53
 413 350 413 350 384 321 c 0,54,55
 350 286 350 286 323.5 249.5 c 128,-1,56
 297 213 297 213 285 166 c 2,57,-1
 279 137 l 2,58,59
 270 95 270 95 294 68.5 c 128,-1,60
 318 42 318 42 360 42 c 256,61,62
 402 42 402 42 439 67.5 c 128,-1,63
 476 93 476 93 485 137 c 2,64,-1
 571 541 l 2,0,1
178 405 m 256,65,66
 173 384 173 384 183.5 370.5 c 128,-1,67
 194 357 194 357 216 357 c 256,68,69
 237 357 237 357 253.5 370.5 c 128,-1,70
 270 384 270 384 274 405 c 256,71,72
 279 427 279 427 267.5 440.5 c 128,-1,73
 256 454 256 454 235 454 c 256,74,75
 214 454 214 454 198 440.5 c 128,-1,76
 182 427 182 427 178 405 c 256,65,66
EndSplineSet
EndChar
StartChar: uni0E03
Encoding: 3587 3587 214
Width: 604
VWidth: 1507
Flags: W
HStem: -9 51<298.86 409.19> 312 45<181.355 257.239> 454 39<210.262 269.507> 586 20G<258 291.5 373.5 394.5 630 637.76>
VStem: 410 58<445.96 509.953>
Fore
178 405 m 256,0,1
 173 384 173 384 183.5 370.5 c 128,-1,2
 194 357 194 357 216 357 c 256,3,4
 237 357 237 357 253.5 370.5 c 128,-1,5
 270 384 270 384 274 405 c 256,6,7
 279 427 279 427 267.5 440.5 c 128,-1,8
 256 454 256 454 235 454 c 256,9,10
 214 454 214 454 198 440.5 c 128,-1,11
 182 427 182 427 178 405 c 256,0,1
244 493 m 0,12,13
 283 493 283 493 305 468 c 128,-1,14
 327 443 327 443 320 405 c 0,15,16
 311 366 311 366 277.5 339 c 128,-1,17
 244 312 244 312 205 312 c 0,18,19
 157 312 157 312 136 349.5 c 128,-1,20
 115 387 115 387 125 437 c 0,21,22
 133 467 133 467 146.5 496.5 c 128,-1,23
 160 526 160 526 181 549 c 0,24,25
 231 606 231 606 285 606 c 0,26,27
 298 606 298 606 307.5 594 c 128,-1,28
 317 582 317 582 326 571 c 1,29,30
 338 579 338 579 352 592.5 c 128,-1,31
 366 606 366 606 381 606 c 0,32,33
 408 606 408 606 427 591 c 128,-1,34
 446 576 446 576 456.5 552.5 c 128,-1,35
 467 529 467 529 468 499 c 128,-1,36
 469 469 469 469 463 437 c 0,37,38
 455 407 455 407 434 378.5 c 128,-1,39
 413 350 413 350 384 321 c 0,40,41
 350 286 350 286 323.5 249.5 c 128,-1,42
 297 213 297 213 285 166 c 2,43,-1
 279 137 l 2,44,45
 270 95 270 95 294 68.5 c 128,-1,46
 318 42 318 42 360 42 c 256,47,48
 402 42 402 42 439 67.5 c 128,-1,49
 476 93 476 93 485 137 c 2,50,-1
 571 541 l 2,51,52
 577 567 577 567 597.5 585.5 c 128,-1,53
 618 604 618 604 642 604 c 1,54,-1
 543 137 l 2,55,56
 535 104 535 104 516 77 c 128,-1,57
 497 50 497 50 471 31 c 128,-1,58
 445 12 445 12 413 1.5 c 128,-1,59
 381 -9 381 -9 350 -9 c 256,60,61
 318 -9 318 -9 291.5 1.5 c 128,-1,62
 265 12 265 12 247 31 c 128,-1,63
 229 50 229 50 221.5 77 c 128,-1,64
 214 104 214 104 222 137 c 2,65,-1
 228 166 l 2,66,67
 240 222 240 222 275.5 268 c 128,-1,68
 311 314 311 314 354 357 c 0,69,70
 396 398 396 398 405 437 c 0,71,72
 410 455 410 455 410 474 c 128,-1,73
 410 493 410 493 407 510.5 c 128,-1,74
 404 528 404 528 397 540 c 128,-1,75
 390 552 390 552 381 556 c 1,76,77
 366 546 366 546 351 534 c 0,78,79
 344 528 344 528 335 520 c 0,80,81
 324 512 324 512 312.5 512 c 128,-1,82
 301 512 301 512 295 520 c 2,83,-1
 264 556 l 1,84,85
 247 550 247 550 227.5 531 c 128,-1,86
 208 512 208 512 193 482 c 1,87,88
 175 469 175 469 166 454 c 1,89,-1
 167 449 l 1,90,91
 179 470 179 470 202 481.5 c 128,-1,92
 225 493 225 493 244 493 c 0,12,13
EndSplineSet
EndChar
StartChar: uni0E04
Encoding: 3588 3588 215
Width: 660
VWidth: 1507
Flags: W
HStem: -9 21G<133 156.812 513.299 521.5> 262 45<361.391 435.913> 404 45<372.931 448.674> 555 51<389.313 510.635>
VStem: 454 45<321.439 356 356 383.76>
Fore
458 606 m 0,0,1
 500 606 500 606 539.5 592.5 c 128,-1,2
 579 579 579 579 608.5 552.5 c 128,-1,3
 638 526 638 526 651.5 489 c 128,-1,4
 665 452 665 452 656 405 c 2,5,-1
 580 54 l 2,6,7
 574 27 574 27 554 9 c 128,-1,8
 534 -9 534 -9 509 -9 c 1,9,-1
 598 405 l 2,10,11
 604 434 604 434 595 461 c 128,-1,12
 586 488 586 488 566 509.5 c 128,-1,13
 546 531 546 531 515.5 543 c 128,-1,14
 485 555 485 555 448 555 c 256,15,16
 410 555 410 555 374 543 c 128,-1,17
 338 531 338 531 309 509.5 c 128,-1,18
 280 488 280 488 260 461 c 128,-1,19
 240 434 240 434 234 405 c 2,20,-1
 179 151 l 1,21,-1
 157 110 l 1,22,-1
 157 106 l 1,23,-1
 327 392 l 2,24,25
 341 418 341 418 368 433.5 c 128,-1,26
 395 449 395 449 425 449 c 0,27,28
 463 449 463 449 484.5 422 c 128,-1,29
 506 395 506 395 499 356 c 0,30,31
 490 317 490 317 456 289.5 c 128,-1,32
 422 262 422 262 384 262 c 0,33,34
 324 262 324 262 320 320 c 1,35,-1
 317 315 l 1,36,37
 317 309 317 309 317.5 301.5 c 128,-1,38
 318 294 318 294 321 289 c 1,39,-1
 145 -9 l 1,40,41
 121 -9 121 -9 108 9 c 128,-1,42
 95 27 95 27 101 54 c 2,43,-1
 176 405 l 2,44,45
 185 451 185 451 214.5 488 c 128,-1,46
 244 525 244 525 283.5 551 c 128,-1,47
 323 577 323 577 369 591.5 c 128,-1,48
 415 606 415 606 458 606 c 0,0,1
357 356 m 0,49,50
 353 335 353 335 363.5 321 c 128,-1,51
 374 307 374 307 395 307 c 256,52,53
 416 307 416 307 432.5 321 c 128,-1,54
 449 335 449 335 454 356 c 0,55,56
 457 377 457 377 446.5 390.5 c 128,-1,57
 436 404 436 404 415 404 c 256,58,59
 393 404 393 404 376.5 390.5 c 128,-1,60
 360 377 360 377 357 356 c 0,49,50
EndSplineSet
EndChar
StartChar: uni0E05
Encoding: 3589 3589 216
Width: 660
VWidth: 1507
Flags: W
HStem: -9 21G<133 157.14 513.289 521.5> 249 45<358.557 433.554> 390 46<371.915 446.444> 586 20G<359.5 377 541.5 557>
VStem: 451 45<308.074 371.638>
Fore
354 342 m 256,0,1
 350 321 350 321 360.5 307.5 c 128,-1,2
 371 294 371 294 392 294 c 256,3,4
 413 294 413 294 429.5 307.5 c 128,-1,5
 446 321 446 321 451 342 c 256,6,7
 455 363 455 363 444.5 376.5 c 128,-1,8
 434 390 434 390 413 390 c 256,9,10
 392 390 392 390 375.5 376.5 c 128,-1,11
 359 363 359 363 354 342 c 256,0,1
324 378 m 2,12,13
 341 404 341 404 367 420 c 128,-1,14
 393 436 393 436 422 436 c 0,15,16
 461 436 461 436 482 408.5 c 128,-1,17
 503 381 503 381 496 342 c 256,18,19
 488 303 488 303 455 276 c 128,-1,20
 422 249 422 249 383 249 c 0,21,22
 354 249 354 249 337 263 c 128,-1,23
 320 277 320 277 317 306 c 1,24,-1
 314 301 l 1,25,26
 314 295 314 295 314.5 287.5 c 128,-1,27
 315 280 315 280 318 276 c 1,28,-1
 145 -9 l 1,29,30
 121 -9 121 -9 108 9 c 128,-1,31
 95 27 95 27 101 54 c 2,32,-1
 182 434 l 2,33,34
 191 475 191 475 213 507.5 c 128,-1,35
 235 540 235 540 262 561.5 c 128,-1,36
 289 583 289 583 318.5 594.5 c 128,-1,37
 348 606 348 606 371 606 c 0,38,39
 383 606 383 606 387 598 c 1,40,41
 399 586 399 586 410 577 c 0,42,43
 419 568 419 568 428 560 c 128,-1,44
 437 552 437 552 445 544 c 1,45,-1
 526 598 l 2,46,47
 537 606 537 606 546 606 c 0,48,49
 568 606 568 606 592 594.5 c 128,-1,50
 616 583 616 583 634.5 561.5 c 128,-1,51
 653 540 653 540 662 507.5 c 128,-1,52
 671 475 671 475 662 434 c 2,53,-1
 580 54 l 2,54,55
 574 27 574 27 554 9 c 128,-1,56
 534 -9 534 -9 509 -9 c 1,57,-1
 604 434 l 2,58,59
 609 460 609 460 605 481 c 128,-1,60
 601 502 601 502 591.5 517 c 128,-1,61
 582 532 582 532 569 541 c 128,-1,62
 556 550 556 550 544 553 c 1,63,64
 537 549 537 549 522.5 538.5 c 128,-1,65
 508 528 508 528 491 517 c 0,66,67
 473 505 473 505 452 491 c 0,68,69
 431 476 431 476 416 491 c 0,70,71
 401 505 401 505 387 517 c 0,72,73
 375 528 375 528 365.5 538.5 c 128,-1,74
 356 549 356 549 351 553 c 1,75,76
 338 550 338 550 320.5 541 c 128,-1,77
 303 532 303 532 287 517 c 128,-1,78
 271 502 271 502 257.5 481 c 128,-1,79
 244 460 244 460 240 434 c 2,80,-1
 179 151 l 1,81,-1
 157 110 l 1,82,-1
 157 106 l 1,83,-1
 324 378 l 2,12,13
EndSplineSet
EndChar
StartChar: uni0E06
Encoding: 3590 3590 217
Width: 691
VWidth: 1507
Flags: W
HStem: -9 45<127.976 205.405> 139 45<141.621 213.177> 312 45<181.355 257.239> 454 39<210.262 269.507> 586 20G<258 291.5 373.5 394.5 717.5 725.709>
VStem: 410 58<445.96 509.953>
Fore
193 482 m 1,0,1
 175 469 175 469 166 454 c 1,2,-1
 167 449 l 1,3,4
 179 470 179 470 202 481.5 c 128,-1,5
 225 493 225 493 244 493 c 0,6,7
 283 493 283 493 305 468 c 128,-1,8
 327 443 327 443 320 405 c 0,9,10
 311 366 311 366 277.5 339 c 128,-1,11
 244 312 244 312 205 312 c 0,12,13
 157 312 157 312 136 349.5 c 128,-1,14
 115 387 115 387 125 437 c 0,15,16
 133 467 133 467 146.5 496.5 c 128,-1,17
 160 526 160 526 181 549 c 0,18,19
 231 606 231 606 285 606 c 0,20,21
 298 606 298 606 307.5 594 c 128,-1,22
 317 582 317 582 326 571 c 1,23,24
 338 579 338 579 352 592.5 c 128,-1,25
 366 606 366 606 381 606 c 0,26,27
 408 606 408 606 427 591 c 128,-1,28
 446 576 446 576 456.5 552.5 c 128,-1,29
 467 529 467 529 468 499 c 128,-1,30
 469 469 469 469 463 437 c 0,31,32
 455 407 455 407 434 378.5 c 128,-1,33
 413 350 413 350 384 321 c 0,34,35
 353 291 353 291 323.5 252 c 128,-1,36
 294 213 294 213 286 172 c 0,37,38
 285 167 285 167 284 163.5 c 128,-1,39
 283 160 283 160 283 155 c 1,40,-1
 555 51 l 1,41,-1
 659 541 l 2,42,43
 665 567 665 567 685 585.5 c 128,-1,44
 705 604 705 604 730 604 c 1,45,-1
 612 54 l 2,46,47
 606 27 606 27 585.5 9 c 128,-1,48
 565 -9 565 -9 541 -9 c 1,49,-1
 271 95 l 1,50,-1
 270 87 l 2,51,52
 261 47 261 47 226 19 c 128,-1,53
 191 -9 191 -9 152 -9 c 0,54,55
 112 -9 112 -9 90 19 c 128,-1,56
 68 47 68 47 77 87 c 0,57,58
 84 127 84 127 118 155.5 c 128,-1,59
 152 184 152 184 193 184 c 0,60,61
 200 184 200 184 211.5 181.5 c 128,-1,62
 223 179 223 179 229 175 c 1,63,64
 243 228 243 228 277.5 271 c 128,-1,65
 312 314 312 314 354 357 c 0,66,67
 396 398 396 398 405 437 c 0,68,69
 410 455 410 455 410 474 c 128,-1,70
 410 493 410 493 407 510.5 c 128,-1,71
 404 528 404 528 397 540 c 128,-1,72
 390 552 390 552 381 556 c 1,73,74
 366 546 366 546 351 534 c 0,75,76
 344 528 344 528 335 520 c 0,77,78
 324 512 324 512 312.5 512 c 128,-1,79
 301 512 301 512 295 520 c 2,80,-1
 264 556 l 1,81,82
 247 550 247 550 227.5 531 c 128,-1,83
 208 512 208 512 193 482 c 1,0,1
178 405 m 256,84,85
 173 384 173 384 183.5 370.5 c 128,-1,86
 194 357 194 357 216 357 c 256,87,88
 237 357 237 357 253.5 370.5 c 128,-1,89
 270 384 270 384 274 405 c 256,90,91
 279 427 279 427 267.5 440.5 c 128,-1,92
 256 454 256 454 235 454 c 256,93,94
 214 454 214 454 198 440.5 c 128,-1,95
 182 427 182 427 178 405 c 256,84,85
122 87 m 256,96,97
 118 66 118 66 130 51 c 128,-1,98
 142 36 142 36 163 36 c 256,99,100
 184 36 184 36 202 51 c 128,-1,101
 220 66 220 66 225 87 c 256,102,103
 229 109 229 109 217 124 c 128,-1,104
 205 139 205 139 184 139 c 256,105,106
 163 139 163 139 145 124 c 128,-1,107
 127 109 127 109 122 87 c 256,96,97
EndSplineSet
EndChar
StartChar: uni0E07
Encoding: 3591 3591 218
Width: 545
VWidth: 1507
Flags: W
HStem: -9 21G<381.253 407> 421 43<427.025 500.787> 561 45<440.108 514.444>
VStem: 377 45<484.096 546.644> 519 45<495.643 542.608>
Fore
490 606 m 256,0,1
 529 606 529 606 550 579 c 128,-1,2
 571 552 571 552 564 512 c 2,3,-1
 466 54 l 2,4,5
 460 27 460 27 439.5 9 c 128,-1,6
 419 -9 419 -9 395 -9 c 1,7,-1
 140 362 l 2,8,9
 127 378 127 378 131.5 401 c 128,-1,10
 136 424 136 424 157 440 c 1,11,-1
 425 51 l 1,12,-1
 427 56 l 1,13,-1
 413 77 l 1,14,15
 422 119 422 119 434 178 c 128,-1,16
 446 237 446 237 458 291 c 0,17,18
 472 354 472 354 487 421 c 1,19,20
 505 430 505 430 515 445 c 1,21,-1
 515 449 l 1,22,23
 491 421 491 421 451 421 c 128,-1,24
 411 421 411 421 390 447 c 128,-1,25
 369 473 369 473 377 512 c 256,26,27
 384 552 384 552 417.5 579 c 128,-1,28
 451 606 451 606 490 606 c 256,0,1
460 464 m 0,29,30
 481 464 481 464 497.5 478.5 c 128,-1,31
 514 493 514 493 519 512 c 0,32,33
 523 534 523 534 512.5 547.5 c 128,-1,34
 502 561 502 561 481 561 c 0,35,36
 461 561 461 561 444 547.5 c 128,-1,37
 427 534 427 534 422 512 c 0,38,39
 418 493 418 493 429 478.5 c 128,-1,40
 440 464 440 464 460 464 c 0,29,30
EndSplineSet
EndChar
StartChar: uni0E08
Encoding: 3592 3592 219
Width: 587
VWidth: 1507
Flags: W
HStem: -9 21G<434.347 449> 264 45<302.556 374.874> 405 46<315.446 390.404> 555 51<346.278 443.992>
VStem: 253 45<327.362 391.036>
Fore
298 357 m 256,0,1
 294 336 294 336 304.5 322.5 c 128,-1,2
 315 309 315 309 336 309 c 256,3,4
 357 309 357 309 373.5 322.5 c 128,-1,5
 390 336 390 336 395 357 c 256,6,7
 399 378 399 378 388.5 391.5 c 128,-1,8
 378 405 378 405 357 405 c 256,9,10
 336 405 336 405 319.5 391.5 c 128,-1,11
 303 378 303 378 298 357 c 256,0,1
398 285 m 1,12,13
 408 295 408 295 415 311 c 1,14,-1
 415 315 l 1,15,16
 401 289 401 289 377.5 276.5 c 128,-1,17
 354 264 354 264 327 264 c 0,18,19
 288 264 288 264 267 291 c 128,-1,20
 246 318 246 318 253 357 c 256,21,22
 261 396 261 396 294 423.5 c 128,-1,23
 327 451 327 451 366 451 c 0,24,25
 398 451 398 451 418.5 432 c 128,-1,26
 439 413 439 413 442 384 c 2,27,-1
 476 101 l 1,28,-1
 478 106 l 1,29,-1
 473 160 l 1,30,-1
 526 405 l 2,31,32
 532 436 532 436 524.5 463 c 128,-1,33
 517 490 517 490 497.5 510.5 c 128,-1,34
 478 531 478 531 448.5 543 c 128,-1,35
 419 555 419 555 383 555 c 256,36,37
 347 555 347 555 312 543 c 128,-1,38
 277 531 277 531 249.5 510.5 c 128,-1,39
 222 490 222 490 202 463 c 128,-1,40
 182 436 182 436 176 405 c 0,41,42
 173 396 173 396 172.5 391 c 128,-1,43
 172 386 172 386 172 377 c 1,44,45
 148 377 148 377 133 393.5 c 128,-1,46
 118 410 118 410 127 434 c 0,47,48
 140 470 140 470 167 502 c 128,-1,49
 194 534 194 534 229.5 557 c 128,-1,50
 265 580 265 580 306.5 593 c 128,-1,51
 348 606 348 606 393 606 c 0,52,53
 442 606 442 606 481 590 c 128,-1,54
 520 574 520 574 545.5 547 c 128,-1,55
 571 520 571 520 581.5 484 c 128,-1,56
 592 448 592 448 583 405 c 2,57,-1
 508 54 l 2,58,59
 502 29 502 29 481.5 10 c 128,-1,60
 461 -9 461 -9 437 -9 c 1,61,-1
 398 285 l 1,12,13
EndSplineSet
EndChar
StartChar: uni0E09
Encoding: 3593 3593 220
Width: 625
VWidth: 1507
Flags: W
HStem: -9 45<456.066 533.445> 185 46<168.556 243.266> 327 45<181.446 256.479> 555 51<354.215 453.182>
VStem: 119 45<249.362 312.926> 261 45<262.594 279 279 308.638>
Fore
229 185 m 1,0,1
 249 196 249 196 258 210 c 1,2,-1
 258 214 l 1,3,4
 234 185 234 185 193 185 c 0,5,6
 154 185 154 185 133 212.5 c 128,-1,7
 112 240 112 240 119 279 c 256,8,9
 127 318 127 318 160 345 c 128,-1,10
 193 372 193 372 232 372 c 256,11,12
 271 372 271 372 292.5 345 c 128,-1,13
 314 318 314 318 306 279 c 2,14,-1
 258 54 l 1,15,-1
 446 157 l 2,16,17
 467 169 467 169 482 186 c 128,-1,18
 497 203 497 203 500 219 c 2,19,-1
 541 405 l 2,20,21
 547 434 547 434 538 461 c 128,-1,22
 529 488 529 488 508.5 509.5 c 128,-1,23
 488 531 488 531 458 543 c 128,-1,24
 428 555 428 555 390 555 c 256,25,26
 353 555 353 555 316.5 543 c 128,-1,27
 280 531 280 531 251.5 509.5 c 128,-1,28
 223 488 223 488 202.5 461 c 128,-1,29
 182 434 182 434 176 405 c 1,30,31
 145 404 145 404 136 424.5 c 128,-1,32
 127 445 127 445 143 470 c 0,33,34
 163 502 163 502 193 527 c 128,-1,35
 223 552 223 552 257.5 570 c 128,-1,36
 292 588 292 588 329 597 c 128,-1,37
 366 606 366 606 401 606 c 0,38,39
 442 606 442 606 482 592.5 c 128,-1,40
 522 579 522 579 551 553.5 c 128,-1,41
 580 528 580 528 594.5 490 c 128,-1,42
 609 452 609 452 598 405 c 2,43,-1
 558 219 l 2,44,45
 553 197 553 197 543 181 c 1,46,47
 573 173 573 173 589.5 147.5 c 128,-1,48
 606 122 606 122 598 87 c 0,49,50
 589 47 589 47 554.5 19 c 128,-1,51
 520 -9 520 -9 481 -9 c 0,52,53
 443 -9 443 -9 421 16 c 128,-1,54
 399 41 399 41 402 77 c 1,55,-1
 244 -9 l 1,56,57
 220 -9 220 -9 207 10 c 128,-1,58
 194 29 194 29 200 54 c 2,59,-1
 229 185 l 1,0,1
164 279 m 256,60,61
 160 258 160 258 170.5 244.5 c 128,-1,62
 181 231 181 231 202 231 c 256,63,64
 223 231 223 231 239.5 244.5 c 128,-1,65
 256 258 256 258 261 279 c 256,66,67
 265 300 265 300 254.5 313.5 c 128,-1,68
 244 327 244 327 223 327 c 256,69,70
 202 327 202 327 185.5 313.5 c 128,-1,71
 169 300 169 300 164 279 c 256,60,61
451 87 m 256,72,73
 446 66 446 66 458 51 c 128,-1,74
 470 36 470 36 491 36 c 256,75,76
 512 36 512 36 530.5 51 c 128,-1,77
 549 66 549 66 553 87 c 256,78,79
 558 109 558 109 546 124 c 128,-1,80
 534 139 534 139 512 139 c 256,81,82
 491 139 491 139 473 124 c 128,-1,83
 455 109 455 109 451 87 c 256,72,73
EndSplineSet
EndChar
StartChar: uni0E0A
Encoding: 3594 3594 221
Width: 604
VWidth: 1507
Flags: W
HStem: -9 51<298.86 409.19> 312 45<181.355 257.239> 454 39<210.262 269.507> 555 51<255.29 377.553>
Fore
228 166 m 2,0,1
 240 222 240 222 275.5 268 c 128,-1,2
 311 314 311 314 354 357 c 0,3,4
 396 398 396 398 405 437 c 0,5,6
 416 482 416 482 390.5 518.5 c 128,-1,7
 365 555 365 555 320 555 c 0,8,9
 280 555 280 555 247 534.5 c 128,-1,10
 214 514 214 514 194 484 c 1,11,12
 175 469 175 469 166 454 c 1,13,-1
 167 449 l 1,14,15
 179 470 179 470 202 481.5 c 128,-1,16
 225 493 225 493 244 493 c 0,17,18
 283 493 283 493 305 468 c 128,-1,19
 327 443 327 443 320 405 c 0,20,21
 311 366 311 366 277.5 339 c 128,-1,22
 244 312 244 312 205 312 c 0,23,24
 157 312 157 312 136 349.5 c 128,-1,25
 115 387 115 387 125 437 c 0,26,27
 133 472 133 472 152.5 503 c 128,-1,28
 172 534 172 534 200 556.5 c 128,-1,29
 228 579 228 579 261.5 592.5 c 128,-1,30
 295 606 295 606 330 606 c 256,31,32
 365 606 365 606 393 592.5 c 128,-1,33
 421 579 421 579 439 556.5 c 128,-1,34
 457 534 457 534 463.5 503 c 128,-1,35
 470 472 470 472 463 437 c 0,36,37
 455 407 455 407 434 378.5 c 128,-1,38
 413 350 413 350 384 321 c 0,39,40
 350 286 350 286 323.5 249.5 c 128,-1,41
 297 213 297 213 285 166 c 2,42,-1
 279 137 l 2,43,44
 270 95 270 95 294 68.5 c 128,-1,45
 318 42 318 42 360 42 c 256,46,47
 402 42 402 42 439 67.5 c 128,-1,48
 476 93 476 93 485 137 c 2,49,-1
 526 327 l 2,50,51
 538 383 538 383 530.5 405.5 c 128,-1,52
 523 428 523 428 502 436 c 0,53,54
 482 440 482 440 487 457 c 0,55,56
 490 473 490 473 511 478 c 0,57,58
 529 482 529 482 545.5 495 c 128,-1,59
 562 508 562 508 575.5 524.5 c 128,-1,60
 589 541 589 541 599 560 c 128,-1,61
 609 579 609 579 612 595 c 2,62,63
 615 604 615 604 615.5 609.5 c 128,-1,64
 616 615 616 615 615 624 c 1,65,66
 639 624 639 624 653.5 607.5 c 128,-1,67
 668 591 668 591 660 568 c 0,68,69
 647 534 647 534 619.5 501.5 c 128,-1,70
 592 469 592 469 562 457 c 1,71,72
 585 439 585 439 588.5 405.5 c 128,-1,73
 592 372 592 372 583 327 c 2,74,-1
 543 137 l 2,75,76
 535 104 535 104 516 77 c 128,-1,77
 497 50 497 50 471 31 c 128,-1,78
 445 12 445 12 413 1.5 c 128,-1,79
 381 -9 381 -9 350 -9 c 256,80,81
 318 -9 318 -9 291.5 1.5 c 128,-1,82
 265 12 265 12 247 31 c 128,-1,83
 229 50 229 50 221.5 77 c 128,-1,84
 214 104 214 104 222 137 c 2,85,-1
 228 166 l 2,0,1
178 405 m 256,86,87
 173 384 173 384 183.5 370.5 c 128,-1,88
 194 357 194 357 216 357 c 256,89,90
 237 357 237 357 253.5 370.5 c 128,-1,91
 270 384 270 384 274 405 c 256,92,93
 279 427 279 427 267.5 440.5 c 128,-1,94
 256 454 256 454 235 454 c 256,95,96
 214 454 214 454 198 440.5 c 128,-1,97
 182 427 182 427 178 405 c 256,86,87
EndSplineSet
EndChar
StartChar: uni0E0B
Encoding: 3595 3595 222
Width: 604
VWidth: 1507
Flags: W
HStem: -9 51<298.86 409.19> 312 45<181.355 257.239> 454 39<210.262 269.507> 586 20G<258 291.5 373.5 394.5>
VStem: 410 58<445.96 509.953>
Fore
228 166 m 2,0,1
 240 222 240 222 275.5 268 c 128,-1,2
 311 314 311 314 354 357 c 0,3,4
 396 398 396 398 405 437 c 0,5,6
 410 455 410 455 410 474 c 128,-1,7
 410 493 410 493 407 510.5 c 128,-1,8
 404 528 404 528 397 540 c 128,-1,9
 390 552 390 552 381 556 c 1,10,11
 366 546 366 546 351 534 c 0,12,13
 344 528 344 528 335 520 c 0,14,15
 324 512 324 512 312.5 512 c 128,-1,16
 301 512 301 512 295 520 c 2,17,-1
 264 556 l 1,18,19
 247 550 247 550 227.5 531 c 128,-1,20
 208 512 208 512 193 482 c 1,21,22
 175 469 175 469 166 454 c 1,23,-1
 167 449 l 1,24,25
 179 470 179 470 202 481.5 c 128,-1,26
 225 493 225 493 244 493 c 0,27,28
 283 493 283 493 305 468 c 128,-1,29
 327 443 327 443 320 405 c 0,30,31
 311 366 311 366 277.5 339 c 128,-1,32
 244 312 244 312 205 312 c 0,33,34
 157 312 157 312 136 349.5 c 128,-1,35
 115 387 115 387 125 437 c 0,36,37
 133 467 133 467 146.5 496.5 c 128,-1,38
 160 526 160 526 181 549 c 0,39,40
 231 606 231 606 285 606 c 0,41,42
 298 606 298 606 307.5 594 c 128,-1,43
 317 582 317 582 326 571 c 1,44,45
 338 579 338 579 352 592.5 c 128,-1,46
 366 606 366 606 381 606 c 0,47,48
 408 606 408 606 427 591 c 128,-1,49
 446 576 446 576 456.5 552.5 c 128,-1,50
 467 529 467 529 468 499 c 128,-1,51
 469 469 469 469 463 437 c 0,52,53
 455 407 455 407 434 378.5 c 128,-1,54
 413 350 413 350 384 321 c 0,55,56
 350 286 350 286 323.5 249.5 c 128,-1,57
 297 213 297 213 285 166 c 2,58,-1
 279 137 l 2,59,60
 270 95 270 95 294 68.5 c 128,-1,61
 318 42 318 42 360 42 c 256,62,63
 402 42 402 42 439 67.5 c 128,-1,64
 476 93 476 93 485 137 c 2,65,-1
 526 327 l 2,66,67
 538 383 538 383 530.5 405.5 c 128,-1,68
 523 428 523 428 502 436 c 0,69,70
 482 440 482 440 487 457 c 0,71,72
 490 473 490 473 511 478 c 0,73,74
 529 482 529 482 545.5 495 c 128,-1,75
 562 508 562 508 575.5 524.5 c 128,-1,76
 589 541 589 541 599 560 c 128,-1,77
 609 579 609 579 612 595 c 2,78,79
 615 604 615 604 615.5 609.5 c 128,-1,80
 616 615 616 615 615 624 c 1,81,82
 639 624 639 624 653.5 607.5 c 128,-1,83
 668 591 668 591 660 568 c 0,84,85
 647 534 647 534 619.5 501.5 c 128,-1,86
 592 469 592 469 562 457 c 1,87,88
 585 439 585 439 588.5 405.5 c 128,-1,89
 592 372 592 372 583 327 c 2,90,-1
 543 137 l 2,91,92
 535 104 535 104 516 77 c 128,-1,93
 497 50 497 50 471 31 c 128,-1,94
 445 12 445 12 413 1.5 c 128,-1,95
 381 -9 381 -9 350 -9 c 256,96,97
 318 -9 318 -9 291.5 1.5 c 128,-1,98
 265 12 265 12 247 31 c 128,-1,99
 229 50 229 50 221.5 77 c 128,-1,100
 214 104 214 104 222 137 c 2,101,-1
 228 166 l 2,0,1
178 405 m 256,102,103
 173 384 173 384 183.5 370.5 c 128,-1,104
 194 357 194 357 216 357 c 256,105,106
 237 357 237 357 253.5 370.5 c 128,-1,107
 270 384 270 384 274 405 c 256,108,109
 279 427 279 427 267.5 440.5 c 128,-1,110
 256 454 256 454 235 454 c 256,111,112
 214 454 214 454 198 440.5 c 128,-1,113
 182 427 182 427 178 405 c 256,102,103
EndSplineSet
EndChar
StartChar: uni0E0C
Encoding: 3596 3596 223
Width: 908
VWidth: 1507
Flags: W
HStem: -9 45<184.562 260.239 419.82 495.239> 133 45<210.805 271.427 431.761 501.592> 555 51<358.783 480.165>
VStem: 369 46<54.8262 119.076>
Fore
213 178 m 1,0,1
 196 169 196 169 182 154 c 1,2,-1
 184 149 l 1,3,4
 197 166 197 166 212.5 172 c 128,-1,5
 228 178 228 178 249 178 c 0,6,7
 288 178 288 178 309 151 c 128,-1,8
 330 124 330 124 321 84 c 0,9,10
 314 45 314 45 280.5 18 c 128,-1,11
 247 -9 247 -9 208 -9 c 256,12,13
 169 -9 169 -9 148 18 c 128,-1,14
 127 45 127 45 134 84 c 2,15,-1
 179 291 l 1,16,17
 176 294 176 294 171.5 310.5 c 128,-1,18
 167 327 167 327 161 345 c 0,19,20
 155 366 155 366 146 392 c 0,21,22
 143 398 143 398 146 405 c 1,23,24
 155 451 155 451 184.5 488 c 128,-1,25
 214 525 214 525 253 551 c 128,-1,26
 292 577 292 577 338 591.5 c 128,-1,27
 384 606 384 606 428 606 c 0,28,29
 470 606 470 606 510 592.5 c 128,-1,30
 550 579 550 579 579.5 553.5 c 128,-1,31
 609 528 609 528 622.5 490 c 128,-1,32
 636 452 636 452 626 405 c 2,33,-1
 570 145 l 1,34,-1
 772 50 l 1,35,-1
 876 541 l 2,36,37
 882 567 882 567 902 585.5 c 128,-1,38
 922 604 922 604 947 604 c 1,39,-1
 829 54 l 2,40,41
 823 27 823 27 802.5 9 c 128,-1,42
 782 -9 782 -9 758 -9 c 1,43,-1
 556 84 l 1,44,45
 549 45 549 45 515.5 18 c 128,-1,46
 482 -9 482 -9 443 -9 c 256,47,48
 404 -9 404 -9 383 18 c 128,-1,49
 362 45 362 45 369 84 c 0,50,51
 378 124 378 124 411.5 151 c 128,-1,52
 445 178 445 178 484 178 c 0,53,54
 494 178 494 178 503 175 c 128,-1,55
 512 172 512 172 520 169 c 1,56,57
 519 175 519 175 520 181 c 2,58,-1
 568 405 l 2,59,60
 574 434 574 434 565 461 c 128,-1,61
 556 488 556 488 535.5 509.5 c 128,-1,62
 515 531 515 531 485 543 c 128,-1,63
 455 555 455 555 418 555 c 128,-1,64
 381 555 381 555 346 543.5 c 128,-1,65
 311 532 311 532 282 512.5 c 128,-1,66
 253 493 253 493 233 467.5 c 128,-1,67
 213 442 213 442 205 413 c 1,68,69
 206 408 206 408 211 391.5 c 128,-1,70
 216 375 216 375 222 357 c 0,71,72
 228 336 228 336 237 312 c 0,73,74
 238 307 238 307 238 298 c 1,75,-1
 213 178 l 1,0,1
415 84 m 0,76,77
 411 63 411 63 422 49.5 c 128,-1,78
 433 36 433 36 454 36 c 256,79,80
 475 36 475 36 491.5 49.5 c 128,-1,81
 508 63 508 63 511 84 c 0,82,83
 515 106 515 106 504.5 119.5 c 128,-1,84
 494 133 494 133 473 133 c 256,85,86
 452 133 452 133 435.5 119.5 c 128,-1,87
 419 106 419 106 415 84 c 0,76,77
238 133 m 256,88,89
 217 133 217 133 200.5 119.5 c 128,-1,90
 184 106 184 106 179 84 c 0,91,92
 176 63 176 63 186.5 49.5 c 128,-1,93
 197 36 197 36 219 36 c 256,94,95
 240 36 240 36 256.5 49.5 c 128,-1,96
 273 63 273 63 276 84 c 0,97,98
 280 106 280 106 269.5 119.5 c 128,-1,99
 259 133 259 133 238 133 c 256,88,89
EndSplineSet
EndChar
StartChar: uni0E0D
Encoding: 3597 3597 224
Width: 878
VWidth: 1507
Flags: W
HStem: -268 51<538.406 626.108> -210 37<503.16 549.015> -86 42<495.954 564.836> -9 57<572.098 681.888> -9 45<184.562 260.239> 133 45<210.805 271.427> 555 51<344.518 460.197>
VStem: 134 45<56.2401 100.1>
Fore
238 133 m 256,0,1
 217 133 217 133 200.5 119.5 c 128,-1,2
 184 106 184 106 179 84 c 0,3,4
 176 63 176 63 186.5 49.5 c 128,-1,5
 197 36 197 36 219 36 c 256,6,7
 240 36 240 36 256.5 49.5 c 128,-1,8
 273 63 273 63 276 84 c 0,9,10
 280 106 280 106 269.5 119.5 c 128,-1,11
 259 133 259 133 238 133 c 256,0,1
249 178 m 0,12,13
 288 178 288 178 309 151 c 128,-1,14
 330 124 330 124 321 84 c 0,15,16
 314 45 314 45 280.5 18 c 128,-1,17
 247 -9 247 -9 208 -9 c 256,18,19
 169 -9 169 -9 148 18 c 128,-1,20
 127 45 127 45 134 84 c 2,21,-1
 179 291 l 1,22,23
 176 294 176 294 171.5 310.5 c 128,-1,24
 167 327 167 327 161 345 c 0,25,26
 155 366 155 366 146 392 c 0,27,28
 143 398 143 398 146 405 c 1,29,30
 155 448 155 448 180 485 c 128,-1,31
 205 522 205 522 240.5 549 c 128,-1,32
 276 576 276 576 320.5 591 c 128,-1,33
 365 606 365 606 413 606 c 256,34,35
 461 606 461 606 499 591 c 128,-1,36
 537 576 537 576 561.5 549 c 128,-1,37
 586 522 586 522 596 485 c 128,-1,38
 606 448 606 448 597 405 c 2,39,-1
 540 137 l 2,40,41
 532 98 532 98 557 73 c 128,-1,42
 582 48 582 48 630 48 c 0,43,44
 677 48 677 48 714.5 73 c 128,-1,45
 752 98 752 98 760 137 c 2,46,-1
 846 541 l 2,47,48
 852 567 852 567 872 585.5 c 128,-1,49
 892 604 892 604 916 604 c 1,50,-1
 817 137 l 2,51,52
 809 104 809 104 789.5 77 c 128,-1,53
 770 50 770 50 742 31 c 128,-1,54
 714 12 714 12 682 1.5 c 128,-1,55
 650 -9 650 -9 618 -9 c 0,56,57
 588 -9 588 -9 560 1 c 128,-1,58
 532 11 532 11 512.5 29.5 c 128,-1,59
 493 48 493 48 484 75 c 128,-1,60
 475 102 475 102 482 137 c 2,61,-1
 540 405 l 2,62,63
 546 439 546 439 537.5 466 c 128,-1,64
 529 493 529 493 510 512.5 c 128,-1,65
 491 532 491 532 463.5 543.5 c 128,-1,66
 436 555 436 555 402 555 c 0,67,68
 372 555 372 555 341.5 545 c 128,-1,69
 311 535 311 535 284.5 517 c 128,-1,70
 258 499 258 499 237 472.5 c 128,-1,71
 216 446 216 446 205 413 c 1,72,73
 206 408 206 408 211 391.5 c 128,-1,74
 216 375 216 375 222 357 c 0,75,76
 228 336 228 336 237 312 c 0,77,78
 238 307 238 307 238 298 c 1,79,-1
 213 178 l 1,80,81
 196 169 196 169 182 154 c 1,82,-1
 184 149 l 1,83,84
 197 166 197 166 212.5 172 c 128,-1,85
 228 178 228 178 249 178 c 0,12,13
481 -130 m 0,86,87
 478 -148 478 -148 487.5 -160.5 c 128,-1,88
 497 -173 497 -173 515 -173 c 256,89,90
 534 -173 534 -173 549.5 -160.5 c 128,-1,91
 565 -148 565 -148 568 -130 c 0,92,93
 573 -112 573 -112 562.5 -99 c 128,-1,94
 552 -86 552 -86 534 -86 c 256,95,96
 515 -86 515 -86 500 -99 c 128,-1,97
 485 -112 485 -112 481 -130 c 0,86,87
571 -217 m 0,98,99
 600 -217 600 -217 625.5 -201 c 128,-1,100
 651 -185 651 -185 669 -160.5 c 128,-1,101
 687 -136 687 -136 697 -105 c 128,-1,102
 707 -74 707 -74 705 -45 c 1,103,104
 733 -45 733 -45 745.5 -60 c 128,-1,105
 758 -75 758 -75 752 -99 c 0,106,107
 746 -131 746 -131 728.5 -161 c 128,-1,108
 711 -191 711 -191 685.5 -215.5 c 128,-1,109
 660 -240 660 -240 628.5 -254 c 128,-1,110
 597 -268 597 -268 561 -268 c 0,111,112
 532 -268 532 -268 507 -257.5 c 128,-1,113
 482 -247 482 -247 465 -229 c 128,-1,114
 448 -211 448 -211 440.5 -185.5 c 128,-1,115
 433 -160 433 -160 439 -130 c 0,116,117
 446 -95 446 -95 476 -69.5 c 128,-1,118
 506 -44 506 -44 543 -44 c 0,119,120
 577 -44 577 -44 597.5 -69.5 c 128,-1,121
 618 -95 618 -95 610 -130 c 256,122,123
 603 -164 603 -164 573 -187 c 128,-1,124
 543 -210 543 -210 508 -210 c 1,125,-1
 503 -211 l 1,126,127
 523 -214 523 -214 538 -210 c 1,128,129
 553 -217 553 -217 571 -217 c 0,98,99
EndSplineSet
Substitution2: "Single Substitution lookup 22 subtable" uni0E0D.alt1
Substitution2: "Single Substitution lookup 22 subtable" uni0E0D.alt1
EndChar
StartChar: uni0E0E
Encoding: 3598 3598 225
AltUni2: 00f71b.ffffffff.0
Width: 658
VWidth: 1507
Flags: W
HStem: -9 45<112.267 187.054> 133 45<124.946 199.446> 555 51<386.1 507.932>
VStem: 62 45<56.2401 84 84 119.076>
Fore
197 -226 m 0,0,1
 223 -228 223 -228 247 -213.5 c 128,-1,2
 271 -199 271 -199 300 -169 c 1,3,4
 279 -152 279 -152 258 -146 c 128,-1,5
 237 -140 237 -140 216 -143 c 0,6,7
 200 -146 200 -146 184.5 -154.5 c 128,-1,8
 169 -163 169 -163 163 -185 c 0,9,10
 155 -223 155 -223 197 -226 c 0,0,1
107 84 m 0,11,12
 104 63 104 63 114.5 49.5 c 128,-1,13
 125 36 125 36 146 36 c 256,14,15
 167 36 167 36 183.5 49.5 c 128,-1,16
 200 63 200 63 203 84 c 0,17,18
 208 106 208 106 197.5 119.5 c 128,-1,19
 187 133 187 133 166 133 c 256,20,21
 145 133 145 133 128.5 119.5 c 128,-1,22
 112 106 112 106 107 84 c 0,11,12
235 288 m 1,23,24
 232 292 232 292 222.5 309 c 128,-1,25
 213 326 213 326 202 342 c 2,26,-1
 175 387 l 1,27,28
 172 398 172 398 173 405 c 0,29,30
 182 451 182 451 211.5 488.5 c 128,-1,31
 241 526 241 526 280.5 551.5 c 128,-1,32
 320 577 320 577 365.5 591.5 c 128,-1,33
 411 606 411 606 455 606 c 0,34,35
 497 606 497 606 537 592.5 c 128,-1,36
 577 579 577 579 606.5 553.5 c 128,-1,37
 636 528 636 528 649.5 490 c 128,-1,38
 663 452 663 452 653 405 c 2,39,-1
 543 -113 l 2,40,41
 540 -125 540 -125 534 -135.5 c 128,-1,42
 528 -146 528 -146 520 -152 c 2,43,-1
 384 -265 l 2,44,45
 374 -274 374 -274 362 -271 c 0,46,47
 350 -270 350 -270 348 -258 c 0,48,49
 345 -240 345 -240 340 -225.5 c 128,-1,50
 335 -211 335 -211 327 -199 c 1,51,52
 250 -276 250 -276 178 -271 c 0,53,54
 140 -268 140 -268 121 -245 c 128,-1,55
 102 -222 102 -222 110 -185 c 0,56,57
 118 -151 118 -151 145.5 -127.5 c 128,-1,58
 173 -104 173 -104 214 -98 c 0,59,60
 271 -90 271 -90 323 -124 c 2,61,-1
 332 -131 l 1,62,63
 345 -113 345 -113 357 -94 c 128,-1,64
 381 -56 l 1,65,66
 398 -63 398 -63 401.5 -80.5 c 128,-1,67
 405 -98 405 -98 393 -116 c 0,68,69
 386 -128 386 -128 377.5 -138.5 c 128,-1,70
 369 -149 369 -149 362 -160 c 1,71,72
 369 -170 369 -170 376.5 -183.5 c 128,-1,73
 384 -197 384 -197 389 -214 c 1,74,-1
 479 -140 l 1,75,-1
 595 405 l 2,76,77
 601 434 601 434 593 461 c 128,-1,78
 585 488 585 488 564.5 509.5 c 128,-1,79
 544 531 544 531 513 543 c 128,-1,80
 482 555 482 555 445 555 c 128,-1,81
 408 555 408 555 373.5 543.5 c 128,-1,82
 339 532 339 532 310.5 512.5 c 128,-1,83
 282 493 282 493 261 467.5 c 128,-1,84
 240 442 240 442 232 413 c 1,85,86
 235 407 235 407 244 391 c 128,-1,87
 253 375 253 375 264 359 c 0,88,89
 276 339 276 339 291 315 c 0,90,91
 295 307 295 307 294 297 c 2,92,-1
 249 84 l 2,93,94
 241 45 241 45 208 18 c 128,-1,95
 175 -9 175 -9 136 -9 c 256,96,97
 96 -9 96 -9 75 18 c 128,-1,98
 54 45 54 45 62 84 c 0,99,100
 71 124 71 124 104 151 c 128,-1,101
 137 178 137 178 176 178 c 0,102,103
 217 178 217 178 229 149 c 1,104,-1
 231 154 l 1,105,106
 226 169 226 169 213 178 c 1,107,-1
 235 288 l 1,23,24
EndSplineSet
Substitution2: "Single Substitution lookup 22 subtable" uni0E0E.alt1
Substitution2: "Single Substitution lookup 22 subtable" uni0E0E.alt1
EndChar
StartChar: uni0E0F
Encoding: 3599 3599 226
AltUni2: 00f71c.ffffffff.0
Width: 657
VWidth: 1507
Flags: W
HStem: -9 45<112.267 187.054> 133 45<124.946 199.446> 555 51<386.1 507.932>
VStem: 62 45<56.2401 119.076>
Fore
176 178 m 0,0,1
 217 178 217 178 229 149 c 1,2,-1
 231 154 l 1,3,4
 226 169 226 169 213 178 c 1,5,-1
 235 288 l 1,6,7
 232 292 232 292 222.5 309 c 128,-1,8
 213 326 213 326 202 342 c 2,9,-1
 175 387 l 1,10,11
 172 398 172 398 173 405 c 0,12,13
 182 451 182 451 211.5 488.5 c 128,-1,14
 241 526 241 526 280.5 551.5 c 128,-1,15
 320 577 320 577 365.5 591.5 c 128,-1,16
 411 606 411 606 455 606 c 0,17,18
 497 606 497 606 537 592.5 c 128,-1,19
 577 579 577 579 606.5 553.5 c 128,-1,20
 636 528 636 528 649.5 490 c 128,-1,21
 663 452 663 452 653 405 c 2,22,-1
 532 -163 l 1,23,24
 529 -170 529 -170 524 -180 c 128,-1,25
 519 -190 519 -190 511 -196 c 2,26,-1
 427 -265 l 2,27,28
 419 -273 419 -273 409 -273 c 128,-1,29
 399 -273 399 -273 395 -265 c 2,30,-1
 353 -211 l 1,31,-1
 286 -265 l 2,32,33
 276 -274 276 -274 264 -271 c 0,34,35
 252 -270 252 -270 250 -258 c 0,36,37
 246 -223 246 -223 229 -199 c 1,38,39
 152 -276 152 -276 80 -271 c 0,40,41
 42 -268 42 -268 23.5 -245 c 128,-1,42
 5 -222 5 -222 12 -185 c 0,43,44
 20 -151 20 -151 47.5 -127.5 c 128,-1,45
 75 -104 75 -104 116 -98 c 0,46,47
 173 -90 173 -90 225 -124 c 2,48,-1
 234 -131 l 1,49,50
 243 -119 243 -119 252.5 -105.5 c 128,-1,51
 262 -92 262 -92 271 -77 c 0,52,53
 273 -74 273 -74 276.5 -67 c 128,-1,54
 280 -60 280 -60 283 -56 c 1,55,56
 300 -63 300 -63 303.5 -80.5 c 128,-1,57
 307 -98 307 -98 295 -116 c 0,58,59
 288 -128 288 -128 279.5 -138.5 c 128,-1,60
 271 -149 271 -149 264 -160 c 1,61,62
 271 -170 271 -170 280 -185 c 128,-1,63
 289 -200 289 -200 294 -217 c 1,64,-1
 350 -170 l 2,65,66
 371 -155 371 -155 381 -170 c 2,67,-1
 422 -220 l 1,68,-1
 470 -182 l 1,69,-1
 595 405 l 2,70,71
 601 434 601 434 593 461 c 128,-1,72
 585 488 585 488 564.5 509.5 c 128,-1,73
 544 531 544 531 513 543 c 128,-1,74
 482 555 482 555 445 555 c 128,-1,75
 408 555 408 555 373.5 543.5 c 128,-1,76
 339 532 339 532 310.5 512.5 c 128,-1,77
 282 493 282 493 261 467.5 c 128,-1,78
 240 442 240 442 232 413 c 1,79,80
 235 407 235 407 244 391 c 128,-1,81
 253 375 253 375 264 359 c 0,82,83
 276 339 276 339 291 315 c 0,84,85
 295 307 295 307 294 297 c 2,86,-1
 249 84 l 2,87,88
 241 45 241 45 208 18 c 128,-1,89
 175 -9 175 -9 136 -9 c 256,90,91
 96 -9 96 -9 75 18 c 128,-1,92
 54 45 54 45 62 84 c 0,93,94
 71 124 71 124 104 151 c 128,-1,95
 137 178 137 178 176 178 c 0,0,1
99 -226 m 0,96,97
 125 -228 125 -228 149 -213.5 c 128,-1,98
 173 -199 173 -199 202 -169 c 1,99,100
 181 -152 181 -152 160 -146 c 128,-1,101
 139 -140 139 -140 118 -143 c 0,102,103
 102 -146 102 -146 86.5 -154.5 c 128,-1,104
 71 -163 71 -163 65 -185 c 0,105,106
 57 -223 57 -223 99 -226 c 0,96,97
107 84 m 0,107,108
 104 63 104 63 114.5 49.5 c 128,-1,109
 125 36 125 36 146 36 c 256,110,111
 167 36 167 36 183.5 49.5 c 128,-1,112
 200 63 200 63 203 84 c 0,113,114
 208 106 208 106 197.5 119.5 c 128,-1,115
 187 133 187 133 166 133 c 256,116,117
 145 133 145 133 128.5 119.5 c 128,-1,118
 112 106 112 106 107 84 c 0,107,108
EndSplineSet
Substitution2: "Single Substitution lookup 22 subtable" uni0E0F.alt1
Substitution2: "Single Substitution lookup 22 subtable" uni0E0F.alt1
EndChar
StartChar: uni0E10
Encoding: 3600 3600 227
Width: 580
VWidth: 1507
Flags: W
HStem: -301 37<58.278 136.574> -193 38<72.8569 138.664 328.865 374.053> -77 42<343.488 398.475> -9 21G<408.614 427> 119 45<251.573 325.57> 261 45<262.908 338.48> 555 51<328.519 466.4>
VStem: 200 46<184.295 213 213 247.076> 283 43<-139.137 -87.8297>
Fore
381 -194 m 1,0,1
 395 -188 395 -188 404 -178 c 1,2,-1
 404 -173 l 1,3,4
 392 -185 392 -185 378.5 -189.5 c 128,-1,5
 365 -194 365 -194 347 -194 c 0,6,7
 315 -194 315 -194 295.5 -171.5 c 128,-1,8
 276 -149 276 -149 283 -115 c 0,9,10
 291 -81 291 -81 319.5 -58 c 128,-1,11
 348 -35 348 -35 381 -35 c 256,12,13
 415 -35 415 -35 433 -58 c 128,-1,14
 451 -81 451 -81 443 -115 c 2,15,-1
 424 -208 l 2,16,17
 421 -226 421 -226 408 -237 c 0,18,19
 405 -240 405 -240 394.5 -249 c 128,-1,20
 384 -258 384 -258 372 -268 c 2,21,-1
 342 -295 l 2,22,23
 335 -301 335 -301 327 -301 c 256,24,25
 320 -301 320 -301 315 -295 c 2,26,-1
 283 -252 l 1,27,-1
 234 -295 l 2,28,29
 226 -301 226 -301 217 -301 c 0,30,31
 206 -301 206 -301 203 -289 c 0,32,33
 200 -274 200 -274 197 -263 c 128,-1,34
 194 -252 194 -252 187 -241 c 1,35,36
 169 -267 169 -267 136.5 -284 c 128,-1,37
 104 -301 104 -301 74 -301 c 256,38,39
 44 -301 44 -301 28 -280 c 128,-1,40
 12 -259 12 -259 18 -229 c 0,41,42
 26 -196 26 -196 52 -175.5 c 128,-1,43
 78 -155 78 -155 110 -155 c 0,44,45
 134 -155 134 -155 155 -161 c 128,-1,46
 176 -167 176 -167 193 -182 c 1,47,48
 200 -172 200 -172 210 -156 c 128,-1,49
 220 -140 220 -140 232 -115 c 1,50,51
 247 -122 247 -122 249.5 -135.5 c 128,-1,52
 252 -149 252 -149 244 -166 c 0,53,54
 234 -188 234 -188 216 -208 c 1,55,56
 231 -226 231 -226 241 -255 c 1,57,-1
 283 -217 l 2,58,59
 289 -211 289 -211 298 -211 c 0,60,61
 304 -211 304 -211 311 -217 c 1,62,-1
 339 -258 l 1,63,-1
 375 -226 l 1,64,-1
 381 -194 l 1,0,1
83 -264 m 0,65,66
 122 -264 122 -264 166 -216 c 1,67,68
 149 -200 149 -200 133.5 -196.5 c 128,-1,69
 118 -193 118 -193 101 -193 c 0,70,71
 89 -193 89 -193 74.5 -201.5 c 128,-1,72
 60 -210 60 -210 56 -229 c 0,73,74
 53 -244 53 -244 60.5 -254 c 128,-1,75
 68 -264 68 -264 83 -264 c 0,65,66
326 -115 m 256,76,77
 323 -131 323 -131 331 -141.5 c 128,-1,78
 339 -152 339 -152 356 -152 c 256,79,80
 372 -152 372 -152 385 -141.5 c 128,-1,81
 398 -131 398 -131 401 -115 c 256,82,83
 404 -98 404 -98 396.5 -87.5 c 128,-1,84
 389 -77 389 -77 372 -77 c 256,85,86
 356 -77 356 -77 342.5 -87.5 c 128,-1,87
 329 -98 329 -98 326 -115 c 256,76,77
246 213 m 0,88,89
 243 191 243 191 253.5 177.5 c 128,-1,90
 264 164 264 164 285 164 c 256,91,92
 306 164 306 164 322.5 177.5 c 128,-1,93
 339 191 339 191 342 213 c 0,94,95
 347 234 347 234 336.5 247.5 c 128,-1,96
 326 261 326 261 304 261 c 256,97,98
 283 261 283 261 266.5 247.5 c 128,-1,99
 250 234 250 234 246 213 c 0,88,89
616 597 m 1,100,101
 638 586 638 586 639.5 566.5 c 128,-1,102
 641 547 641 547 626 526 c 2,103,-1
 571 451 l 2,104,105
 556 431 556 431 541 432.5 c 128,-1,106
 526 434 526 434 523 451 c 0,107,108
 515 496 515 496 477.5 525.5 c 128,-1,109
 440 555 440 555 389 555 c 0,110,111
 332 555 332 555 286 525.5 c 128,-1,112
 240 496 240 496 217 448 c 1,113,-1
 508 374 l 2,114,115
 526 369 526 369 536 352 c 128,-1,116
 546 335 546 335 540 312 c 2,117,-1
 485 54 l 2,118,119
 479 27 479 27 459 9 c 128,-1,120
 439 -9 439 -9 415 -9 c 1,121,-1
 362 157 l 1,122,123
 369 166 369 166 374 181 c 1,124,-1
 374 185 l 1,125,126
 357 151 357 151 330 135 c 128,-1,127
 303 119 303 119 274 119 c 0,128,129
 235 119 235 119 214 146 c 128,-1,130
 193 173 193 173 200 213 c 0,131,132
 210 252 210 252 243 279 c 128,-1,133
 276 306 276 306 315 306 c 0,134,135
 341 306 341 306 360.5 292.5 c 128,-1,136
 380 279 380 279 387 256 c 0,137,138
 390 249 390 249 399 219.5 c 128,-1,139
 408 190 408 190 419 155 c 0,140,141
 431 116 431 116 446 68 c 1,142,-1
 449 72 l 1,143,-1
 439 106 l 1,144,-1
 485 323 l 1,145,-1
 169 405 l 2,146,147
 160 408 160 408 154.5 416 c 128,-1,148
 149 424 149 424 152 436 c 0,149,150
 164 472 164 472 189 503.5 c 128,-1,151
 214 535 214 535 247 557.5 c 128,-1,152
 280 580 280 580 319.5 593 c 128,-1,153
 359 606 359 606 399 606 c 0,154,155
 464 606 464 606 510 573 c 128,-1,156
 556 540 556 540 568 491 c 1,157,-1
 570 496 l 1,158,159
 570 508 570 508 561 525 c 1,160,-1
 616 597 l 1,100,101
EndSplineSet
Substitution2: "Single Substitution lookup 22 subtable" uni0E10.alt1
Substitution2: "Single Substitution lookup 22 subtable" uni0E10.alt1
EndChar
StartChar: uni0E11
Encoding: 3601 3601 228
Width: 734
VWidth: 1507
Flags: W
HStem: -9 21G<250 276.588 587.272 595> 312 45<181.355 257.239> 454 39<210.262 269.507> 586 20G<258 291.5 373.5 394.5 662.5 694.5>
VStem: 410 58<445.96 509.953>
Fore
193 482 m 1,0,1
 175 469 175 469 166 454 c 1,2,-1
 167 449 l 1,3,4
 179 470 179 470 202 481.5 c 128,-1,5
 225 493 225 493 244 493 c 0,6,7
 283 493 283 493 305 468 c 128,-1,8
 327 443 327 443 320 405 c 0,9,10
 311 366 311 366 277.5 339 c 128,-1,11
 244 312 244 312 205 312 c 0,12,13
 157 312 157 312 136 349.5 c 128,-1,14
 115 387 115 387 125 437 c 0,15,16
 133 467 133 467 146.5 496.5 c 128,-1,17
 160 526 160 526 181 549 c 0,18,19
 231 606 231 606 285 606 c 0,20,21
 298 606 298 606 307.5 594 c 128,-1,22
 317 582 317 582 326 571 c 1,23,24
 338 579 338 579 352 592.5 c 128,-1,25
 366 606 366 606 381 606 c 0,26,27
 408 606 408 606 427 591 c 128,-1,28
 446 576 446 576 456.5 552.5 c 128,-1,29
 467 529 467 529 468 499 c 128,-1,30
 469 469 469 469 463 437 c 0,31,32
 455 407 455 407 434 378.5 c 128,-1,33
 413 350 413 350 384 321 c 0,34,35
 348 286 348 286 329.5 250 c 128,-1,36
 311 214 311 214 300 166 c 2,37,-1
 288 112 l 1,38,-1
 261 72 l 1,39,-1
 261 68 l 1,40,-1
 644 591 l 2,41,42
 653 606 653 606 672 606 c 0,43,44
 717 606 717 606 738.5 579 c 128,-1,45
 760 552 760 552 751 506 c 2,46,-1
 654 54 l 2,47,48
 648 27 648 27 627.5 9 c 128,-1,49
 607 -9 607 -9 583 -9 c 1,50,-1
 693 506 l 2,51,52
 701 544 701 544 669 549 c 1,53,-1
 262 -9 l 1,54,55
 238 -9 238 -9 225.5 9 c 128,-1,56
 213 27 213 27 219 54 c 2,57,-1
 243 166 l 2,58,59
 255 222 255 222 281 267 c 128,-1,60
 307 312 307 312 354 357 c 0,61,62
 396 398 396 398 405 437 c 0,63,64
 410 455 410 455 410 474 c 128,-1,65
 410 493 410 493 407 510.5 c 128,-1,66
 404 528 404 528 397 540 c 128,-1,67
 390 552 390 552 381 556 c 1,68,69
 366 546 366 546 351 534 c 0,70,71
 344 528 344 528 335 520 c 0,72,73
 324 512 324 512 312.5 512 c 128,-1,74
 301 512 301 512 295 520 c 2,75,-1
 264 556 l 1,76,77
 247 550 247 550 227.5 531 c 128,-1,78
 208 512 208 512 193 482 c 1,0,1
178 405 m 256,79,80
 173 384 173 384 183.5 370.5 c 128,-1,81
 194 357 194 357 216 357 c 256,82,83
 237 357 237 357 253.5 370.5 c 128,-1,84
 270 384 270 384 274 405 c 256,85,86
 279 427 279 427 267.5 440.5 c 128,-1,87
 256 454 256 454 235 454 c 256,88,89
 214 454 214 454 198 440.5 c 128,-1,90
 182 427 182 427 178 405 c 256,79,80
EndSplineSet
EndChar
StartChar: uni0E12
Encoding: 3602 3602 229
Width: 937
VWidth: 1507
Flags: W
HStem: -9 45<446.238 522.94> 139 45<459.72 536.872> 250 44<360.831 383> 390 46<371.446 446.67> 586 20G<359.5 377 541.5 557 963 970.745>
VStem: 309 45<312.362 376.036> 451 45<307.924 371.638>
Fore
354 342 m 256,0,1
 350 321 350 321 360.5 307.5 c 128,-1,2
 371 294 371 294 392 294 c 256,3,4
 413 294 413 294 429.5 307.5 c 128,-1,5
 446 321 446 321 451 342 c 256,6,7
 455 363 455 363 444.5 376.5 c 128,-1,8
 434 390 434 390 413 390 c 256,9,10
 392 390 392 390 375.5 376.5 c 128,-1,11
 359 363 359 363 354 342 c 256,0,1
440 87 m 256,12,13
 436 66 436 66 448 51 c 128,-1,14
 460 36 460 36 481 36 c 256,15,16
 502 36 502 36 520 51 c 128,-1,17
 538 66 538 66 543 87 c 256,18,19
 547 109 547 109 535 124 c 128,-1,20
 523 139 523 139 502 139 c 256,21,22
 481 139 481 139 463 124 c 128,-1,23
 445 109 445 109 440 87 c 256,12,13
383 250 m 1,24,25
 344 250 344 250 322.5 276.5 c 128,-1,26
 301 303 301 303 309 342 c 256,27,28
 317 381 317 381 350 408.5 c 128,-1,29
 383 436 383 436 422 436 c 0,30,31
 460 436 460 436 481.5 408.5 c 128,-1,32
 503 381 503 381 496 342 c 0,33,34
 487 307 487 307 460 282 c 2,35,-1
 145 -9 l 1,36,37
 121 -9 121 -9 108 9 c 128,-1,38
 95 27 95 27 101 54 c 2,39,-1
 182 434 l 2,40,41
 191 475 191 475 213 507.5 c 128,-1,42
 235 540 235 540 262 561.5 c 128,-1,43
 289 583 289 583 318.5 594.5 c 128,-1,44
 348 606 348 606 371 606 c 0,45,46
 383 606 383 606 387 598 c 1,47,48
 399 586 399 586 410 577 c 0,49,50
 419 568 419 568 428 560 c 128,-1,51
 437 552 437 552 445 544 c 1,52,-1
 526 598 l 2,53,54
 537 606 537 606 546 606 c 0,55,56
 568 606 568 606 592 594.5 c 128,-1,57
 616 583 616 583 634.5 561.5 c 128,-1,58
 653 540 653 540 662 507.5 c 128,-1,59
 671 475 671 475 662 434 c 2,60,-1
 601 149 l 1,61,-1
 799 48 l 1,62,-1
 904 541 l 2,63,64
 910 567 910 567 930.5 585.5 c 128,-1,65
 951 604 951 604 975 604 c 1,66,-1
 858 54 l 2,67,68
 852 27 852 27 831.5 9 c 128,-1,69
 811 -9 811 -9 787 -9 c 1,70,-1
 588 90 l 1,71,72
 579 47 579 47 545 19 c 128,-1,73
 511 -9 511 -9 470 -9 c 0,74,75
 431 -9 431 -9 408.5 19 c 128,-1,76
 386 47 386 47 395 87 c 0,77,78
 402 127 402 127 437 155.5 c 128,-1,79
 472 184 472 184 511 184 c 0,80,81
 532 184 532 184 549 175 c 1,82,-1
 604 434 l 2,83,84
 609 460 609 460 605 481 c 128,-1,85
 601 502 601 502 591.5 517 c 128,-1,86
 582 532 582 532 569 541 c 128,-1,87
 556 550 556 550 544 553 c 1,88,89
 537 549 537 549 522.5 538.5 c 128,-1,90
 508 528 508 528 491 517 c 0,91,92
 473 505 473 505 452 491 c 0,93,94
 431 476 431 476 416 491 c 0,95,96
 401 505 401 505 387 517 c 0,97,98
 375 528 375 528 365.5 538.5 c 128,-1,99
 356 549 356 549 351 553 c 1,100,101
 338 550 338 550 320.5 541 c 128,-1,102
 303 532 303 532 287 517 c 128,-1,103
 271 502 271 502 257.5 481 c 128,-1,104
 244 460 244 460 240 434 c 2,105,-1
 164 78 l 1,106,-1
 137 53 l 1,107,-1
 137 48 l 1,108,-1
 356 249 l 1,109,110
 362 247 362 247 368 246.5 c 128,-1,111
 374 246 374 246 383 246 c 1,112,-1
 383 250 l 1,24,25
EndSplineSet
EndChar
StartChar: uni0E13
Encoding: 3603 3603 230
Width: 904
VWidth: 1507
Flags: W
HStem: -9 45<184.562 260.239 734.989 812.445> 133 45<210.805 271.427> 555 51<345.016 477.322>
VStem: 134 45<56.2401 84 84 100.1>
Fore
179 84 m 0,0,1
 176 63 176 63 186.5 49.5 c 128,-1,2
 197 36 197 36 219 36 c 256,3,4
 240 36 240 36 256.5 49.5 c 128,-1,5
 273 63 273 63 276 84 c 0,6,7
 280 106 280 106 269.5 119.5 c 128,-1,8
 259 133 259 133 238 133 c 256,9,10
 217 133 217 133 200.5 119.5 c 128,-1,11
 184 106 184 106 179 84 c 0,0,1
730 87 m 256,12,13
 725 66 725 66 737 51 c 128,-1,14
 749 36 749 36 770 36 c 256,15,16
 791 36 791 36 809.5 51 c 128,-1,17
 828 66 828 66 832 87 c 256,18,19
 837 109 837 109 824.5 124 c 128,-1,20
 812 139 812 139 791 139 c 256,21,22
 770 139 770 139 752 124 c 128,-1,23
 734 109 734 109 730 87 c 256,12,13
249 178 m 0,24,25
 288 178 288 178 309 151 c 128,-1,26
 330 124 330 124 321 84 c 0,27,28
 314 45 314 45 280.5 18 c 128,-1,29
 247 -9 247 -9 208 -9 c 256,30,31
 169 -9 169 -9 148 18 c 128,-1,32
 127 45 127 45 134 84 c 2,33,-1
 179 291 l 1,34,35
 176 294 176 294 171.5 310.5 c 128,-1,36
 167 327 167 327 161 345 c 0,37,38
 155 366 155 366 146 392 c 0,39,40
 143 398 143 398 146 405 c 1,41,42
 155 448 155 448 180 485 c 128,-1,43
 205 522 205 522 241 549 c 128,-1,44
 277 576 277 576 321.5 591 c 128,-1,45
 366 606 366 606 415 606 c 256,46,47
 463 606 463 606 500.5 591 c 128,-1,48
 538 576 538 576 563 549 c 128,-1,49
 588 522 588 522 597.5 485 c 128,-1,50
 607 448 607 448 598 405 c 2,51,-1
 523 53 l 1,52,-1
 727 158 l 2,53,54
 757 175 757 175 767.5 190 c 128,-1,55
 778 205 778 205 781 220 c 2,56,-1
 849 541 l 2,57,58
 855 567 855 567 875 585.5 c 128,-1,59
 895 604 895 604 919 604 c 1,60,-1
 838 220 l 2,61,62
 835 210 835 210 831.5 199 c 128,-1,63
 828 188 828 188 823 181 c 1,64,65
 853 173 853 173 869 147.5 c 128,-1,66
 885 122 885 122 877 87 c 0,67,68
 868 47 868 47 833.5 19 c 128,-1,69
 799 -9 799 -9 760 -9 c 256,70,71
 720 -9 720 -9 698.5 17.5 c 128,-1,72
 677 44 677 44 683 80 c 1,73,-1
 509 -9 l 1,74,75
 485 -9 485 -9 472.5 9 c 128,-1,76
 460 27 460 27 466 54 c 2,77,-1
 541 405 l 2,78,79
 547 436 547 436 542 462 c 128,-1,80
 537 488 537 488 517 508 c 0,81,82
 499 529 499 529 469.5 542 c 128,-1,83
 440 555 440 555 404 555 c 256,84,85
 368 555 368 555 333 542 c 128,-1,86
 298 529 298 529 270 508 c 0,87,88
 246 490 246 490 229.5 464.5 c 128,-1,89
 213 439 213 439 205 413 c 1,90,91
 206 408 206 408 211 391.5 c 128,-1,92
 216 375 216 375 222 357 c 0,93,94
 228 336 228 336 237 312 c 0,95,96
 238 307 238 307 238 298 c 1,97,-1
 213 178 l 1,98,99
 196 169 196 169 182 154 c 1,100,-1
 184 149 l 1,101,102
 197 166 197 166 212.5 172 c 128,-1,103
 228 178 228 178 249 178 c 0,24,25
EndSplineSet
EndChar
StartChar: uni0E14
Encoding: 3604 3604 231
Width: 660
VWidth: 1507
Flags: W
HStem: -9 21G<133 165.912 513.299 521.5> 265 44<363.831 387> 405 46<374.446 449.444> 555 51<386.814 510.822>
VStem: 312 45<327.362 391.036> 454 45<323 386.638>
Fore
357 357 m 256,0,1
 353 336 353 336 363.5 322.5 c 128,-1,2
 374 309 374 309 395 309 c 256,3,4
 416 309 416 309 432.5 322.5 c 128,-1,5
 449 336 449 336 454 357 c 256,6,7
 458 378 458 378 447.5 391.5 c 128,-1,8
 437 405 437 405 416 405 c 256,9,10
 395 405 395 405 378.5 391.5 c 128,-1,11
 362 378 362 378 357 357 c 256,0,1
164 81 m 1,12,-1
 137 54 l 1,13,-1
 139 50 l 1,14,-1
 360 264 l 1,15,16
 366 262 366 262 372 261.5 c 128,-1,17
 378 261 378 261 387 261 c 1,18,-1
 387 265 l 1,19,20
 348 265 348 265 326 291.5 c 128,-1,21
 304 318 304 318 312 357 c 256,22,23
 320 396 320 396 353 423.5 c 128,-1,24
 386 451 386 451 425 451 c 256,25,26
 464 451 464 451 485 423.5 c 128,-1,27
 506 396 506 396 499 357 c 0,28,29
 491 324 491 324 466 298 c 2,30,-1
 145 -9 l 1,31,32
 121 -9 121 -9 108 9 c 128,-1,33
 95 27 95 27 101 54 c 2,34,-1
 176 405 l 2,35,36
 184 446 184 446 211 483 c 128,-1,37
 238 520 238 520 279 549 c 0,38,39
 318 576 318 576 364 591 c 128,-1,40
 410 606 410 606 458 606 c 0,41,42
 505 606 505 606 545 591 c 128,-1,43
 585 576 585 576 613 549 c 0,44,45
 644 520 644 520 653.5 483 c 128,-1,46
 663 446 663 446 656 405 c 2,47,-1
 580 54 l 2,48,49
 574 27 574 27 554 9 c 128,-1,50
 534 -9 534 -9 509 -9 c 1,51,-1
 598 405 l 2,52,53
 604 434 604 434 595 461 c 128,-1,54
 586 488 586 488 566 509.5 c 128,-1,55
 546 531 546 531 515.5 543 c 128,-1,56
 485 555 485 555 448 555 c 256,57,58
 410 555 410 555 374 543 c 128,-1,59
 338 531 338 531 309 509.5 c 128,-1,60
 280 488 280 488 260 461 c 128,-1,61
 240 434 240 434 234 405 c 2,62,-1
 164 81 l 1,12,-1
EndSplineSet
EndChar
